<svg width="86" height="86" fill="none" xmlns="http://www.w3.org/2000/svg"><rect x="17.984" width="69.486" height="69.486" rx="22" transform="rotate(15 17.984 0)" fill="#F0C733" fill-opacity=".1"/><path d="m62.254 52.135-2.004-.537-.537 2.003 2.005.537.536-2.003ZM62.794 50.127l-2.005-.537-.538 2.006 2.005.538.538-2.007ZM63.333 48.115l-2.005-.537-.537 2.004 2.005.537.537-2.004ZM59.175 55.6l-2.007-.538-.538 2.007 2.008.538.537-2.007ZM59.714 53.593l-2.007-.538-.537 2.003 2.007.538.537-2.003Z" fill="#222221"/><path d="m60.25 51.593-2.008-.538-.537 2.003 2.008.538.536-2.003ZM56.637 57.068l-2.004-.537-.537 2.004 2.004.537.537-2.004ZM54.09 58.538 52.081 58l-.538 2.007 2.008.537.537-2.006ZM51.543 60.002l-2.004-.537-.537 2.004 2.005.537.536-2.004Z" fill="#222221"/><path d="m49.011 61.471-2.007-.537-.538 2.006 2.007.538.538-2.007ZM46.461 62.943l-2.004-.537-.537 2.004 2.005.537.536-2.004ZM47 60.932l-2.004-.538-.538 2.007 2.005.537.538-2.006Z" fill="#222221"/><path d="m44.46 62.401-2.007-.538-.537 2.004 2.007.538.537-2.004ZM41.914 63.865l-2.004-.537-.537 2.007 2.004.537.537-2.007Z" fill="#222221"/><path d="m42.45 61.865-2.005-.537-.537 2.004 2.005.537.537-2.004Z" fill="#222221"/><path d="m39.91 63.327-2.008-.538-.537 2.007 2.007.537.538-2.006Z" fill="#222221"/><path d="m37.903 62.791-2.005-.537-.537 2.006 2.004.537.538-2.006ZM35.895 62.252l-2.004-.537-.538 2.006 2.004.537.538-2.006ZM33.89 61.714l-2.007-.538-.538 2.006 2.007.538.538-2.006Z" fill="#222221"/><path d="m34.43 59.718-2.008-.538-.537 2.003 2.007.538.537-2.003ZM32.418 59.178l-2.004-.537-.537 2.003 2.005.537.536-2.003Z" fill="#222221"/><path d="m30.417 58.643-2.007-.538-.537 2.004 2.007.538.537-2.004ZM30.956 56.636l-2.007-.538-.537 2.006 2.007.538.537-2.007Z" fill="#222221"/><path d="m28.95 56.1-2.005-.538-.537 2.007 2.004.537.538-2.006ZM27.48 53.557l-2.007-.538-.537 2.004 2.007.538.537-2.004ZM26.004 51.014 24 50.477l-.538 2.006 2.005.537.537-2.006ZM24.542 48.468l-2.007-.538-.537 2.003 2.008.538.536-2.003Z" fill="#222221"/><path d="m23.075 45.928-2.005-.537-.537 2.006 2.004.537.538-2.006ZM23.614 43.92l-2.005-.537-.537 2.003 2.005.538.537-2.004Z" fill="#222221"/><path d="m24.145 41.924-2.004-.537-.537 2.003 2.004.538.537-2.004Z" fill="#222221"/><path d="m22.144 41.382-2.007-.538-.537 2.003 2.007.538.537-2.003Z" fill="#222221"/><path d="m22.683 39.378-2.007-.538-.538 2.006 2.007.538.538-2.006ZM23.218 37.37l-2.007-.538-.537 2.004 2.007.538.537-2.004ZM64.946 42.1l-2.005-.538-.537 2.004 2.005.537.537-2.003ZM64.407 44.107l-2.005-.537-.537 2.007 2.004.537.538-2.007Z" fill="#222221"/><path d="m63.868 46.111-2.005-.537-.537 2.004 2.005.537.537-2.004ZM64.015 37.55l-2.007-.538-.538 2.006 2.007.538.538-2.006ZM63.476 39.561l-2.007-.538-.537 2.004 2.007.538.537-2.004ZM62.937 41.565l-2.007-.538-.537 2.004 2.007.538.537-2.004Z" fill="#222221"/><path d="m62.543 35.014-2.004-.537-.537 2.003 2.005.537.536-2.003ZM61.078 32.468l-2.008-.538-.537 2.006 2.007.538.538-2.006ZM59.602 29.924l-2.004-.537-.537 2.003 2.004.537.537-2.003Z" fill="#222221"/><path d="m58.144 27.39-2.007-.538-.538 2.006 2.007.538.538-2.007ZM56.669 24.846l-2.005-.537-.537 2.003 2.005.537.537-2.003Z" fill="#222221"/><path d="m56.133 26.85-2.004-.538-.538 2.007 2.005.537.537-2.006ZM54.667 24.307l-2.007-.537-.537 2.003 2.008.538.536-2.004ZM53.196 21.764l-2.005-.537-.537 2.006 2.004.537.538-2.006Z" fill="#222221"/><path d="m52.657 23.767-2.005-.537-.537 2.004 2.005.537.537-2.004ZM51.19 21.221l-2.006-.537-.538 2.006 2.007.538.538-2.007Z" fill="#222221"/><path d="m49.184 20.686-2.004-.538-.538 2.007 2.004.537.538-2.006ZM47.176 20.15l-2.004-.537-.538 2.007 2.005.537.537-2.007Z" fill="#222221"/><path d="m45.175 19.612-2.007-.538-.538 2.007 2.008.538.537-2.007ZM44.636 21.62l-2.007-.538-.537 2.004 2.007.538.537-2.004ZM42.626 21.08l-2.005-.537-.537 2.004 2.005.537.537-2.004Z" fill="#222221"/><path d="m40.624 20.546-2.007-.538-.537 2.004 2.008.537.536-2.003Z" fill="#222221"/><path d="m40.09 22.55-2.008-.538-.538 2.006 2.008.538.537-2.007Z" fill="#222221"/><path d="m38.083 22.01-2.005-.537-.538 2.006 2.005.537.538-2.006Z" fill="#222221"/><path d="m35.542 23.48-2.007-.539-.537 2.004 2.008.538.536-2.004ZM32.989 24.943l-2.005-.537-.537 2.007 2.004.537.538-2.007Z" fill="#222221"/><path d="m30.453 26.413-2.008-.538-.537 2.004 2.008.538.537-2.004ZM27.91 27.88l-2.004-.536-.537 2.006 2.004.537.538-2.006ZM27.372 29.889l-2.005-.537-.537 2.003 2.005.537.537-2.003Z" fill="#222221"/><path d="m26.836 31.889-2.004-.537-.537 2.003 2.004.537.537-2.003Z" fill="#222221"/><path d="m24.831 31.354-2.007-.538-.537 2.004 2.008.538.536-2.004Z" fill="#222221"/><path d="m24.296 33.358-2.007-.538-.538 2.007 2.008.538.537-2.007ZM23.753 35.366l-2.007-.538-.537 2.004 2.007.538.537-2.004Z" fill="#222221"/><path d="m60.788 49.589-2.007-.538-.537 2.006 2.007.538.537-2.006ZM61.324 47.58l-2.008-.537-.537 2.004 2.008.538.537-2.004Z" fill="#E79E39"/><path d="m61.867 45.577-2.008-.538-.537 2.007 2.007.537.538-2.006ZM62.402 43.57l-2.008-.539-.536 2.004 2.007.538.537-2.004ZM57.172 55.064l-2.004-.537-.538 2.007 2.005.537.537-2.007ZM57.711 53.057l-2.004-.538-.537 2.004 2.005.537.536-2.003Z" fill="#E79E39"/><path d="m58.247 51.057-2.005-.538-.537 2.004 2.005.537.537-2.003ZM58.782 49.049l-2.005-.537-.537 2.006 2.004.537.538-2.006ZM59.32 47.045l-2.004-.537-.537 2.003 2.005.538.537-2.004Z" fill="#E79E39"/><path d="m59.86 45.041-2.005-.537-.537 2.006 2.004.538.538-2.007ZM60.399 43.03l-2.005-.538-.536 2.004 2.004.537.537-2.004Z" fill="#F0C733"/><path d="m60.934 41.025-2.004-.537-.538 2.007 2.004.537.538-2.007Z" fill="#F0C733"/><path d="m61.47 39.025-2.005-.537-.537 2.004 2.004.537.537-2.004ZM62.008 37.014l-2.004-.537-.538 2.006 2.005.537.537-2.006Z" fill="#F0C733"/><path d="m54.628 56.53-2.007-.538-.537 2.004 2.007.538.537-2.004Z" fill="#E79E39"/><path d="m55.167 54.53-2.007-.538L52.623 56l2.007.538.537-2.007ZM55.703 52.518l-2.008-.538-.537 2.004 2.008.538.537-2.004Z" fill="#E79E39"/><path d="m56.238 50.522-2.008-.538-.536 2.004 2.007.538.537-2.004ZM56.777 48.51l-2.008-.537-.537 2.006 2.007.538.538-2.007Z" fill="#E79E39"/><path d="m57.316 46.507-2.007-.538-.537 2.003 2.007.538.537-2.003Z" fill="#F0C733"/><path d="m57.85 44.503-2.006-.538-.538 2.006 2.007.538.538-2.006ZM58.386 42.495l-2.007-.538-.537 2.004 2.007.538.537-2.004ZM58.93 40.487l-2.008-.538-.538 2.007 2.007.537.538-2.006Z" fill="#F0C733"/><path d="m59.464 38.487-2.007-.538-.537 2.004 2.007.538.537-2.004ZM60 36.48l-2.008-.539-.537 2.007 2.007.538.537-2.007ZM60.538 34.475l-2.007-.538-.537 2.004 2.008.538.536-2.004Z" fill="#F0C733"/><path d="m52.083 58.002-2.005-.537-.538 2.006 2.005.538.538-2.007ZM52.618 55.99l-2.005-.537-.537 2.004 2.005.537.537-2.004Z" fill="#E79E39"/><path d="m53.153 53.986-2.005-.537-.537 2.007 2.004.537.538-2.007Z" fill="#E79E39"/><path d="m53.692 51.982-2.005-.537-.536 2.004 2.004.537.537-2.004Z" fill="#F0C733"/><path d="m54.23 49.982-2.003-.537-.537 2.004 2.004.537.537-2.004ZM54.766 47.975l-2.004-.538-.538 2.007 2.004.537.538-2.006ZM55.301 45.967l-2.004-.537-.537 2.003 2.004.538.537-2.004Z" fill="#F0C733"/><path d="m55.84 43.963-2.004-.537-.538 2.006 2.005.537.537-2.006ZM56.38 41.955l-2.005-.537-.537 2.004 2.005.537.536-2.004Z" fill="#F0C733"/><path d="m56.914 39.951-2.004-.537-.537 2.007 2.004.537.537-2.007Z" fill="#F0C733"/><path d="m57.45 37.947-2.005-.537-.537 2.004 2.005.537.537-2.004ZM57.993 35.94l-2.005-.538-.537 2.007 2.004.537.538-2.007Z" fill="#F0C733"/><path d="m58.528 33.94-2.005-.538-.537 2.004 2.005.537.537-2.004ZM59.067 31.928l-2.005-.537-.537 2.006 2.004.537.538-2.006Z" fill="#F0C733"/><path d="m49.546 59.468-2.007-.538-.537 2.003 2.007.538.537-2.003Z" fill="#E79E39"/><path d="m50.085 57.464-2.007-.538-.538 2.006 2.008.538.537-2.006ZM50.624 55.456l-2.007-.538-.537 2.004 2.008.538.536-2.004Z" fill="#E79E39"/><path d="m51.16 53.452-2.008-.538-.537 2.007 2.007.537.538-2.006ZM51.695 51.444l-2.008-.538-.536 2.004 2.007.538.537-2.004Z" fill="#F0C733"/><path d="m52.234 49.448-2.007-.538-.537 2.004 2.007.538.537-2.004ZM52.769 47.44l-2.007-.538-.538 2.007 2.007.538.538-2.007ZM53.308 45.432l-2.007-.538-.537 2.004 2.007.538.537-2.004Z" fill="#F0C733"/><path d="m53.843 43.428-2.007-.537-.538 2.006 2.008.538.537-2.007ZM54.386 41.42l-2.007-.537-.537 2.004 2.007.537.537-2.003Z" fill="#F0C733"/><path d="m54.921 39.417-2.007-.538-.538 2.006 2.008.538.537-2.006Z" fill="#F0C733"/><path d="m55.456 37.413-2.007-.538-.537 2.004 2.008.538.536-2.004ZM55.992 35.401l-2.008-.538-.537 2.007 2.007.538.538-2.007Z" fill="#F0C733"/><path d="m56.53 33.401-2.007-.538-.537 2.004 2.008.538.537-2.004Z" fill="#F0C733"/><path d="m57.07 31.397-2.008-.538-.537 2.007 2.007.538.538-2.007ZM57.605 29.39l-2.007-.538-.537 2.003 2.007.538.537-2.004Z" fill="#fff"/><path d="m47.54 58.928-2.005-.537-.537 2.003 2.005.537.537-2.003Z" fill="#E79E39"/><path d="m48.075 56.928-2.005-.537-.537 2.006 2.004.537.538-2.006ZM48.61 54.916l-2.005-.537-.536 2.004 2.004.537.537-2.004Z" fill="#E79E39"/><path d="m49.145 52.916-2.004-.537-.538 2.006 2.004.538.538-2.007ZM49.688 50.908l-2.004-.537-.537 2.004 2.004.537.537-2.004Z" fill="#F0C733"/><path d="m50.223 48.908-2.004-.537-.537 2.004 2.004.537.537-2.004ZM50.758 46.9l-2.004-.537-.538 2.007 2.005.537.537-2.007ZM51.297 44.897l-2.004-.538-.537 2.004 2.005.537.536-2.003ZM51.836 42.889l-2.004-.537-.538 2.006 2.005.537.537-2.006ZM52.372 40.88l-2.005-.536-.537 2.003 2.005.538.537-2.004Z" fill="#F0C733"/><path d="m52.91 38.877-2.004-.537-.537 2.006 2.004.537.538-2.006Z" fill="#F0C733"/><path d="m53.446 36.873-2.005-.537-.537 2.004 2.005.537.537-2.004ZM53.985 34.865l-2.005-.537-.537 2.007 2.004.537.538-2.007Z" fill="#F0C733"/><path d="m54.52 32.861-2.004-.537-.537 2.004 2.004.537.537-2.004ZM55.06 30.854l-2.005-.538-.538 2.007 2.004.537.538-2.006Z" fill="#fff"/><path d="m55.598 28.854-2.004-.538-.537 2.004 2.004.537.537-2.003Z" fill="#fff"/><path d="m44.995 60.397-2.007-.538-.537 2.007 2.007.538.538-2.007ZM45.535 58.393l-2.008-.538-.537 2.004 2.008.538.537-2.004Z" fill="#E79E39"/><path d="m46.07 56.39-2.008-.538-.537 2.006 2.007.538.538-2.007Z" fill="#E79E39"/><path d="m46.609 54.382-2.007-.538-.537 2.003 2.007.538.537-2.003Z" fill="#F0C733"/><path d="m47.148 52.378-2.007-.538-.538 2.006 2.007.538.538-2.006ZM47.687 50.37l-2.007-.538-.537 2.004 2.007.538.537-2.004Z" fill="#F0C733"/><path d="m48.218 48.374-2.007-.538-.537 2.004 2.007.537.537-2.003ZM48.757 46.366l-2.007-.538-.538 2.007 2.007.538.538-2.007ZM49.296 44.354l-2.007-.538-.537 2.004 2.007.538.537-2.004Z" fill="#F0C733"/><path d="m49.831 42.354-2.007-.538-.537 2.007 2.007.538.537-2.007ZM50.37 40.346l-2.007-.537-.537 2.003 2.008.538.536-2.004ZM50.906 38.339l-2.008-.538-.537 2.006 2.007.538.538-2.006Z" fill="#F0C733"/><path d="m51.445 36.339-2.008-.538-.536 2.003 2.007.538.537-2.003Z" fill="#F0C733"/><path d="m51.984 34.33-2.007-.537-.538 2.007 2.007.537.538-2.006Z" fill="#fff"/><path d="m52.519 32.327-2.007-.538-.537 2.004 2.007.538.537-2.004ZM53.058 30.32l-2.007-.539-.538 2.007 2.007.538.538-2.007Z" fill="#fff"/><path d="m53.597 28.315-2.007-.538-.537 2.004 2.007.538.537-2.004Z" fill="#F0C733"/><path d="m54.132 26.311-2.007-.538-.537 2.004 2.007.538.537-2.004Z" fill="#F0C733"/><path d="m42.989 59.857-2.005-.537-.537 2.007 2.004.537.538-2.007Z" fill="#E79E39"/><path d="m43.524 57.853-2.005-.537-.536 2.004 2.004.537.537-2.004Z" fill="#E79E39"/><path d="m44.06 55.853-2.005-.537-.538 2.007 2.004.537.538-2.007Z" fill="#E79E39"/><path d="m44.602 53.842-2.004-.537-.537 2.003 2.004.537.537-2.003Z" fill="#F0C733"/><path d="m45.137 51.838-2.004-.537-.538 2.006 2.005.537.537-2.006Z" fill="#F0C733"/><path d="m45.672 49.834-2.004-.537-.537 2.004 2.005.537.536-2.004Z" fill="#F0C733"/><path d="m46.211 47.834-2.004-.537-.537 2.004 2.005.537.536-2.004ZM46.747 45.826l-2.005-.537-.537 2.007 2.004.537.538-2.007ZM47.286 43.818l-2.005-.537-.537 2.004 2.005.537.537-2.004ZM47.82 41.81l-2.004-.537-.537 2.007 2.004.537.538-2.007ZM48.36 39.807l-2.005-.538-.536 2.004 2.004.537.537-2.003Z" fill="#F0C733"/><path d="m48.899 37.803-2.005-.537-.537 2.006 2.004.537.538-2.006Z" fill="#F0C733"/><path d="m49.434 35.799-2.004-.537-.537 2.004 2.004.537.537-2.004ZM49.973 33.787l-2.004-.537-.538 2.007 2.005.537.537-2.007Z" fill="#fff"/><path d="m50.512 31.787-2.004-.537-.537 2.004 2.004.537.537-2.004Z" fill="#fff"/><path d="m51.047 29.78-2.004-.538-.538 2.007 2.005.537.537-2.007Z" fill="#F0C733"/><path d="m51.583 27.775-2.005-.537-.537 2.004 2.005.537.537-2.004Z" fill="#F0C733"/><path d="m52.118 25.775-2.005-.537-.537 2.004 2.005.537.537-2.004Z" fill="#fff"/><path d="m40.445 61.33-2.008-.537-.536 2.004 2.007.538.537-2.004ZM40.984 59.32l-2.007-.539-.538 2.007 2.007.538.538-2.007Z" fill="#E79E39"/><path d="m41.519 57.315-2.007-.538-.537 2.004 2.007.538.537-2.004Z" fill="#E79E39"/><path d="m42.058 55.315-2.007-.538-.538 2.007 2.007.538.538-2.007ZM42.597 53.303l-2.007-.537-.537 2.003 2.007.538.537-2.004Z" fill="#F0C733"/><path d="m43.132 51.303-2.007-.537-.538 2.006 2.007.538.538-2.007ZM43.667 49.292l-2.007-.538-.537 2.004 2.008.537.536-2.003Z" fill="#F0C733"/><path d="m44.206 47.296-2.007-.538-.537 2.003 2.008.538.536-2.003Z" fill="#F0C733"/><path d="m44.742 45.292-2.008-.538-.537 2.007 2.007.537.538-2.006ZM45.28 43.28l-2.007-.538-.537 2.004 2.008.538.537-2.004Z" fill="#F0C733"/><path d="m45.82 41.276-2.008-.538-.537 2.007 2.007.538.538-2.007ZM46.355 39.268l-2.007-.538-.537 2.004 2.007.538.537-2.004Z" fill="#F0C733"/><path d="m46.894 37.264-2.007-.537-.538 2.006 2.007.538.538-2.007Z" fill="#fff"/><path d="m47.43 35.264-2.008-.537-.537 2.003 2.007.538.537-2.004ZM47.968 33.253l-2.007-.538-.538 2.006 2.008.538.537-2.006Z" fill="#fff"/><path d="m48.503 31.249-2.007-.538-.537 2.004 2.007.537.537-2.003Z" fill="#F0C733"/><path d="m49.042 29.245-2.007-.538-.537 2.007 2.007.537.537-2.006Z" fill="#F0C733"/><path d="m49.578 27.241-2.008-.538-.537 2.004 2.008.538.537-2.004ZM50.117 25.237l-2.008-.538-.537 2.004 2.008.538.537-2.004Z" fill="#fff"/><path d="m50.656 23.225-2.008-.538-.537 2.007 2.007.538.538-2.007Z" fill="#F0C733"/><path d="m38.438 60.791-2.004-.537-.537 2.004 2.004.537.537-2.004ZM38.973 58.783l-2.004-.537-.538 2.007 2.005.537.537-2.007ZM39.512 56.78l-2.004-.538-.537 2.004 2.004.537.537-2.004Z" fill="#E79E39"/><path d="m40.047 54.775-2.004-.537-.538 2.007 2.005.537.537-2.007ZM40.586 52.767l-2.004-.537-.537 2.004 2.005.537.536-2.004Z" fill="#F0C733"/><path d="m41.122 50.767-2.005-.537-.537 2.007 2.004.537.538-2.007ZM41.664 48.756l-2.004-.537-.537 2.003 2.005.538.536-2.004Z" fill="#F0C733"/><path d="m42.196 46.76-2.005-.537-.537 2.003 2.005.537.537-2.003ZM42.735 44.748l-2.005-.537-.537 2.007 2.004.537.538-2.007ZM43.274 42.744l-2.005-.537-.536 2.004 2.004.537.537-2.004Z" fill="#F0C733"/><path d="m43.813 40.74-2.004-.537-.538 2.007 2.004.537.538-2.007Z" fill="#F0C733"/><path d="m44.348 38.732-2.004-.537-.537 2.004 2.004.537.537-2.004ZM44.883 36.725l-2.004-.538-.538 2.007 2.005.537.537-2.006Z" fill="#fff"/><path d="m45.422 34.725-2.004-.538-.537 2.004 2.004.537.537-2.003Z" fill="#fff"/><path d="m45.961 32.713-2.004-.537-.538 2.006 2.005.537.537-2.006Z" fill="#F0C733"/><path d="m46.497 30.713-2.005-.537-.537 2.003 2.005.538.537-2.004Z" fill="#F0C733"/><path d="m47.032 28.705-2.005-.537-.537 2.006 2.004.538.538-2.007ZM47.575 26.701l-2.005-.537-.537 2.004 2.005.537.537-2.004Z" fill="#fff"/><path d="m48.11 24.701-2.005-.537-.536 2.004 2.004.537.537-2.004ZM48.645 22.69l-2.004-.538-.538 2.007 2.004.537.538-2.007Z" fill="#F0C733"/><path d="m36.43 60.252-2.004-.537-.537 2.004 2.004.537.537-2.004Z" fill="#E79E39"/><path d="m36.97 58.248-2.005-.537-.538 2.007 2.005.537.537-2.007Z" fill="#E79E39"/><path d="m37.504 56.24-2.004-.537-.537 2.004 2.005.537.536-2.004Z" fill="#F0C733"/><path d="m38.04 54.24-2.005-.537-.537 2.007 2.004.537.538-2.007ZM38.579 52.228l-2.005-.537-.537 2.004 2.005.537.537-2.004Z" fill="#F0C733"/><path d="m39.118 50.228-2.005-.537-.537 2.007 2.004.537.538-2.007ZM39.653 48.22l-2.005-.536-.537 2.003 2.005.537.537-2.003Z" fill="#F0C733"/><path d="m40.188 46.22-2.004-.536-.537 2.003 2.004.537.537-2.003ZM40.731 44.213l-2.004-.537-.538 2.006 2.004.537.538-2.006ZM41.266 42.205l-2.004-.537-.537 2.004 2.004.537.537-2.004Z" fill="#F0C733"/><path d="m41.801 40.201-2.004-.537-.538 2.007 2.005.537.537-2.007ZM42.34 38.193l-2.004-.537-.537 2.004 2.005.537.536-2.004Z" fill="#fff"/><path d="m42.88 36.19-2.005-.538-.538 2.007 2.005.537.537-2.007Z" fill="#fff"/><path d="m43.415 34.185-2.005-.537-.537 2.004 2.005.537.537-2.004ZM43.954 32.178l-2.005-.537-.537 2.006 2.004.537.538-2.006Z" fill="#F0C733"/><path d="m44.489 30.178-2.005-.537-.537 2.003 2.005.537.537-2.003ZM45.028 28.166l-2.005-.537-.537 2.006 2.004.537.538-2.006Z" fill="#fff"/><path d="m45.563 26.162-2.004-.537-.537 2.004 2.004.537.537-2.004Z" fill="#F0C733"/><path d="m46.098 24.158-2.004-.537-.537 2.004 2.004.537.537-2.004ZM46.641 22.15l-2.004-.537-.538 2.007 2.005.537.537-2.007Z" fill="#F0C733"/><path d="m34.968 57.71-2.007-.538-.538 2.006 2.008.538.537-2.006Z" fill="#E79E39"/><path d="m35.503 55.706-2.007-.538-.537 2.004 2.007.538.537-2.004Z" fill="#F0C733"/><path d="m36.038 53.702-2.007-.538-.537 2.007 2.007.537.537-2.006ZM36.581 51.69l-2.007-.538-.537 2.004 2.008.538.536-2.004Z" fill="#F0C733"/><path d="m37.117 49.69-2.008-.538-.537 2.007 2.007.538.538-2.007Z" fill="#F0C733"/><path d="m37.652 47.686-2.008-.538-.536 2.004 2.007.538.537-2.004ZM38.19 45.682l-2.006-.538-.537 2.004 2.007.538.537-2.004Z" fill="#F0C733"/><path d="m38.726 43.678-2.007-.537-.538 2.006 2.007.538.538-2.007Z" fill="#F0C733"/><path d="m39.265 41.667-2.007-.538-.537 2.004 2.007.537.537-2.003Z" fill="#fff"/><path d="m39.8 39.663-2.007-.538-.538 2.007 2.008.537.537-2.006ZM40.34 37.659l-2.008-.538-.537 2.004 2.007.538.537-2.004Z" fill="#fff"/><path d="m40.878 35.651-2.007-.538-.538 2.007 2.008.538.537-2.007Z" fill="#F0C733"/><path d="m41.413 33.651-2.007-.538-.537 2.004 2.008.538.536-2.004Z" fill="#F0C733"/><path d="m41.949 31.64-2.008-.538-.537 2.006 2.007.538.538-2.007Z" fill="#fff"/><path d="m42.488 29.64-2.008-.538-.536 2.003 2.007.538.537-2.004Z" fill="#fff"/><path d="m43.027 27.632-2.008-.538-.537 2.006 2.007.538.538-2.006Z" fill="#F0C733"/><path d="m43.562 25.628-2.007-.538-.537 2.004 2.007.537.537-2.003ZM44.1 23.624l-2.006-.538-.537 2.004 2.007.538.537-2.004ZM32.954 57.17l-2.005-.537-.537 2.006 2.004.537.538-2.006ZM33.493 55.166l-2.005-.537-.537 2.004 2.005.537.537-2.004Z" fill="#F0C733"/><path d="m34.032 53.162-2.005-.537-.537 2.007 2.004.537.538-2.007ZM34.567 51.154l-2.005-.537-.536 2.004 2.004.537.537-2.004Z" fill="#F0C733"/><path d="m35.102 49.15-2.004-.537-.538 2.007 2.004.537.538-2.007ZM35.645 47.142l-2.004-.537-.537 2.004 2.004.537.537-2.004Z" fill="#F0C733"/><path d="m36.176 45.146-2.004-.537-.537 2.004 2.004.537.537-2.004Z" fill="#F0C733"/><path d="m36.715 43.139-2.004-.537-.538 2.006 2.005.537.537-2.006ZM37.25 41.13l-2.004-.536-.537 2.003 2.005.538.537-2.004Z" fill="#fff"/><path d="m37.793 39.127-2.004-.537-.538 2.006 2.005.537.537-2.006Z" fill="#fff"/><path d="m38.329 37.12-2.005-.538-.537 2.004 2.005.537.537-2.004Z" fill="#F0C733"/><path d="m38.864 35.115-2.005-.537-.537 2.007 2.004.537.538-2.007Z" fill="#F0C733"/><path d="m39.403 33.111-2.005-.537-.537 2.004 2.005.537.537-2.004ZM39.942 31.1l-2.005-.538-.537 2.007 2.004.537.538-2.006Z" fill="#fff"/><path d="m40.477 29.1-2.004-.538-.537 2.004 2.004.537.537-2.003ZM41.012 27.092l-2.004-.537-.538 2.006 2.005.537.537-2.006ZM41.551 25.088l-2.004-.537-.537 2.004 2.004.537.537-2.004Z" fill="#F0C733"/><path d="m42.09 23.088-2.004-.537-.537 2.004 2.004.537.537-2.004ZM31.495 54.628l-2.007-.538-.537 2.004 2.008.537.537-2.003Z" fill="#F0C733"/><path d="m32.03 52.628-2.007-.538-.537 2.006 2.007.538.538-2.006ZM32.57 50.62l-2.008-.538-.536 2.004 2.007.538.537-2.004Z" fill="#F0C733"/><path d="m33.105 48.616-2.007-.538-.538 2.007 2.007.538.538-2.007ZM33.644 46.608l-2.007-.538-.537 2.004 2.007.538.537-2.004Z" fill="#F0C733"/><path d="m34.179 44.612-2.007-.538-.537 2.004 2.007.538.537-2.004ZM34.714 42.6l-2.007-.538-.538 2.007 2.008.538.537-2.007ZM35.253 40.596l-2.007-.537-.537 2.003 2.007.538.537-2.004Z" fill="#fff"/><path d="m35.792 38.593-2.007-.538-.537 2.006 2.007.538.537-2.006ZM36.331 36.58l-2.007-.537-.537 2.004 2.008.538.536-2.004Z" fill="#F0C733"/><path d="m36.867 34.577-2.008-.538-.537 2.007 2.007.537.538-2.006ZM37.406 32.573l-2.008-.538-.537 2.004 2.008.538.537-2.004Z" fill="#fff"/><path d="m37.945 30.565-2.008-.538-.537 2.007 2.007.538.538-2.007Z" fill="#F0C733"/><path d="m38.48 28.565-2.007-.538-.537 2.004 2.007.538.537-2.004ZM39.015 26.557l-2.007-.537-.538 2.006 2.007.538.538-2.007ZM39.554 24.55l-2.007-.538-.537 2.003 2.007.538.537-2.004ZM29.489 54.092l-2.005-.537-.537 2.003 2.005.538.537-2.004Z" fill="#F0C733"/><path d="m30.024 52.092-2.005-.537-.537 2.006 2.004.537.538-2.006ZM30.56 50.08l-2.005-.537-.537 2.004 2.004.537.537-2.004Z" fill="#F0C733"/><path d="m31.098 48.076-2.004-.537-.538 2.007 2.005.537.537-2.007Z" fill="#F0C733"/><path d="m31.637 46.072-2.004-.537-.537 2.004 2.004.537.537-2.004Z" fill="#fff"/><path d="m32.172 44.072-2.004-.537-.537 2.004 2.005.537.536-2.004ZM32.708 42.064l-2.005-.537-.537 2.007 2.004.537.538-2.007Z" fill="#fff"/><path d="m33.25 40.057-2.004-.538-.537 2.004 2.005.537.537-2.003Z" fill="#F0C733"/><path d="m33.786 38.053-2.005-.537-.537 2.006 2.004.537.538-2.006Z" fill="#F0C733"/><path d="m34.32 36.045-2.004-.537-.537 2.004 2.005.537.537-2.004Z" fill="#fff"/><path d="m34.86 34.041-2.005-.537-.537 2.006 2.004.538.538-2.007Z" fill="#fff"/><path d="m35.395 32.037-2.004-.537-.537 2.004 2.004.537.537-2.004ZM35.934 30.03l-2.004-.538-.538 2.007 2.004.537.538-2.007Z" fill="#F0C733"/><path d="m36.47 28.03-2.005-.538-.537 2.004 2.004.537.537-2.004ZM37.008 26.017l-2.004-.537-.538 2.007 2.005.537.537-2.007ZM37.547 24.014l-2.004-.537-.537 2.003 2.005.537.536-2.003ZM28.015 51.553l-2.007-.537-.538 2.006 2.007.538.538-2.007ZM28.558 49.542l-2.007-.538-.537 2.004 2.007.537.537-2.003Z" fill="#F0C733"/><path d="m29.093 47.542-2.007-.538-.538 2.006 2.008.538.537-2.006ZM29.632 45.534l-2.007-.538L27.088 47l2.007.538.537-2.004Z" fill="#fff"/><path d="m30.167 43.534-2.007-.538L27.623 45l2.008.538.536-2.004Z" fill="#fff"/><path d="m30.706 41.53-2.007-.538L28.162 43l2.007.538.537-2.007ZM31.242 39.518l-2.008-.538-.537 2.004 2.008.538.537-2.004Z" fill="#F0C733"/><path d="m31.78 37.514-2.007-.537-.537 2.006 2.007.538.538-2.007Z" fill="#fff"/><path d="m32.316 35.51-2.007-.537-.537 2.003 2.007.538.537-2.004Z" fill="#fff"/><path d="m32.855 33.503-2.007-.538-.538 2.006 2.007.538.538-2.006Z" fill="#F0C733"/><path d="m33.39 31.503-2.007-.538-.537 2.004 2.007.537.537-2.003ZM33.93 29.491l-2.008-.538-.538 2.007 2.007.537.538-2.006ZM34.468 27.487l-2.007-.538-.537 2.004 2.007.538.537-2.004Z" fill="#F0C733"/><path d="m35.003 25.483-2.007-.538-.538 2.007 2.008.538.537-2.007Z" fill="#F0C733"/><path d="m26.543 49.002-2.004-.537-.537 2.003 2.005.538.536-2.004Z" fill="#fff"/><path d="m27.079 47.002-2.005-.537-.537 2.006 2.004.538.538-2.007ZM27.618 44.994l-2.005-.537-.537 2.004 2.005.537.537-2.004Z" fill="#fff"/><path d="m28.153 42.994-2.005-.537-.537 2.004 2.005.537.537-2.004Z" fill="#F0C733"/><path d="m28.692 40.99-2.005-.537-.537 2.007 2.004.537.538-2.007Z" fill="#F0C733"/><path d="m29.227 38.982-2.004-.537-.537 2.004 2.004.537.537-2.004ZM29.766 36.975l-2.004-.538-.538 2.007 2.005.537.537-2.006Z" fill="#fff"/><path d="m30.305 34.967-2.004-.537-.537 2.003 2.004.538.537-2.004Z" fill="#F0C733"/><path d="m30.84 32.967-2.004-.537-.538 2.006 2.005.537.537-2.006ZM31.38 30.963l-2.005-.537-.537 2.003 2.005.538.536-2.004ZM31.918 28.951l-2.004-.537-.538 2.007 2.005.537.537-2.007Z" fill="#F0C733"/><path d="m32.454 26.947-2.005-.537-.537 2.004 2.005.537.537-2.004Z" fill="#F0C733"/><path d="m25.081 46.468-2.007-.538-.537 2.006 2.007.538.537-2.006Z" fill="#fff"/><path d="m25.62 44.46-2.007-.538-.537 2.004 2.008.537.537-2.003Z" fill="#F0C733"/><path d="m26.156 42.46-2.008-.538-.537 2.004 2.008.537.537-2.003Z" fill="#F0C733"/><path d="m26.69 40.452-2.006-.538-.538 2.007 2.007.538.538-2.007ZM27.23 38.448l-2.007-.538-.537 2.004 2.007.538.537-2.004Z" fill="#fff"/><path d="m27.769 36.44-2.007-.538-.538 2.007 2.007.538.538-2.007ZM28.304 34.432l-2.007-.538-.537 2.004 2.007.538.537-2.004Z" fill="#F0C733"/><path d="m28.843 32.428-2.007-.537-.538 2.006 2.008.538.537-2.007ZM29.382 30.424l-2.007-.537-.537 2.003 2.007.538.537-2.003ZM29.917 28.417l-2.007-.538-.538 2.006 2.008.538.537-2.006Z" fill="#F0C733"/><path d="m24.684 39.916-2.004-.537-.538 2.007 2.004.537.538-2.007Z" fill="#fff"/><path d="m25.223 37.904-2.004-.537-.537 2.004 2.004.537.537-2.004Z" fill="#F0C733"/><path d="m25.758 35.9-2.004-.537-.538 2.007 2.005.537.537-2.007ZM26.297 33.896l-2.004-.537-.537 2.004 2.004.537.537-2.004Z" fill="#F0C733"/></svg>