<svg width="54" height="40" fill="none" xmlns="http://www.w3.org/2000/svg"><path d="M22.073.36a7.21 7.21 0 0 1 5.51 2.805 16.237 16.237 0 0 0 3.978 3.384 8.599 8.599 0 0 0 7.542.815c4.513-1.443 10.014.185 12.643 3.51.81 1.949.644 2.526-1.102 3.514a8.475 8.475 0 0 0-2.553 1.886c-.198.243-.436.535-.734.564-2.76.27-5.067 1.972-7.77 2.422a5.802 5.802 0 0 1-3.467-.58 17.538 17.538 0 0 0-7.19-1.506 26.116 26.116 0 0 1-8.217-1.435c-2.171-.797-3.444-3.447-2.997-5.696.136-.616.1-1.256-.102-1.853a2.441 2.441 0 0 1-.035-1.83 7.043 7.043 0 0 0 .294-4.062C17.554.464 17.798.21 19.648.22a7.14 7.14 0 0 1 2.425.14Z" fill="#FCFCFE"/><path d="M22.07.36c-.189.01-.376.023-.564.027-2.887.068-2.886.068-2.455 2.947.037.246.152.55.055.737-1.205 2.317.227 4.894-.76 7.256-.393.939 1.951 3.363 3.366 3.758 2.22.62 4.537.651 6.793 1.135 1.61.345 3.51-.304 5.241.405.365.077.72.191 1.062.341 3.258 2.3 6.287 1.389 9.255-.605.154-.104.36-.277.496-.242 2.664.696 3.797-1.964 5.833-2.663a2.06 2.06 0 0 0 1.35-2.58 3.11 3.11 0 0 1 1.168 1.875 3.57 3.57 0 0 1-.045 2.373c-1.357 1.595-3.365 2.29-4.99 3.53-.891.68-1.482 1.708-2.557 2.144-1.84.255-3.44 1.283-5.245 1.647-3.623-1.273-7.574-.259-11.161-1.482-3.502-1.194-7.224-1.858-10.395-3.937a5.665 5.665 0 0 1-.936-.587c-.371-.37-.493-.922-.926-1.247-2.239-1.925-4.748-1.27-7.254-.807-2.028.374-3.93 1.383-6.127.955-1.276-.249-1.378-.813-.985-1.81C4.636 4.63 12.977.181 19.872.025c.749-.08 1.506.035 2.197.336Z" fill="#F7F8FD"/><path d="M24.976 27.92c-1.033.237-.844 1.14-.941 1.833-.324 2.3-.529 4.617-.9 6.908-.224 1.386-.663 2.84-2.411 2.93a3.157 3.157 0 0 1-3.252-2.389c-.478-1.45-.81-1.5-2.02-.49-1.865 1.56-4.863.35-5.605-2.042-1.206-3.887-1.228-3.91-4.912-5.614a3.185 3.185 0 0 1-.462-.32c.011-.062.003-.162.037-.179 2.97-1.49 5.224-4.375 8.866-4.555 2.503.413 4.87 1.385 7.302 1.94 2.175.497 4.56 1.507 6.916.069.897-.548 1.919.208 2.873.428.556.546.266 1.016-.168 1.425-1.178 1.112-4.157 1.132-5.323.055Z" fill="#BEC8F6"/><path d="M13.252 24.527c-2.004.094-3.127 1.747-4.63 2.698a8.78 8.78 0 0 1-4.15 1.51A8.227 8.227 0 0 1 .122 20a10.83 10.83 0 0 1 1.04-3.76c1.42.078 2.44.94 3.475 1.774 2.67 1.87 5.069 4.133 8.039 5.569.405.196.817.364.575.944Z" fill="#C2D5F7"/><path d="M4.201 18.507c-.86-.959-2.296-1.15-3.039-2.268l.36-.817a10.03 10.03 0 0 0 6.052 1.62c1.38-.104 2.704-.808 4.142-.404 3.988 1.417 8.029 2.591 12.298 2.766.636.427 1.467.485 2.028 1.056.246.358.43.755.544 1.175a1.6 1.6 0 0 1-.55 1.84 1.435 1.435 0 0 1-2.038-.138c-1.12-1.387-2.437-1.199-3.882-.811-1.523.408-3.218-.119-4.65.833a1.34 1.34 0 0 1-.497.184c-1.072-.521-2.256.253-3.327-.284-2.24-.377-3.155-2.6-4.981-3.621-.808-.452-1.815-.41-2.46-1.13Z" fill="#D7E0F8"/><path d="M24.975 27.92c2.039.447 3.77-.634 5.62-1.13.195-1.532 1.416-.68 2.162-.932 1.524.268 3.186-.599 4.604.557a8.826 8.826 0 0 1-3.923 1.733c-1.248.295-1.793.888-1.772 2.197a12.254 12.254 0 0 1-.824 4.61c-.343.89-.797 1.821-1.888 1.881-1.213.067-1.966-.753-2.425-1.777a17.224 17.224 0 0 1-1.223-5.107c-.08-.681-.219-1.355-.331-2.033Z" fill="#BCC6F4"/><path d="M32.859 26.416c-.725.305-1.585-.211-2.264.373a12.502 12.502 0 0 0-4.195.323c-2.262.591-4.547.076-6.71-.732-2.103-.785-4.28-1.277-6.439-1.853-3.51-1.263-6.075-3.95-9.05-6.02 2.143-.09 3.68 1.02 4.868 2.628a3.734 3.734 0 0 0 2.676 1.514c1.023 1.093 2.217.652 3.393.377 1.659-.357 3.171.278 4.646.829.898.336 1.705.719 2.682.46.432-.106.89-.038 1.272.189a3.871 3.871 0 0 0 3.926.046 1.576 1.576 0 0 1 1.27-.204c1.793.81 3.356.195 4.982-.56a6.42 6.42 0 0 1 3.752-.75c.936.15 1.554-.646 2.363-.908.204-.035.403-.066.607-.094 2.686-.955 5.377-1.552 8.144-.304.464.21.926.385 1.08.935-.272.379-.668.65-1.12.767-1.074.277-2.145.468-3.175-.154-1.453-.41-2.54.617-3.592 1.194a14.78 14.78 0 0 1-7.836 1.719 3.435 3.435 0 0 0-1.28.225Z" fill="#CED7F7"/><path d="M49.863 22.665c-3.26-.671-6.525-1.196-9.844-.404-.097-.083-.129-.167-.097-.25.032-.085.064-.127.096-.127l4.905-1.88a26.815 26.815 0 0 1 3.663-2.243 8.903 8.903 0 0 0 3.51-3.028c.723-.474.736-1.242.815-1.982a7.924 7.924 0 0 1-3.048 9.914Z" fill="#DDE5F6"/><path d="M2.29 13.53a2.656 2.656 0 0 0 3.354 1.017c3.225-1.158 6.494-2.647 9.941-.793.6.323 2.018-.783 1.814.977l-.176.208-.219.16c-2.93.067-5.553 1.556-8.434 1.837-1.712.157-3.437.051-5.116-.313a2.176 2.176 0 0 1-1.827-1.879l.664-1.213Z" fill="#F0F3FB"/><path d="M1.627 14.742a3.01 3.01 0 0 0 2.688 1.316 33.846 33.846 0 0 0 10.361-1.395c.786-.213 1.579-.481 2.345.067-1.295 2.109-3.608 2.309-5.652 3.014a2.616 2.616 0 0 0-2.922.122c-1.524 1.026-5.553-.503-6.924-2.445l.104-.679Z" fill="#E9ECF9"/><path d="M32.86 26.418c1.178-1.037 2.815-.718 4.086-.87 2.547-.307 4.421-1.755 6.604-2.647a4.398 4.398 0 0 1 2.136-.62c.783 1.239.235 1.879-.964 2.354-1.048.416-2.278.285-3.192 1.08l-4.168.702c-1.49.248-3.012.248-4.503.001Z" fill="#C6D1F4"/><path d="M41.531 25.712c.301-1.001 1.215-1.152 2.021-1.404 1.06-.332 1.936-.812 2.135-2.03l3.057 1.153a10.96 10.96 0 0 1-7.213 2.28Z" fill="#BDCAF3"/><path d="M40.017 21.883v.378l.007.012c-.355.219-.731.4-1.122.543-1.198.398-2.44.117-3.657.242-2.65.157-5.124-1.182-7.803-.901-.71.074-1.134-.721-1.745-1.024l-1.891-.745c-1.77-.237-3.277-1.274-5.056-1.585-1.32-.23-1.213-1.512.15-2.559 1.11 1.08 2.299 1.874 3.99 1.742a3.495 3.495 0 0 1 2.143.583c3.44 2.466 7.447 2.284 11.352 2.516a9.933 9.933 0 0 1 3.632.798Z" fill="#E9ECF9"/><path d="M18.901 16.246c-.685 1.12-.399 1.763.862 2.232 1.392.518 2.7 1.264 4.044 1.912-3.097-.787-6.372-.668-9.39-1.904a7.015 7.015 0 0 0-3.05-.74 14.012 14.012 0 0 1 5.653-3.015v.002c.323.427.703.808 1.13 1.13l.751.383Z" fill="#E0E3F7"/><path d="M52.094 14.733c-.654 2.583-3.178 2.994-4.972 4.239-.702.407-1.438.752-2.2 1.032.632-1.103 1.835-1.46 2.81-2.096 1.537-.94 2.995-2.001 4.362-3.175Z" fill="#EBEFF8"/><path d="M18.15 15.863a1.343 1.343 0 0 1-1.13-1.13l.376-.002.754 1.132Z" fill="#E9ECF9"/><path d="m38.893 22.263 1.132.011c-.537.82-1.191 1.512-2.253 1.477-1.712-.057-3.103.827-4.572 1.477-1.29.57-2.57 1.035-3.91.203a1.173 1.173 0 0 0-1.547.18 1.724 1.724 0 0 1-1.918.416c-2.16-.956-4.637-.02-6.816-1.453-1.057-.695-2.751-.537-3.87-1.548.57-1.375 1.89-1.295 2.995-1.363.742.035 1.486-.009 2.219-.131 1.6-.443 3.21-.962 4.173 1.104.148.318.636.619.963.399.747-.503.102-1.264.209-1.9 3.197-.442 6.236 1.09 9.424.76 1.219.517 2.552-.14 3.771.368Z" fill="#D5DAF8"/><path d="M15.14 23.026c-1.43 1.227-2.141 1.147-3.394-.377 1.102.39 2.31-.177 3.393.377Z" fill="#D5DAF8"/><path d="M38.894 22.264c-1.26-.093-2.565.284-3.771-.367 1.26.098 2.565-.276 3.771.367Z" fill="#DDE5F6"/></svg>