<svg width="142" height="128" fill="none" xmlns="http://www.w3.org/2000/svg"><path d="M60.804 2.356c4.356.302 8.272 2.088 12.224 3.701a28.178 28.178 0 0 0 26.505-1.87C114.048-4.466 131.57.73 139.304 15.741c3.296 6.397 2.401 12.615-.472 18.785-.941 2.019-2.174 3.901-3.273 5.847-.764.468-.129 1.417-.673 1.96-3.736.362-7.467.91-11.211 1.026a40.861 40.861 0 0 0-5.782.29c-2.52.436-3.787-.776-3.183-3.205.337-1.355-.374-1.742-1.125-2.319-2.357-1.809-4.757-3.395-6.156-6.341-1.251-2.636-2.991-2.992-5.215-1.184-3.58 2.91-8.013 1.66-11.898 2.999-1.37.473-2.934.866-4.401 1.26-4.304 1.157-8.497.391-12.633-.55-2.444-.557-4.918-1.064-7.353-1.712a5.496 5.496 0 0 1-4.369-4.105 3.825 3.825 0 0 0-3.832-3.31 2.95 2.95 0 0 1-2.85-2.518c-.49-2.135-1.367-4.168-.777-6.537a19.13 19.13 0 0 0 .126-7.5c-.806-5.399 1.066-7.041 6.577-6.271Z" fill="#FCFCFD"/><path d="M134.846 42.087c.004-.643.26-1.26.714-1.716a8.325 8.325 0 0 0 1.158 5.01 9.903 9.903 0 0 1 1.692 6.056 9.566 9.566 0 0 1-7.82 4.29 32.8 32.8 0 0 0-15.331 4.036 2.437 2.437 0 0 1-1.354.484c-3.774-.52-7.138 1.487-10.792 1.705-3.964.237-7.547 2.194-11.629 2.296-3.986.1-7.921-.415-11.885-.326a2.451 2.451 0 0 1-2.173-1.293c-2.03-3.543-5.363-5.025-9.084-5.945a17.29 17.29 0 0 0-7.984-2.686 8.976 8.976 0 0 1-3.146-1.62 5.64 5.64 0 0 1-1.001-8.023c.39-.672.533-1.459.405-2.225-.24-3.229.432-3.906 3.864-3.841-1.512-2.128-3.013-3.342-5.861-2.537-1.782.503-4.05.32-4.08-2.62a2.977 2.977 0 0 0-1.094-1.997 10.444 10.444 0 0 1-2.55-4.486 3.94 3.94 0 0 0-4.636-3.012c-4.33.406-8.696.116-12.933-.858-1.53-.375-4.936 1.995-5.93 3.993-1.464 2.944-3.949 5.227-5.29 8.286a2.76 2.76 0 0 1-3.031 1.311c-2.688-1.946-2.174-5.09-2.25-7.642-.08-2.73 3.172-2.612 4.894-3.651a1.332 1.332 0 0 1-1.013-.55c-.535-.959.069-5.727.998-6.02 2.505-.79 3.284-3.23 5.037-4.702.464-.39 1.04-.874 1.537-.695 3.477 1.26 3.06-1.543 3.6-3.359l1.667-1.001c.39-.13.767-.303 1.17-.397 2.244-.042 3.833.645 3.733 3.282-.062 1.61.718 1.877 2.01 1.176 1.99-1.081 3.29-.204 4.393 1.451 1.53 2.294 3.263 4.098 6.45 2.961 1.128-.402 1.982.394 2.72 1.27a13.785 13.785 0 0 1 3.06 8.58c.08 1.75.692 2.475 2.538 2.067 2.476-.547 4.028 1.035 5.346 2.753a12.352 12.352 0 0 0 4.086 3.621 5.302 5.302 0 0 0 5.778.039 5.6 5.6 0 0 1 4.988-.556 16.48 16.48 0 0 0 11.393-.662c1.204-.513 1.741-.77 2.917.738a34.027 34.027 0 0 0 7.047 5.925c.231.17.597.342.82.243 4.837-2.15 8.042 3.35 12.555 2.66 2.358 2.555 5.305 1.299 8.115 1.62 4.715.538 9.447.265 14.123.916 1.271.177 1.633-.406 1.326-1.507-.31-1.117-.368-2.114.733-2.842Z" fill="#F4F5F8"/><path d="M134.846 42.093a8.988 8.988 0 0 0 1.475 4.072c1 1.765.139 2.51-1.433 2.18-3.449-.722-7.086.175-10.31-.64-4.655-1.174-8.89.154-13.502.578 1.023-2.209.354-3.274-2.068-3.114-1.061.07-2.131-.022-3.194.023-.786.033-1.323.28-1.431-1.04a2.221 2.221 0 0 0-1.1-1.67 2.228 2.228 0 0 0-1.997-.115c-4.681 2.158-6.802-1.544-9.494-3.864-1.169-1.007-1.995-2.486-3.855-1.197-.125-1.204 1.333-1.407 1.02-2.55-1.765-.32-2.51 1.581-3.935 1.91a17.207 17.207 0 0 1-9.417-.145 3.974 3.974 0 0 0-3.582.068 8.223 8.223 0 0 1-11.246-2.595 15.76 15.76 0 0 0-3.013-3.116 1.733 1.733 0 0 0-2.117-.286c-2.462 1.298-3.567.42-4.017-2.202-.474-2.758.352-6.099-2.796-8.013-.645-.392.167-1.564-.67-2.074-2.47 2.046-7.39.44-8.378-2.673-.497-1.563-1.057-3.244-3.007-1.016a4.78 4.78 0 0 1-3.047.965c-1.762.162-1.638-1.82-1.131-2.99.884-2.046.177-3.097-1.689-3.768.984-1.87 3.182-1.935 4.632-3.112C43.61 1.924 51.938.11 60.804 2.359c-4.528.194-6.293 2.433-4.978 6.815a16.24 16.24 0 0 1-.188 7.176 14.466 14.466 0 0 0 .388 5.112c.38 1.813 1.042 2.818 3.194 2.044 1.971-.709 2.835 1.202 2.963 2.362.457 4.129 3.252 5.513 6.643 6.012 3.632.534 7.111 1.8 10.834 1.924a32.45 32.45 0 0 0 11.38-1.767 17.482 17.482 0 0 1 5.994-.926c2.361.059 4.124-1.488 5.703-3.047 1.379-1.361 2.362-1.158 3.638.181 2.994 3.143 4.931 7.262 8.871 9.542a1.919 1.919 0 0 1 .625 2.599c-.749 1.755.159 2.256 1.595 1.9 4.451-1.105 9.086.134 13.517-1.185a5.394 5.394 0 0 1 3.863.992Z" fill="#F8F9FB"/><path d="M19.128 66.667c-1.982-.468-4-.819-5.94-1.427a9.673 9.673 0 0 1-7.295-8.537c.851-1.153 1.996-1.013 3.16-.688 5.14 1.44 10.45 2.059 15.639 3.256a70.136 70.136 0 0 0 11.55 1.163c4.643.256 9.265.79 13.843 1.596 2.048.373 4.04-.55 6.057-.028a8.217 8.217 0 0 0 3.589.075c5.583.177 11.135 1.184 16.742.594a2.406 2.406 0 0 1 1.446.355c.411.218.762.533 1.02.92.348 1.103-.298 1.665-1.196 1.958-3.231 1.055-4.72 3.073-5.463 6.59a12.737 12.737 0 0 1-5.84 8.552 2.143 2.143 0 0 1-2.877-.382c-2.684-3.635-1.59-7.857-1.832-11.87-.07-1.179-.014-2.387-1.35-2.969a3.941 3.941 0 0 0-3.886.43c-1.174.75-1.038 2-1.1 3.15-.289 5.349-1.382 10.408-5 14.627a15.48 15.48 0 0 1-6.491 4.8 8.626 8.626 0 0 1-11.372-6.404 2.772 2.772 0 0 1 3.473-2.311c3.258.657 5.585-1.328 8-2.785 1.877-1.13 1.205-3.795-.782-4.724-5.864-2.742-12.318-2.577-18.48-3.827a15.7 15.7 0 0 1-5.615-2.114Z" fill="#C2D9F7"/><path d="M76.438 105.76c-1.188-5.85-.618-11.774-.638-17.663-.009-2.675-.47-3.569-3.162-2.12a4.034 4.034 0 0 1-5.099-.602 6.115 6.115 0 0 0 3.093-7.728A2.36 2.36 0 0 1 71.477 75c4.319-2.522 6.438-6.98 9.545-10.569a11.324 11.324 0 0 1 8.676 3.078c2.224 2.106 5.807 2.226 8.947 2.648.435.08.866.185 1.3.269 2.634.652 5.404.499 7.95-.44.277-.05.559-.066.84-.046 1.084.278 2.194.445 3.312.499.284.021.566.07.84.149.392.193.769.414 1.13.661 1.297.824 2.352 1.682.414 2.956-1.077 1.405-1.004 3.224-1.716 4.76a32.544 32.544 0 0 0-14.436 6.73 4.428 4.428 0 0 1-2.844 1.245c-2.56.396-4.472 2.219-6.742 3.251a48.165 48.165 0 0 0-7.742 4.542 3.951 3.951 0 0 0-1.601 3.458c-.11 2.689-.025 5.599-2.154 7.8a.886.886 0 0 1-.758-.232Z" fill="#C2CBF5"/><path d="M56.03 63.705c-7.504-.661-15.003-1.408-22.517-1.96a154.138 154.138 0 0 1-21.997-3.647c-1.88-.416-3.74-.928-5.61-1.395-1.636-4.36.551-7.794 2.718-11.233 7.95.84 15.818 2.32 23.53 4.424.881.414 1.859.581 2.828.483 4.098-1.14 8.014.024 11.968.759 2.393-.097 3.187 2.269 4.897 3.181 2.406 1.283 2.082 3.115 1.43 5.16-.365 1.144.267 1.803 1.248 2.252.845.387 1.922.619 1.506 1.976Z" fill="#CBDEF5"/><path d="m78.207 63.73-1.164-.029c-.553-.404-1.312-.31-1.847-.761-2.626-.736-3.904-3.218-5.989-4.671a1.691 1.691 0 0 1-.337-2.727 23.033 23.033 0 0 1 6.765 3.262c.293.247.814.322.974.616 3.209 5.895 8.736 3.5 13.335 3.412 6.266-.12 12.233-3.134 18.351-3.503 6.525-.394 11.726-4.455 18.038-4.81.471-.026.954-.397 1.394-.335a9.938 9.938 0 0 0 8.191-2.002c.776-.4 1.621-.65 2.491-.735.084 5.486-3.306 9.896-8.12 10.561-1.527.335-3.08.514-2.804 2.805a2.327 2.327 0 0 1-1.961 2.518c-5.35 1.562-10.526 3.95-16.317 3.338a10.974 10.974 0 0 1-.771-.228 5.491 5.491 0 0 0-2.737.312 7.253 7.253 0 0 1-.779.207 65.03 65.03 0 0 1-6.528-.128c-4.504-1.398-9.13-2.45-12.859-5.688-1.224-1.062-3.053-.661-4.597-.682a5.131 5.131 0 0 1-2.729-.733Z" fill="#EDEFF8"/><path d="M95.153 85.901a14.32 14.32 0 0 0 4.75-3.21c3.091-2.749 7.124-3.259 10.67-4.902 1.087-.504 1.869-.025 2.14 1.175-2.309 12.371-2.612 24.975-4.334 37.413a13.223 13.223 0 0 1-1.469 5.271c-2.041-1.197-4.768-1.108-6.265-3.335.408-2.249 1.433-4.208 1.141-6.822-.396-3.552-2.826-5.293-4.831-7.236a17.63 17.63 0 0 1-4.562-8.385c-1.212-4.142.333-7.069 2.76-9.969Z" fill="#C1D8F5"/><path d="M95.151 85.899c.353 1.565-1.684 3.209.174 4.763.222.185-.046.948-.458.869-3.618-.698-1.303 1.589-1.255 2.578.054 1.356.262 2.702.618 4.011.6 2.121 1.118 4.46 4.197 4.121.528-.058 1.126.16 1.199.63.579 3.741 4.073 6.214 4.019 10.436-.032 2.514-.027 4.084-2.656 4.709-1.602 2.164-3.686 2.015-5.903 1.234a22.122 22.122 0 0 1-1.736-8.782 27.591 27.591 0 0 1-.526-6.211c-.038.405.012 1.104-.043 1.799-.014.739-.59 1.219-.93 1.768-.927 1.503-2.142 1.756-3.109.061-.904-1.586-1.795-1.976-3.077-.468a2.249 2.249 0 0 1-.427.394c-.757.527-2.093.992-2.399.432-1.34-2.455-5.047.952-5.793-2.491.562-1.93-.314-4.087.94-5.918a.907.907 0 0 0 .08-.815c-2.809-3.668.87-4.689 2.735-5.876A54.244 54.244 0 0 1 95.15 85.9Z" fill="#C0D1F4"/><path d="M27.878 9.758c2.392 2.289 1.21 4.678-.1 7.295-.475-2.23-2.968-1.592-4.194-2.995-2.416 1.817-2.554 4.297-1.393 7.001-2.14.639-2.801-.852-3.6-2.502-.713 1.995.62 3.935-1.15 5.28 1.254.84 2.357-.458 3.718.3-2.313.877-3.71 2.823-5.93 3.542-.902.292-1.79 1.061-1.211 1.925 1.29 1.925 1.101 3.995 1.125 6.082 1.861.969 3.187 2.165 1.895 4.471a5.513 5.513 0 0 1-5.034-.214C8.187 38.43 4.106 37.442.921 34.608c-2.5-6.384.18-11.018 6.944-12.047a16.013 16.013 0 0 0 8.097-3.609 92.986 92.986 0 0 1 11.916-9.194Z" fill="#F4F5F7"/><path d="M19.137 66.666c8.742 1.076 17.537 1.87 25.94 4.79 2.021.702 3.61 1.63 1.755 3.998a2.298 2.298 0 0 0-.615 2.13c.566 2.042-.401 2.068-1.975 1.66-.636-.165-2.103-.694-1.33 1.118.204.476-.15.877-.506.77-2.254-.67-4.202 1.927-6.59.485-1.1-.665-2.172.528-3.275.81-1.45-2.686-.771-5.704-1.242-8.69-1.39.212-1.93 1.386-2.815 2.038-2.778 2.048-4.856 1.41-6.704-1.51-1.512-2.387-.799-5.416-2.643-7.599Z" fill="#BFD7F5"/><path d="M47.26 52.04a75.318 75.318 0 0 0-12.415-.25c-3.722.15-7.574-1.32-11.261-2.432a30.945 30.945 0 0 0-9.725-1.425 5.39 5.39 0 0 1-5.238-2.457c.73-2.491.615-4.645-2.277-5.685a1.767 1.767 0 0 1 2.399-.971c4.575 1.736 9.344.908 14.033 1.121 2.715 1.016 5.312 2.346 8.114 3.146.88.091 1.5.827 2.367.956.28.066.556.145.831.23a38.975 38.975 0 0 0 6.84 1.39c1.17.119 2.27.61 3.14 1.401.199.188.387.391.566.597 1.213 1.426 2.8 1.18 4.385.955.305.005.605.072.883.195 3.334 2.659 3.459 3.243 1.13 5.193a7.716 7.716 0 0 1-3.773-1.964Z" fill="#DBE6F6"/><path d="M127.305 77.814a25.33 25.33 0 0 1-3.165 11.954 5.737 5.737 0 0 1-7.084 3.141c-3.162-.791-3.459-3.413-3.503-5.96-.063-2.33.232-4.655.875-6.895.411-.506.259-1.109.285-1.678.15-3.276.596-3.916 3.778-4.41 2.311-.36 4.394-1.483 6.742-1.707 1.703-.162 2.636.173 2.34 2.113-.174 1.137.252 2.327-.268 3.442Z" fill="#C1DAF4"/><path d="M77.05 105.762c1.107 1.178 1.813.573 2.449-.525.335-.577.167-1.75 1.416-1.342.793.259 1.343.538.88 1.664-.41 1.004.824 1.148 1.398 1.473.966.546.955-.377 1.254-.981.64-1.291 2.181-1.55 3.275-2.137 1.36-.729 1.352 1.077 1.761 1.96.341.736.044 1.984 1.174 2.084.903.081.995-1.055 1.483-1.62a.782.782 0 0 1 .282.908.779.779 0 0 1-.185.284 20.144 20.144 0 0 1-4.092 9.305c-3.516.069-7.095.419-9.987-2.264a21.602 21.602 0 0 1-1.72-8.806l.611-.003Z" fill="#BCCCF3"/><path d="M81.133 64.855c-.856 3.19-1.922 6.314-4.851 8.212-1.373.89-2.272 2.315-3.83 2.988-.655.282-.649 1.211-.27 1.826.941 1.524.271 3.02.005 4.508-.47 2.62-1.622 4.297-4.652 2.986a8.88 8.88 0 0 1-3.967-4.712c2.694-.938 5.407-1.877 5.11-5.547-.069-.838.47-.826 1.017-1.078 1.265-.582 2.847-1.242.542-2.641a.702.702 0 0 1-.056-1.22c2.66-2.267 4.107-6.321 8.614-5.88.884-.254 1.874-.949 2.338.558Z" fill="#C2D1F5"/><path d="M95.09 119.256a13.325 13.325 0 0 1 5.902-1.234c2.251.757 5.05.62 5.92 3.63l-.67 1.579a7.116 7.116 0 0 0-3.502 1.81 10.757 10.757 0 0 1-4.67 1.098c-2.656-1.575-2.438-4.394-2.98-6.883Z" fill="#CCDDF5"/><path d="M108.588 70.133c3.859-.775 8.074.061 11.462-2.934.87-.77 2.633-.434 3.864-.916 1.346-.528 3.257-.325 3.376-2.762.072-1.488 1.686-1.598 3.003-1.521a2.97 2.97 0 0 0-2.458 2.368c-.077.398-.071.807.016 1.203.124 1.517.011 3.053.003 4.58a2.878 2.878 0 0 1-2.93 2.174 51.142 51.142 0 0 1-7.695.182c-1.614-.035-2.906-1.3-4.557-1.2l-.585-.009c-1.079-.737-2.426.163-3.505-.575l-.001.004a.381.381 0 0 1-.124-.18.384.384 0 0 1-.003-.217c.045-.131.09-.197.134-.197Z" fill="#E2E7F7"/><path d="M117.358 70.738c3.507.004 7.109 1.698 10.489-.584.311 2.567.126 5.169-.547 7.665-.1-4.788-.099-4.783-4.88-3.276a7.997 7.997 0 0 1-2.234.543c-3.365.027-5.403 1.507-5.763 4.974l.003-5.85c.671-1.315-.429-1.737-1.178-2.336-.144-.901.525-.79 1.059-.856 1.014-.126 2.076.274 3.051-.28Z" fill="#BFD1F3"/><path d="M22.738 41.528c-5.352-1.64-11.013-.364-16.393-1.735A8.273 8.273 0 0 1 .924 34.61a27.267 27.267 0 0 1 9.095 3.35 11.971 11.971 0 0 0 6.874 1.812c2.655-1.75 5.111-1.012 5.845 1.757Z" fill="#E4EBF5"/><path d="M78.158 114.563c3.294.909 7.073-.32 9.987 2.264-3.685 4.016-7.83 3.077-9.987-2.264Z" fill="#CBD9F3"/><path d="M98.072 126.14c1.857-1.953 4.416-2.593 6.777-3.59a1.032 1.032 0 0 1 .85.029 1.033 1.033 0 0 1 .545.654c-2.146 4.584-4.419 5.393-8.172 2.907Z" fill="#DCE3F3"/><path d="m92.235 107.522-.096-1.191c.261-1.906.523-3.811.786-5.717l.426.001v9.856l-1.116-2.949Z" fill="#B1BED3"/><path d="M35.547 5.714a20.954 20.954 0 0 1-4.632 3.112l-1.368-.067a16.065 16.065 0 0 1 6-3.045Z" fill="#F4F5F7"/><path d="M22.738 41.523c-1.685-1.459-3.86-1.29-5.845-1.757a8.274 8.274 0 0 1-1.747-4.083 6.7 6.7 0 0 0 2.498-2.725 34.646 34.646 0 0 1 10.39-12.704c.845-.605 1.261-.47 1.91.266 1.307 1.483 6.633 2.186 8.434 1.147.418-.241.734-.78 1.16-.203 1.486 2.01 3.163.668 4.683.203 1.09-.333 1.425-.425 2.16.78 2.169 3.554 3.396 7.518 5.275 11.19.775 1.515 1.567 1.111 2.529.727 2.84-1.136 7.157.226 7.64 2.948.215 1.21-.387 2.271 1.301 2.579-.197.309-.325.72-.603.907-.803.543-1.69.678-2.3-.248-.439-.665-.414-1.799-1.734-.944-1.028.665-.656 1.413-.487 2.283.272 1.395 2.456 3.304-.897 3.875.958 1.497-2.587 3.73.783 4.864a3.978 3.978 0 0 1-.11.821c-1.825 1.44-3.703.826-5.424-.08-1.102-.579-2.195-1.17-3.335-1.674-.413-.412-.986-.234-1.469-.392-.93.04-1.841-.246-2.774-.155a1.844 1.844 0 0 1-1.016-.614c-.008-.19-.014-.381-.019-.572a1.096 1.096 0 0 1 .241-1.558c2.55-1.176 3.232-3.974 5.105-5.777 1.591-1.532 1.258-4.152.683-6.293-.54-2.006-2.442-2.222-4.188-2.467a2.686 2.686 0 0 1-1.31-1.089c-.951-1.42-2.368-2.897-3.832-2.885-2.773.022-5.588-.947-8.351.106a2.455 2.455 0 0 0-1.22 1.167 2.175 2.175 0 0 1-3.217.85 1.37 1.37 0 0 1 .029.018 3.16 3.16 0 0 1 2.258 2.589c.976 3.455 1.652 7.186 4.828 9.59.812.615 1.499 1.499 1 2.484-.544 1.072-1.604.726-2.52.334a2.565 2.565 0 0 0-2.334-.585l-8.175-2.923Z" fill="#F1F3F9"/><path d="m49.01 49.693 8.759 1.754 2.92 1.168a7.697 7.697 0 0 0 2.83 1.98 3.127 3.127 0 0 1 1.898 2.052 6.311 6.311 0 0 0 5.505 4.467c1.717.199 3.39.683 4.947 1.434l1.17 1.146-17.517.01c-1.917-.527-2.905-1.567-2.453-3.744.55-2.655-.198-3.788-2.68-4.753-1.21-.47-2.688-.265-3.624-1.427 2.087-2.51-.628-2.958-1.755-4.087Z" fill="#E2E8F6"/><path d="M75.87 62.545c-3.474-.2-7.154.62-10.122-2.076-.344-.313-1.144-.547-1.127-.77.252-3.255-3.312-4.357-3.931-7.086 2.754.892 5.94.574 8.177 2.918l7.003 7.014Z" fill="#E8ECF6"/><path d="M26.343 18.161c.454-.013.731.227.706.655a1.046 1.046 0 0 1-1.047 1.096.773.773 0 0 1-.55-.511 1.096 1.096 0 0 1 .89-1.24Z" fill="#F4F5F7"/><path d="m114.241 39.125-.541.47c-.096-.142-.303-.334-.266-.415.126-.207.28-.395.459-.558l.348.503Z" fill="#FCFCFD"/><path d="M50.77 53.78c2.73-.193 5.474-.816 7.528 2.011.947 1.303 1.639 2.232.605 3.772a2.844 2.844 0 0 0 .623 4.14l-3.502.003c-.925-.251-1.877-.429-2.768-.769-1.76-.671-3.102-2.082-1.861-3.756 1.977-2.666.462-3.743-1.486-5.012-.946-.616-2.19-.905-2.653-2.134l3.514 1.745Z" fill="#D6E2F7"/><path d="M81.139 64.855a3.635 3.635 0 0 0-2.339-.559l-.59-.576c3.61-.275 6.984-.036 9.99 2.522 2.963 2.52 7.295 2.2 10.457 4.475.208.126.278.253.21.38-.068.129-.137.193-.206.193-4.41-.92-8.832-1.743-12.323-5.004-1.413-1.32-3.578-.517-5.2-1.431Z" fill="#DADFF7"/><path d="M98.655 71.293a47.49 47.49 0 0 1-.005-.572c2.041-1.326 4.265-.606 6.428-.575.581 1 .05 1.495-.859 1.408-1.471-.141-2.976.38-4.412-.24l-1.152-.02Z" fill="#E2E7F7"/><path d="M99.807 71.31c1.717-.567 3.863.796 5.27-1.169.193-.005.386-.008.579-.01a3.359 3.359 0 0 1 2.921.001h.003l-.007.593c-2.87.982-5.749 1.823-8.766.584ZM117.355 70.73l-4.109 1.135-.584-.564c1.476-.917 3.115-.489 4.693-.571ZM108.576 70.724a6.036 6.036 0 0 1 3.506.575 5.824 5.824 0 0 1-3.506-.575Z" fill="#DADFF7"/><path d="m108.587 70.132-2.921-.002a2.378 2.378 0 0 1 2.921.002Z" fill="#E2E7F7"/><path d="M27.4 29.837c2.563-.129 2.997-1.606 2.058-3.807 2.723.854 5.105-.278 7.583.064 3.278.454 6.313.95 8.46 3.743a4.9 4.9 0 0 1-3.401 1.415c-3.467-.464-4.623 2.178-5.998 4.395-1.026 1.654-.315 2.531 1.626 2.355.273.064.528.186.75.356.776 1.005 2.051 1.375 2.89 2.346a1.835 1.835 0 0 0 3.295-.404c.89-2.296 2.729-4.504 1.54-7.293a5.455 5.455 0 0 1-.117-2.004c.565-.802 1.378-.982 1.946-.233 1.663 2.194 4.59 3.86 3.311 7.408a1.528 1.528 0 0 0 .224 1.338c1.488 1.398.544 1.781-.754 2.306-1.623.655-3.582 1.165-2.454 3.785.293.682-.752.705-1.243.785a6.085 6.085 0 0 0-3.385 1.564c-3.407-1.304-7.244-1.068-10.494-2.932.6-.222 2.4.051 1.118-1.12-.976-.89-1.57-2.688-3.609-2.46-1.36.151-.543-1.001-.481-1.653.25-2.624-1.004-4.63-3.081-4.614.493-1.781 2.507-3.562.215-5.34Z" fill="#EDEEF7"/><path d="m43.758 48.528 1.169-.001c.872.703 2.043-.118 2.917.572l1.173.591c-1.767-.322-4.081 1.828-5.26-1.162Z" fill="#E2E8F6"/><path d="M30.912 44.448c1.009-.723 1.726-.287 2.334.586l-2.334-.586Z" fill="#EDEEF7"/><path d="M37.921 38.599c-.573.379-.873 1.578-1.82.853-.798-.611-2.064-1.085-1.885-2.36a7.328 7.328 0 0 1 1.614-4.264c.842-.87 2.588-.937 1.756-2.995-.298-.736 1.436-1.017 1.782-.783 1.96 1.328 4.175.045 6.142.79l.586 1.166a4.104 4.104 0 0 1 1.22 6.416c-.361.464-.278 1.28-.385 1.935a4.281 4.281 0 0 1-3.268 3.75c-2.058.69-2.753-.073-3.7-1.575-.626-.99-2.401-1.2-2.042-2.933Z" fill="#EAEAF7"/><path d="M27.323 29.877c-.398-1.35-.02-1.893 1.37-1.937l-1.37 1.937ZM47.842 49.103a4.715 4.715 0 0 1-2.918-.572 4.808 4.808 0 0 1 2.918.572ZM37.92 38.607c-.118-.424-1.236-.75-.282-1.239a.91.91 0 0 1 1.375.912c-.024 1.042-.587.684-1.093.327Z" fill="#EDEEF7"/></svg>