<svg width="72" height="73" fill="none" xmlns="http://www.w3.org/2000/svg"><rect y="16.012" width="58.008" height="58.008" rx="22" transform="rotate(-15 0 16.012)" fill="#FFDE46" fill-opacity=".2"/><g clip-path="url('#clip0_293_10042')"><path d="m48.099 26.62-1.166-4.35-2.175.582-.583-2.175L42 21.26l-.583-2.175-4.35 1.165-.583-2.175-11.6 3.108.582 2.176-4.35 1.165.583 2.175-2.175.583.583 2.175-2.176.583 1.166 4.35-2.175.583 3.108 11.6 2.175-.582 1.166 4.35 2.175-.582.583 2.175 2.175-.583.583 2.175 4.35-1.166.583 2.175 11.6-3.108-.582-2.175 4.35-1.166-.583-2.175 2.175-.583-.582-2.175 2.175-.583-1.166-4.35 2.175-.583-3.108-11.6-2.175.582Z" fill="#FFDE46"/><path d="m32.695 41.628-2.175.583.582 2.175 2.176-.583-.583-2.175ZM41.148 35.476l-2.175.583 1.554 5.8 2.175-.583-1.554-5.8ZM29.777 30.753l-2.175.583 1.36 5.075 2.175-.583-1.36-5.075ZM38.387 33.885l-7.25 1.943.582 2.175 7.25-1.943-.582-2.175ZM33.545 27.41l-.777-2.9-2.175.583.777 2.9-2.175.583.583 2.175 7.25-1.943-.582-2.175-2.9.777ZM39.202 28.226l-2.175.583.583 2.175 2.175-.583-.583-2.175Z" fill="#000"/><path d="m33.273 43.8.583 2.176 2.175-.583.778 2.9 2.175-.583-.778-2.9 2.9-.777-.582-2.175-7.25 1.943ZM21.698 26.698l-2.175.583.583 2.175 2.175-.582-.582-2.176ZM41.415 19.083l-4.35 1.166-.583-2.175-11.6 3.108.582 2.175-4.35 1.166.583 2.175 4.35-1.166-.583-2.175 11.601-3.108.583 2.175 4.35-1.166.583 2.175 2.175-.582-.583-2.176-2.175.583-.583-2.175ZM46.933 22.269l-2.175.583 1.165 4.35 2.176-.583-1.166-4.35ZM50.273 26.038l-2.175.583 3.108 11.6 2.175-.582-3.108-11.6ZM51.206 38.222l-2.175.583 1.166 4.35 2.175-.583-1.166-4.35ZM19.099 34.389l-2.175.582 3.108 11.601 2.175-.583 1.166 4.35 2.175-.582.583 2.175 2.175-.583-.583-2.175-2.175.583-1.166-4.35-2.175.582-3.108-11.6 2.175-.583-1.166-4.35-2.175.582 1.166 4.35ZM33.238 52.361l.583 2.175 11.6-3.108-.583-2.175 4.35-1.166-.582-2.175-4.35 1.166.582 2.175-11.6 3.108-.583-2.175-4.35 1.166.582 2.175 4.35-1.166Z" fill="#000"/><path d="m50.199 43.156-2.176.582.583 2.175 2.175-.582-.582-2.175Z" fill="#000"/></g><defs><clipPath id="clip0_293_10042"><path fill="#fff" transform="rotate(-15 98.524 -41.151)" d="M0 0h34.529v34.529H0z"/></clipPath></defs></svg>