<svg width="24" height="24" fill="none" xmlns="http://www.w3.org/2000/svg"><path d="M24 7.826h-1.565v-3.13h-1.566V3.13h-1.565V1.565h-3.13V0H7.826v1.565h-3.13V3.13H3.13v1.566H1.565v3.13H0v8.348h1.565v3.13H3.13v1.566h1.566v1.565h3.13V24h8.348v-1.565h3.13v-1.566h1.566v-1.565h1.565v-3.13H24V7.826Z" fill="#FFDA44"/><path d="M20.87 11.997h-1.565v1.565h-4.173v-1.565h-1.566V7.823h1.566V6.258h4.173v1.565h1.566v4.174ZM16.174 16.69v-1.565h-2.609v1.565H12V19.3h1.565v1.565h2.609V19.3h1.565V16.69h-1.565Z" fill="#FF9811"/><path d="M4.698 3.132H3.133v1.565h1.565V3.132ZM4.698 19.305H3.133v1.565h1.565v-1.565ZM7.826 1.566h-3.13v1.566h3.13V1.566ZM16.172 0H7.824v1.565h8.348V0ZM16.172 22.434H7.824v1.565h8.348v-1.565ZM19.306 1.566h-3.13v1.566h3.13V1.566ZM22.432 4.695h-1.565v3.13h1.565v-3.13ZM23.999 7.824h-1.565v8.348h1.565V7.824ZM22.432 16.176h-1.565v3.13h1.565v-3.13ZM3.132 4.695H1.566v3.13h1.566v-3.13ZM1.565 7.824H0v8.348h1.565V7.824ZM3.132 16.176H1.566v3.13h1.566v-3.13Z" fill="#000"/><path d="M7.826 20.867h-3.13v1.565h3.13v-1.565ZM19.306 20.867h-3.13v1.565h3.13v-1.565ZM20.87 3.133h-1.565v1.565h1.565V3.133Z" fill="#000"/><path d="M20.87 19.305h-1.565v1.565h1.565v-1.565Z" fill="#000"/><path d="M16.176 3.132H7.828v1.565h8.348V3.132ZM4.7 4.698v3.13h1.564V6.263H7.83V4.698H4.699ZM4.698 7.827H3.133v3.653h1.565V7.827ZM4.698 13.046H3.133v1.566h1.565v-1.566Z" fill="#fff"/></svg>