<svg width="59" height="59" fill="none" xmlns="http://www.w3.org/2000/svg"><g clip-path="url('#clip0_293_9287')" stroke-width=".35" stroke-miterlimit="10"><path d="m35.817 7.658-3.81-1.517-1.516 3.81 3.81 1.516 1.516-3.81Z" fill="#EA5353" stroke="#EA5353"/><path d="m39.626 9.173-3.81-1.518-1.517 3.81 3.81 1.517 1.517-3.81ZM43.438 10.69l-3.81-1.518-1.516 3.81 3.81 1.517 1.517-3.81ZM47.251 12.209l-3.81-1.518-1.517 3.81 3.81 1.517 1.517-3.81Z" fill="#EA5353" stroke="#EA5353"/><path d="m51.06 13.724-3.81-1.517-1.517 3.81 3.81 1.517 1.517-3.81Z" fill="#EA5353" stroke="#EA5353"/><path d="m30.485 9.95-3.81-1.516-1.517 3.81 3.81 1.517 1.517-3.81Z" fill="#D62B2B" stroke="#D62B2B"/><path d="m34.298 11.47-3.81-1.517-1.517 3.81 3.81 1.517 1.517-3.81Z" fill="#F48989" stroke="#F48989"/><path d="m38.106 12.986-3.81-1.517-1.516 3.81 3.81 1.517 1.516-3.81ZM41.919 14.506l-3.81-1.518-1.517 3.81 3.81 1.517 1.517-3.81Z" fill="#D62B2B" stroke="#D62B2B"/><path d="m45.731 16.021-3.81-1.517-1.516 3.81 3.81 1.517 1.516-3.81Z" fill="#C11E1E" stroke="#C11E1E"/><path d="m49.54 17.54-3.81-1.517-1.517 3.81 3.81 1.517 1.517-3.81Z" fill="#D62B2B" stroke="#D62B2B"/><path d="m53.349 19.056-3.81-1.517-1.517 3.81 3.81 1.517 1.517-3.81Z" fill="#EA5353" stroke="#EA5353"/><path d="m28.97 13.76-3.81-1.518-1.517 3.81 3.81 1.517 1.517-3.81Z" fill="#F48989" stroke="#F48989"/><path d="m32.782 15.279-3.81-1.517-1.517 3.81 3.81 1.517 1.517-3.81Z" fill="#EA5353" stroke="#EA5353"/><path d="m36.59 16.795-3.809-1.518-1.517 3.81 3.81 1.517 1.517-3.81Z" fill="#D62B2B" stroke="#D62B2B"/><path d="m40.403 18.314-3.81-1.517-1.517 3.81 3.81 1.517 1.517-3.81Z" fill="#C11E1E" stroke="#C11E1E"/><path d="m44.212 19.834-3.81-1.518-1.517 3.81 3.81 1.517 1.517-3.81ZM48.025 21.35l-3.81-1.518-1.517 3.81 3.81 1.517 1.517-3.81Z" fill="#C11E1E" stroke="#C11E1E"/><path d="m51.833 22.866-3.81-1.517-1.517 3.81 3.81 1.517 1.517-3.81ZM23.642 16.052l-3.81-1.517-1.517 3.81 3.81 1.517 1.517-3.81Z" fill="#D62B2B" stroke="#D62B2B"/><path d="m27.45 17.572-3.81-1.517-1.517 3.81 3.81 1.517 1.517-3.81Z" fill="#F48989" stroke="#F48989"/><path d="m31.263 19.088-3.81-1.518-1.517 3.81 3.81 1.517 1.517-3.81Z" fill="#EA5353" stroke="#EA5353"/><path d="m35.075 20.607-3.81-1.517-1.517 3.81 3.81 1.517 1.517-3.81Z" fill="#D62B2B" stroke="#D62B2B"/><path d="m38.884 22.123-3.81-1.518-1.517 3.81 3.81 1.517 1.517-3.81Z" fill="#D62B2B" stroke="#D62B2B"/><path d="m42.696 23.641-3.81-1.517-1.517 3.81 3.81 1.517 1.517-3.81Z" fill="#C11E1E" stroke="#C11E1E"/><path d="m22.122 19.865-3.81-1.517-1.517 3.81 3.81 1.517 1.517-3.81Z" fill="#F48989" stroke="#F48989"/><path d="m25.935 21.38-3.81-1.517-1.517 3.81 3.81 1.517 1.517-3.81Z" fill="#EA5353" stroke="#EA5353"/><path d="m29.747 22.9-3.81-1.517-1.517 3.81 3.81 1.517 1.517-3.81Z" fill="#D62B2B" stroke="#D62B2B"/><path d="m33.556 24.42-3.81-1.518-1.517 3.81 3.81 1.517 1.517-3.81Z" fill="#D62B2B" stroke="#D62B2B"/><path d="m37.364 25.935-3.81-1.517-1.517 3.81 3.81 1.517 1.517-3.81Z" fill="#D62B2B" stroke="#D62B2B"/><path d="m41.177 27.455-3.81-1.517-1.517 3.81 3.81 1.516 1.517-3.81Z" fill="#C11E1E" stroke="#C11E1E"/><path d="m16.798 22.158-3.81-1.517-1.517 3.81 3.81 1.517 1.517-3.81Z" fill="#D62B2B" stroke="#D62B2B"/><path d="m20.607 23.674-3.81-1.517-1.517 3.81 3.81 1.517 1.517-3.81Z" fill="#EA5353" stroke="#EA5353"/><path d="m24.415 25.193-3.81-1.517-1.517 3.81 3.81 1.517 1.517-3.81ZM28.228 26.709l-3.81-1.518-1.517 3.81 3.81 1.517 1.517-3.81ZM32.04 28.228l-3.81-1.517-1.517 3.81 3.81 1.517 1.517-3.81Z" fill="#D62B2B" stroke="#D62B2B"/><path d="m35.849 29.745-3.81-1.518-1.517 3.81 3.81 1.517 1.517-3.81Z" fill="#D62B2B" stroke="#D62B2B"/><path d="m39.661 31.263-3.81-1.517-1.517 3.81 3.81 1.517 1.517-3.81Z" fill="#C11E1E" stroke="#C11E1E"/><path d="m15.278 25.966-3.81-1.517-1.517 3.81 3.81 1.517 1.517-3.81Z" fill="#D62B2B" stroke="#D62B2B"/><path d="m19.09 27.486-3.809-1.517-1.517 3.81 3.81 1.517 1.517-3.81Z" fill="#C11E1E" stroke="#C11E1E"/><path d="m22.9 29.002-3.81-1.518-1.517 3.81 3.81 1.517 1.517-3.81Z" fill="#D62B2B" stroke="#D62B2B"/><path d="m26.712 30.52-3.81-1.517-1.517 3.81 3.81 1.517 1.517-3.81Z" fill="#C11E1E" stroke="#C11E1E"/><path d="m30.52 32.037-3.81-1.517-1.516 3.81 3.81 1.516 1.517-3.81Z" fill="#D62B2B" stroke="#D62B2B"/><path d="m34.33 33.556-3.81-1.517-1.518 3.81 3.81 1.517 1.517-3.81ZM38.142 35.072l-3.81-1.517-1.517 3.81 3.81 1.517 1.517-3.81Z" fill="#C11E1E" stroke="#C11E1E"/><path d="m41.954 36.592-3.81-1.518-1.517 3.81 3.81 1.517 1.517-3.81Z" fill="#AD0E0E" stroke="#AD0E0E"/><path d="m45.763 38.108-3.81-1.517-1.517 3.81 3.81 1.517 1.517-3.81Z" fill="#AD0E0E" stroke="#AD0E0E"/><path d="m13.759 29.779-3.81-1.517-1.517 3.81 3.81 1.517 1.517-3.81ZM17.571 31.299l-3.81-1.518-1.517 3.81 3.81 1.517 1.517-3.81Z" fill="#C11E1E" stroke="#C11E1E"/><path d="m21.38 32.814-3.81-1.517-1.517 3.81 3.81 1.517 1.517-3.81ZM25.192 34.334l-3.81-1.518-1.517 3.81 3.81 1.517 1.517-3.81Z" fill="#C11E1E" stroke="#C11E1E"/><path d="m29.001 35.85-3.81-1.518-1.517 3.81 3.81 1.517L29 35.849ZM32.813 37.369l-3.81-1.517-1.516 3.81 3.81 1.517 1.516-3.81ZM36.626 38.885l-3.81-1.518-1.517 3.81 3.81 1.517 1.517-3.81Z" fill="#C11E1E" stroke="#C11E1E"/><path d="m40.435 40.403-3.81-1.517-1.517 3.81 3.81 1.517 1.517-3.81Z" fill="#C11E1E" stroke="#C11E1E"/><path d="m44.243 41.92-3.81-1.518-1.517 3.81 3.81 1.517 1.517-3.81Z" fill="#C11E1E" stroke="#C11E1E"/><path d="m8.43 32.072-3.809-1.517-1.517 3.81 3.81 1.517 1.517-3.81ZM12.243 33.588l-3.81-1.518-1.517 3.81 3.81 1.517 1.517-3.81Z" fill="#fff" stroke="#fff"/><path d="m16.052 35.107-3.81-1.517-1.517 3.81 3.81 1.517 1.517-3.81ZM19.864 36.623l-3.81-1.517-1.517 3.81 3.81 1.516 1.517-3.81Z" fill="#fff" stroke="#fff"/><path d="m23.677 38.142-3.81-1.517-1.517 3.81 3.81 1.517 1.517-3.81Z" fill="#E6E6E6" stroke="#E6E6E6"/><path d="m27.485 39.658-3.81-1.517-1.517 3.81 3.81 1.517 1.517-3.81Z" fill="#fff" stroke="#fff"/><path d="m31.294 41.177-3.81-1.517-1.517 3.81 3.81 1.517 1.517-3.81Z" fill="#E6E6E6" stroke="#E6E6E6"/><path d="m35.106 42.693-3.81-1.517-1.516 3.81 3.81 1.517 1.516-3.81Z" fill="#fff" stroke="#fff"/><path d="m38.919 44.213-3.81-1.518-1.517 3.81 3.81 1.517 1.517-3.81Z" fill="#E6E6E6" stroke="#E6E6E6"/><path d="m42.728 45.728-3.81-1.517-1.517 3.81 3.81 1.517 1.517-3.81Z" fill="#fff" stroke="#fff"/><path d="m46.538 47.248-3.81-1.517-1.517 3.81 3.81 1.516 1.517-3.81Z" fill="#E6E6E6" stroke="#E6E6E6"/><path d="m6.915 35.88-3.81-1.517-1.517 3.81 3.81 1.517 1.517-3.81Z" fill="#fff" stroke="#fff"/><path d="m10.728 37.4-3.81-1.517-1.517 3.81 3.81 1.517 1.517-3.81Z" fill="#E6E6E6" stroke="#E6E6E6"/><path d="m14.536 38.916-3.81-1.518-1.517 3.81 3.81 1.517 1.517-3.81Z" fill="#E6E6E6" stroke="#E6E6E6"/><path d="m18.345 40.431-3.81-1.517-1.517 3.81 3.81 1.517 1.517-3.81ZM22.157 41.95l-3.81-1.516-1.517 3.81 3.81 1.517 1.517-3.81Z" fill="#E6E6E6" stroke="#E6E6E6"/><path d="m25.966 43.467-3.81-1.518-1.517 3.81 3.81 1.517 1.517-3.81Z" fill="#E6E6E6" stroke="#E6E6E6"/><path d="m29.778 44.986-3.81-1.517-1.517 3.81 3.81 1.517 1.517-3.81Z" fill="#CCC" stroke="#CCC"/><path d="m33.59 46.506-3.809-1.518-1.517 3.81 3.81 1.517 1.517-3.81Z" fill="#E6E6E6" stroke="#E6E6E6"/><path d="m37.4 48.021-3.81-1.517-1.518 3.81 3.81 1.517 1.518-3.81Z" fill="#CCC" stroke="#CCC"/><path d="m41.208 49.54-3.81-1.517-1.517 3.81 3.81 1.517 1.517-3.81Z" fill="#E6E6E6" stroke="#E6E6E6"/><path d="m45.02 51.056-3.81-1.517-1.516 3.81 3.81 1.517 1.517-3.81ZM5.396 39.692l-3.81-1.517-1.517 3.81 3.81 1.517 1.517-3.81ZM9.208 41.213l-3.81-1.518-1.517 3.81 3.81 1.517 1.517-3.81Z" fill="#CCC" stroke="#CCC"/><path d="m13.017 42.728-3.81-1.517-1.517 3.81 3.81 1.517 1.517-3.81ZM16.83 44.244l-3.81-1.517-1.518 3.81 3.81 1.517 1.517-3.81ZM20.642 45.763l-3.81-1.517-1.517 3.81 3.81 1.517 1.517-3.81Z" fill="#CCC" stroke="#CCC"/><path d="m24.45 47.279-3.81-1.517-1.517 3.81 3.81 1.517 1.517-3.81Z" fill="#CCC" stroke="#CCC"/><path d="m28.259 48.798-3.81-1.517-1.517 3.81 3.81 1.517 1.517-3.81ZM32.071 50.318l-3.81-1.517-1.517 3.81 3.81 1.517 1.517-3.81ZM35.884 51.834l-3.81-1.518-1.517 3.81 3.81 1.517 1.517-3.81Z" fill="#CCC" stroke="#CCC"/><path d="m39.692 53.35-3.81-1.518-1.517 3.81 3.81 1.517 1.517-3.81ZM43.505 54.869l-3.81-1.517-1.517 3.81 3.81 1.517 1.517-3.81Z" fill="#CCC" stroke="#CCC"/><path d="m46.505 25.158-3.81-1.517-1.517 3.81 3.81 1.517 1.517-3.81Z" fill="#fff" stroke="#fff"/><path d="m50.313 26.674-3.81-1.518-1.516 3.81 3.81 1.517 1.517-3.81Z" fill="#fff" stroke="#fff"/><path d="m54.126 28.193-3.81-1.517-1.517 3.81 3.81 1.517 1.517-3.81ZM44.99 28.97l-3.81-1.517-1.518 3.81 3.81 1.517 1.517-3.81Z" fill="#E6E6E6" stroke="#E6E6E6"/><path d="m48.798 30.486-3.81-1.517-1.517 3.81 3.81 1.517 1.517-3.81Z" fill="#E6E6E6" stroke="#E6E6E6"/><path d="m52.61 32.006-3.81-1.518-1.517 3.81 3.81 1.517 1.517-3.81ZM43.47 32.78l-3.81-1.517-1.517 3.81 3.81 1.517 1.517-3.81Z" fill="#CCC" stroke="#CCC"/><path d="m47.278 34.298-3.81-1.517-1.517 3.81 3.81 1.517 1.517-3.81ZM51.09 35.818l-3.809-1.517-1.517 3.81 3.81 1.517 1.517-3.81Z" fill="#CCC" stroke="#CCC"/></g><defs><clipPath id="clip0_293_9287"><path fill="#fff" transform="rotate(21.716 8.367 43.622)" d="M0 0h45.227v45.227H0z"/></clipPath></defs></svg>