<svg width="73" height="73" fill="none" xmlns="http://www.w3.org/2000/svg"><rect y="19.125" width="56.414" height="56.414" rx="12" transform="rotate(-19.816 0 19.125)" fill="#DB365E" fill-opacity=".1"/><path d="m36.69 51.36.318 1.738 1.738-.319-.318-1.737-1.738.318ZM32.557 28.782l.318 1.738 1.738-.319-.318-1.737-1.738.318ZM34.592 49.942l.318 1.738 1.738-.319-.318-1.737-1.738.318ZM30.467 27.372l.318 1.737 1.738-.318-.318-1.738-1.738.319Z" fill="#222221"/><path d="m32.58 48.524.318 1.738 1.739-.319-.319-1.737-1.738.318ZM28.444 25.95l.318 1.738 1.738-.319-.318-1.737-1.738.318ZM30.479 47.106l.318 1.738 1.738-.319-.318-1.737-1.738.318ZM26.361 24.532l.319 1.738 1.738-.32-.319-1.737-1.738.319Z" fill="#222221"/><path d="m28.463 45.684.318 1.738 1.738-.319-.318-1.737-1.738.318ZM24.342 23.106l.318 1.738 1.738-.319-.318-1.737-1.738.318ZM26.37 44.27l.317 1.738 1.739-.319-.318-1.737-1.739.318ZM22.596 23.427l.318 1.737 1.738-.318-.318-1.738-1.738.319Z" fill="#222221"/><path d="m24.35 42.848.318 1.738 1.738-.318-.318-1.738-1.738.318ZM20.858 23.75l.318 1.738 1.738-.318-.318-1.738-1.738.319ZM22.268 41.434l.318 1.738 1.738-.319-.318-1.737-1.738.318ZM19.408 25.802l.319 1.737 1.738-.319-.319-1.737-1.738.319Z" fill="#222221"/><path d="m20.217 40.016.318 1.738 1.738-.319-.318-1.737-1.738.318ZM18.018 27.856l.318 1.738 1.738-.319-.318-1.737-1.738.318Z" fill="#222221"/><path d="m18.198 38.594.318 1.738 1.738-.318-.318-1.738-1.738.318ZM16.56 29.919l.319 1.737 1.738-.318-.318-1.738-1.738.319ZM16.096 37.18l.318 1.738 1.738-.318-.318-1.738-1.738.318Z" fill="#222221"/><path d="m15.815 35.438.318 1.738 1.738-.319-.318-1.737-1.738.318ZM15.46 33.704l.317 1.737 1.738-.318-.318-1.737-1.738.318Z" fill="#222221"/><path d="m15.182 31.97.318 1.737 1.738-.318-.318-1.738-1.738.318ZM38.42 51.044l.318 1.737 1.738-.318-.318-1.738-1.738.319ZM34.295 28.47l.318 1.737 1.738-.318-.318-1.738-1.738.318ZM39.81 48.989l.319 1.738 1.738-.32-.319-1.737-1.738.319ZM35.678 26.415l.318 1.737 1.738-.318-.318-1.738-1.738.319ZM41.26 46.938l.318 1.738 1.738-.319-.318-1.737-1.738.318ZM37.127 24.356l.318 1.738 1.738-.319-.318-1.737-1.738.318ZM42.643 44.88l.318 1.737 1.738-.318-.318-1.738-1.738.319ZM38.518 22.305l.318 1.738 1.738-.319-.318-1.737-1.738.319ZM44.111 42.825l.319 1.737 1.738-.318-.319-1.738-1.738.319ZM39.967 20.247l.318 1.737 1.738-.318-.318-1.738-1.738.319ZM45.483 40.766l.318 1.738 1.738-.318-.318-1.738-1.738.318ZM41.705 19.923l.318 1.737 1.739-.318-.319-1.738-1.738.319ZM46.936 38.716l.318 1.737 1.738-.318-.318-1.738-1.738.319Z" fill="#222221"/><path d="m43.444 19.61.318 1.738 1.738-.319-.318-1.737-1.738.318ZM48.323 36.66l.318 1.738 1.738-.318-.318-1.737-1.738.318Z" fill="#222221"/><path d="m45.46 21.024.317 1.738 1.739-.319-.319-1.737-1.738.318ZM49.748 34.602l.318 1.738 1.738-.319-.318-1.737-1.738.318ZM47.553 22.442l.318 1.738 1.738-.319-.318-1.737-1.738.318ZM51.198 32.548l.318 1.737 1.738-.318-.318-1.738-1.738.319Z" fill="#222221"/><path d="m49.569 23.868.318 1.738 1.738-.319-.318-1.737-1.738.318ZM52.573 30.497l.318 1.737 1.738-.318-.318-1.738-1.738.319Z" fill="#222221"/><path d="m52.307 28.755.318 1.737 1.738-.318-.318-1.738-1.738.319ZM51.94 27.024l.318 1.738 1.738-.319-.318-1.737-1.738.318Z" fill="#222221"/><path d="m51.662 25.282.319 1.738 1.737-.319-.318-1.737-1.738.318Z" fill="#222221"/><path d="m50.846 30.817.318 1.738 1.738-.319-.318-1.737-1.738.318Z" fill="#AD1843"/><path d="m50.557 29.079.318 1.737 1.738-.318-.318-1.738-1.738.319ZM50.198 27.337l.318 1.737 1.738-.318-.318-1.738-1.738.319Z" fill="#AD1843"/><path d="m49.928 25.602.318 1.738 1.738-.319-.318-1.737-1.738.318Z" fill="#DB365E"/><path d="m49.46 32.868.317 1.737 1.738-.318-.318-1.737-1.738.318ZM49.1 31.134l.318 1.737 1.738-.318-.318-1.738-1.738.319Z" fill="#AD1843"/><path d="m48.834 29.391.318 1.738 1.738-.319-.318-1.737-1.738.318ZM48.463 27.657l.318 1.738 1.738-.319-.318-1.737-1.738.318Z" fill="#DB365E"/><path d="m48.186 25.915.318 1.737 1.738-.318-.318-1.738-1.738.319Z" fill="#DB365E"/><path d="m47.83 24.184.318 1.738 1.739-.319-.319-1.737-1.738.318Z" fill="#DB365E"/><path d="m48.01 34.923.318 1.737 1.738-.318-.318-1.738-1.738.319Z" fill="#AD1843"/><path d="m47.721 33.18.318 1.738 1.738-.318-.318-1.738-1.738.318Z" fill="#AD1843"/><path d="m47.362 31.446.318 1.738 1.738-.319-.318-1.737-1.738.318Z" fill="#DB365E"/><path d="m47.084 29.708.318 1.737 1.739-.318-.319-1.738-1.738.319ZM46.732 27.973l.319 1.738 1.738-.319-.319-1.737-1.738.318Z" fill="#DB365E"/><path d="m46.452 26.239.318 1.738 1.738-.319-.318-1.737-1.738.318ZM46.092 24.5l.318 1.738 1.738-.318-.318-1.738-1.738.319Z" fill="#DB365E"/><path d="m45.823 22.762.318 1.738 1.738-.318-.318-1.738-1.738.318Z" fill="#DB365E"/><path d="m46.584 36.981.318 1.738 1.738-.319-.318-1.737-1.738.318Z" fill="#AD1843"/><path d="m46.275 35.243.319 1.737 1.738-.318-.319-1.738-1.738.319Z" fill="#AD1843"/><path d="m45.983 33.505.318 1.737 1.738-.318-.318-1.738-1.738.319ZM45.627 31.77l.318 1.738 1.738-.319-.318-1.737-1.738.318Z" fill="#DB365E"/><path d="m45.35 30.028.318 1.738 1.738-.319-.318-1.737-1.738.318ZM45.002 28.294l.318 1.737 1.738-.318-.318-1.738-1.738.319Z" fill="#DB365E"/><path d="m44.713 26.555.318 1.738 1.738-.318-.318-1.738-1.738.318Z" fill="#DB365E"/><path d="m44.358 24.825.318 1.738 1.738-.319-.318-1.737-1.738.318Z" fill="#DB365E"/><path d="m44.08 23.083.318 1.737 1.738-.318-.318-1.738-1.738.319ZM43.717 21.345l.318 1.737 1.738-.318-.318-1.738-1.738.319Z" fill="#DB365E"/><path d="m45.209 39.032.318 1.738 1.738-.32-.318-1.737-1.738.319ZM44.842 37.294l.318 1.737 1.738-.318-.318-1.738-1.738.319Z" fill="#AD1843"/><path d="m44.526 35.56.318 1.737 1.738-.319-.318-1.737-1.738.318Z" fill="#DB365E"/><path d="m44.252 33.821.318 1.738 1.738-.319-.318-1.737-1.738.318ZM43.9 32.083l.319 1.737 1.738-.318-.319-1.738-1.738.319Z" fill="#DB365E"/><path d="m43.612 30.345.318 1.737 1.738-.318-.318-1.738-1.738.319ZM43.256 28.61l.318 1.738 1.738-.319-.318-1.737-1.738.318Z" fill="#DB365E"/><path d="m42.979 26.88.318 1.737 1.738-.318-.318-1.738-1.738.319ZM42.63 25.137l.32 1.738 1.737-.319-.318-1.737-1.738.319Z" fill="#DB365E"/><path d="m42.342 23.403.318 1.738 1.738-.319-.318-1.737-1.738.318ZM41.983 21.665l.318 1.737 1.738-.318-.318-1.738-1.738.319Z" fill="#DB365E"/><path d="m43.745 41.087.318 1.737 1.738-.318-.318-1.738-1.738.319Z" fill="#AD1843"/><path d="m43.467 39.352.318 1.738 1.738-.319-.318-1.737-1.738.318Z" fill="#AD1843"/><path d="m43.115 37.614.319 1.738 1.738-.32-.319-1.737-1.738.319ZM42.787 35.876l.319 1.737 1.737-.318-.318-1.738-1.738.319Z" fill="#DB365E"/><path d="m42.514 34.141.318 1.738 1.738-.318-.318-1.738-1.738.318ZM42.166 32.403l.318 1.738 1.738-.319-.318-1.738-1.738.32Z" fill="#DB365E"/><path d="m41.873 30.669.318 1.737 1.738-.318-.318-1.738-1.738.319ZM41.518 28.93l.318 1.738 1.738-.318-.318-1.738-1.738.318Z" fill="#DB365E"/><path d="m41.24 27.196.319 1.738 1.738-.319-.318-1.737-1.739.318ZM40.893 25.458l.318 1.737 1.738-.318-.318-1.738-1.738.319Z" fill="#DB365E"/><path d="m40.608 23.72.318 1.737 1.738-.318-.318-1.738-1.738.318ZM40.245 21.989l.318 1.738 1.738-.319-.318-1.737-1.738.318Z" fill="#DB365E"/><path d="m42.365 43.145.319 1.738 1.738-.319-.318-1.737-1.739.318ZM42.006 41.403l.318 1.738 1.738-.319-.318-1.737-1.738.318Z" fill="#AD1843"/><path d="m41.729 39.665.318 1.737 1.738-.318-.318-1.738-1.738.319Z" fill="#DB365E"/><path d="m41.38 37.934.32 1.738 1.737-.319-.318-1.737-1.738.318ZM41.05 36.196l.317 1.738 1.738-.319-.318-1.737-1.738.318Z" fill="#DB365E"/><path d="m40.772 34.454.318 1.737 1.738-.318-.318-1.737-1.738.318Z" fill="#DB365E"/><path d="m40.416 32.723.318 1.738 1.738-.318-.318-1.738-1.738.318Z" fill="#DB365E"/><path d="m40.147 30.981.318 1.738 1.738-.319-.319-1.737-1.737.318ZM39.783 29.25l.319 1.738 1.738-.318-.318-1.738-1.739.319Z" fill="#DB365E"/><path d="m39.502 27.509.318 1.737 1.738-.318-.318-1.738-1.738.319ZM39.143 25.778l.318 1.738 1.738-.319-.318-1.737-1.738.318Z" fill="#DB365E"/><path d="m38.865 24.036.319 1.737 1.738-.318-.318-1.737-1.739.318Z" fill="#DB365E"/><path d="m40.916 45.196.318 1.738 1.738-.319-.318-1.738-1.738.32Z" fill="#AD1843"/><path d="m40.623 43.458.318 1.737 1.738-.318-.318-1.738-1.738.319Z" fill="#AD1843"/><path d="m40.268 41.727.318 1.738 1.738-.319-.318-1.737-1.738.318Z" fill="#DB365E"/><path d="m39.995 39.981.318 1.738 1.738-.319-.318-1.737-1.738.318ZM39.635 38.247l.318 1.737 1.738-.318-.318-1.738-1.738.319Z" fill="#DB365E"/><path d="m39.322 36.513.319 1.737 1.738-.319-.319-1.737-1.738.319Z" fill="#DB365E"/><path d="m39.037 34.778.319 1.738 1.738-.319-.318-1.737-1.739.318ZM38.678 33.04l.318 1.737 1.738-.318-.318-1.738-1.738.319Z" fill="#DB365E"/><path d="m38.4 31.302.319 1.737 1.738-.318-.318-1.738-1.738.319ZM38.053 29.567l.318 1.738 1.738-.319-.318-1.738-1.738.32Z" fill="#DB365E"/><path d="m37.768 27.833.318 1.737 1.738-.318-.318-1.738-1.738.319ZM37.405 26.098l.318 1.738 1.738-.318-.318-1.738-1.738.318Z" fill="#DB365E"/><path d="m39.526 47.25.318 1.738 1.738-.318-.318-1.738-1.738.319ZM39.166 45.516l.318 1.738 1.738-.318-.318-1.738-1.738.318Z" fill="#AD1843"/><path d="m38.889 43.778.318 1.738 1.738-.319-.318-1.737-1.738.318ZM38.541 42.04l.318 1.737 1.738-.318-.318-1.738-1.738.319Z" fill="#DB365E"/><path d="m38.26 40.305.318 1.738 1.738-.318-.318-1.738-1.738.318ZM37.893 38.567l.318 1.738 1.738-.319-.318-1.737-1.738.318Z" fill="#DB365E"/><path d="m37.588 36.833.318 1.737 1.738-.318-.318-1.738-1.738.319Z" fill="#DB365E"/><path d="m37.3 35.094.317 1.738 1.738-.318-.318-1.738-1.738.318ZM36.944 33.36l.318 1.738L39 34.779l-.318-1.737-1.738.318Z" fill="#DB365E"/><path d="m36.666 31.622.318 1.737 1.738-.318-.318-1.737-1.738.318Z" fill="#DB365E"/><path d="m36.318 29.891.319 1.738 1.738-.319-.319-1.737-1.738.318Z" fill="#DB365E"/><path d="m36.03 28.15.318 1.737 1.738-.319-.318-1.737-1.738.318Z" fill="#DB365E"/><path d="m38.076 49.301.319 1.738 1.738-.319-.319-1.737-1.738.319Z" fill="#AD1843"/><path d="m37.787 47.567.319 1.738 1.737-.319-.318-1.737-1.738.318Z" fill="#AD1843"/><path d="m37.428 45.84.318 1.738 1.738-.318-.318-1.738-1.738.319Z" fill="#DB365E"/><path d="m37.155 44.094.318 1.738 1.738-.318-.318-1.738-1.738.318ZM36.803 42.356l.318 1.738 1.738-.319-.318-1.737-1.738.318Z" fill="#DB365E"/><path d="m36.518 40.618.318 1.737 1.738-.318-.318-1.737-1.738.318ZM36.155 38.887l.318 1.738 1.738-.318-.318-1.738-1.738.318Z" fill="#DB365E"/><path d="m35.842 37.15.318 1.737 1.738-.319-.318-1.737-1.738.318Z" fill="#DB365E"/><path d="m35.568 35.415.319 1.737 1.738-.318-.319-1.738-1.738.319ZM35.202 33.676l.318 1.738 1.738-.318-.318-1.738-1.738.319Z" fill="#DB365E"/><path d="m34.928 31.942.318 1.738 1.738-.319-.318-1.737-1.738.318ZM34.573 30.2l.318 1.738 1.738-.319-.318-1.737-1.738.318Z" fill="#DB365E"/><path d="m36.327 49.626.318 1.737 1.738-.318-.319-1.738-1.737.319Z" fill="#AD1843"/><path d="m36.05 47.891.317 1.738 1.738-.318-.318-1.738-1.738.318ZM35.701 46.153l.319 1.738 1.738-.319-.319-1.738-1.738.32Z" fill="#DB365E"/><path d="m35.42 44.419.318 1.737 1.738-.318-.318-1.738-1.738.319ZM35.053 42.68l.318 1.738 1.738-.318-.318-1.738-1.738.318Z" fill="#DB365E"/><path d="m34.78 40.942.318 1.738 1.738-.319-.318-1.737-1.738.318ZM34.432 39.208l.318 1.737 1.738-.318-.318-1.738-1.738.319ZM34.104 37.466l.318 1.737 1.738-.318-.318-1.738-1.738.319Z" fill="#DB365E"/><path d="m33.827 35.735.318 1.738 1.738-.319-.318-1.737-1.738.318ZM33.475 34l.318 1.738 1.738-.318-.318-1.738-1.738.319ZM33.186 32.255l.318 1.737 1.738-.318-.318-1.738-1.738.319ZM32.83 30.52l.318 1.738 1.738-.319-.318-1.737-1.738.318ZM34.319 48.204l.318 1.737 1.738-.318-.318-1.737-1.738.318ZM33.967 46.47l.318 1.737 1.738-.319-.318-1.737-1.738.318Z" fill="#DB365E"/><path d="m33.678 44.731.318 1.738 1.738-.319-.318-1.737-1.738.318Z" fill="#DB365E"/><path d="m33.323 43 .318 1.738 1.738-.318-.318-1.738-1.738.319ZM33.045 41.255l.318 1.737 1.738-.318-.318-1.738-1.738.319ZM32.697 39.52l.319 1.738 1.738-.319-.319-1.737-1.738.318Z" fill="#DB365E"/><path d="m32.37 37.79.318 1.737 1.738-.318-.318-1.738-1.738.319ZM32.084 36.044l.318 1.737 1.738-.318-.318-1.738-1.738.319Z" fill="#DB365E"/><path d="m31.736 34.313.319 1.738 1.738-.319-.319-1.737-1.738.318Z" fill="#DB365E"/><path d="m31.451 32.571.319 1.738 1.738-.319-.318-1.737-1.738.318ZM31.092 30.84l.318 1.738 1.738-.318-.318-1.738-1.738.319Z" fill="#DB365E"/><path d="m30.823 29.102.318 1.738 1.738-.319-.318-1.737-1.738.318ZM32.228 46.794l.319 1.737 1.738-.318-.318-1.738-1.739.319Z" fill="#DB365E"/><path d="m31.94 45.055.318 1.738 1.738-.318-.318-1.738-1.738.318ZM31.58 43.313l.318 1.738 1.739-.319-.319-1.737-1.738.318Z" fill="#DB365E"/><path d="m31.307 41.579.318 1.737 1.738-.318-.318-1.737-1.738.318ZM30.959 39.84l.318 1.738 1.738-.319-.318-1.737-1.738.319Z" fill="#DB365E"/><path d="m30.631 38.106.318 1.738 1.738-.319-.318-1.737-1.738.318Z" fill="#DB365E"/><path d="m30.35 36.368.318 1.737 1.738-.318-.318-1.737-1.738.318ZM29.99 34.633l.319 1.738 1.738-.318-.318-1.738-1.738.319Z" fill="#DB365E"/><path d="m29.725 32.895.318 1.738 1.738-.319-.318-1.737-1.738.318ZM29.358 31.165l.318 1.737 1.738-.318-.318-1.738-1.738.319Z" fill="#DB365E"/><path d="m29.076 29.423.319 1.737 1.738-.318-.318-1.738-1.739.319ZM28.717 27.684l.318 1.738 1.738-.318-.318-1.738-1.738.318ZM30.205 45.368l.318 1.737 1.739-.318-.319-1.737-1.738.318ZM29.854 43.634l.318 1.737 1.738-.319-.319-1.737-1.738.319Z" fill="#DB365E"/><path d="m29.569 41.9.318 1.737 1.738-.319-.318-1.737-1.738.318ZM29.213 40.16l.318 1.738 1.738-.318-.318-1.737-1.738.318Z" fill="#DB365E"/><path d="m28.904 38.427.319 1.737 1.738-.319-.319-1.737-1.738.319Z" fill="#DB365E"/><path d="m28.612 36.688.318 1.738 1.738-.319-.318-1.737-1.738.318ZM28.256 34.95l.318 1.737 1.738-.318-.318-1.737-1.738.318Z" fill="#DB365E"/><path d="m27.983 33.212.318 1.737 1.738-.318-.318-1.738-1.738.319ZM27.63 31.477l.32 1.738 1.737-.319-.318-1.737-1.738.318Z" fill="#DB365E"/><path d="m27.338 29.743.318 1.738 1.738-.319-.318-1.738-1.738.319ZM26.983 28.005l.318 1.737 1.738-.318-.318-1.738-1.738.319Z" fill="#DB365E"/><path d="M26.705 26.262 27.023 28l1.739-.318-.319-1.738-1.738.318Z" fill="#fff"/><path d="m28.115 43.95.319 1.737 1.738-.318-.319-1.738-1.738.319Z" fill="#DB365E"/><path d="m27.83 42.208.318 1.737 1.739-.318-.319-1.738-1.738.319Z" fill="#DB365E"/><path d="m27.479 40.477.318 1.738 1.738-.319-.318-1.737-1.738.318Z" fill="#DB365E"/><path d="m27.162 38.74.319 1.737 1.737-.32-.318-1.737-1.738.32Z" fill="#DB365E"/><path d="m26.881 37.008.318 1.738 1.738-.318-.318-1.738-1.738.319ZM26.518 35.266l.318 1.738 1.738-.318-.318-1.738-1.738.318Z" fill="#DB365E"/><path d="m26.24 33.528.319 1.738 1.738-.319-.318-1.737-1.738.318Z" fill="#DB365E"/><path d="m25.893 31.798.318 1.737 1.738-.318-.318-1.738-1.738.319Z" fill="#DB365E"/><path d="m25.6 30.06.318 1.737 1.738-.318-.318-1.738-1.738.318ZM25.244 28.325l.319 1.738 1.738-.319-.318-1.737-1.739.318Z" fill="#DB365E"/><path d="m24.971 26.583.318 1.737 1.738-.318-.318-1.738-1.738.319Z" fill="#DB365E"/><path d="m24.616 24.844.318 1.738 1.738-.318-.318-1.738-1.738.318Z" fill="#fff"/><path d="m26.096 42.532.318 1.738 1.738-.32-.318-1.737-1.738.319ZM25.74 40.798l.319 1.737 1.738-.318-.318-1.738-1.738.319Z" fill="#DB365E"/><path d="m25.42 39.063.318 1.738 1.738-.319-.318-1.737-1.738.318ZM25.143 37.317l.318 1.738 1.738-.319L26.881 37l-1.738.318Z" fill="#DB365E"/><path d="m24.791 35.587.318 1.737 1.738-.318-.318-1.738-1.738.319Z" fill="#DB365E"/><path d="m24.498 33.848.318 1.738 1.739-.318-.319-1.738-1.738.318Z" fill="#DB365E"/><path d="m24.143 32.118.318 1.737 1.738-.318-.318-1.737-1.738.318Z" fill="#DB365E"/><path d="m23.866 30.376.318 1.737 1.738-.318-.318-1.738-1.738.319Z" fill="#DB365E"/><path d="m23.518 28.645.318 1.738 1.738-.319-.318-1.737-1.738.318Z" fill="#DB365E"/><path d="m23.229 26.903.318 1.738 1.738-.319-.318-1.737-1.738.318Z" fill="#DB365E"/><path d="m22.873 25.165.318 1.737 1.739-.318-.319-1.738-1.738.319Z" fill="#fff"/><path d="m24.002 41.114.318 1.738 1.738-.32-.318-1.737-1.738.319Z" fill="#DB365E"/><path d="m23.678 39.38.318 1.737 1.738-.318-.318-1.738-1.738.319Z" fill="#DB365E"/><path d="m23.405 37.641.318 1.738 1.738-.318-.318-1.738-1.738.318ZM23.053 35.907l.318 1.738 1.738-.32-.318-1.737-1.738.319Z" fill="#DB365E"/><path d="m22.768 34.169.318 1.737 1.738-.318-.318-1.738-1.738.319ZM22.412 32.43l.319 1.738 1.738-.318-.319-1.738-1.738.318Z" fill="#DB365E"/><path d="m22.127 30.696.318 1.738 1.738-.319-.318-1.737-1.738.318ZM21.78 28.958l.318 1.737 1.738-.318-.319-1.738-1.738.319Z" fill="#DB365E"/><path d="m21.494 27.223.319 1.738 1.738-.318-.318-1.738-1.739.318Z" fill="#DB365E"/><path d="m21.139 25.485.318 1.738 1.738-.319-.318-1.737-1.738.318Z" fill="#fff"/><path d="m21.944 39.7.318 1.737L24 41.12l-.318-1.737-1.738.318Z" fill="#DB365E"/><path d="m21.666 37.958.318 1.737 1.738-.318-.318-1.738-1.738.319Z" fill="#DB365E"/><path d="m21.303 36.231.318 1.738 1.738-.319-.318-1.737-1.738.318Z" fill="#DB365E"/><path d="m21.033 34.485.319 1.738 1.738-.319-.319-1.738-1.738.32ZM20.67 32.75l.318 1.738 1.738-.318-.318-1.738-1.738.319Z" fill="#DB365E"/><path d="m20.393 31.009.318 1.737 1.738-.318-.318-1.738-1.738.319ZM20.034 29.274l.318 1.738 1.738-.319-.318-1.737-1.738.318Z" fill="#DB365E"/><path d="m19.756 27.536.318 1.737 1.738-.318-.318-1.737-1.738.318Z" fill="#fff"/><path d="m19.924 38.278.318 1.738 1.738-.319-.318-1.737-1.738.318ZM19.576 36.544l.319 1.737 1.738-.318-.319-1.738-1.738.319Z" fill="#DB365E"/><path d="m19.291 34.81.318 1.737 1.738-.319-.318-1.737-1.738.318ZM18.947 33.067l.319 1.738 1.738-.319-.319-1.737-1.738.318Z" fill="#DB365E"/><path d="m18.655 31.325.318 1.738 1.738-.319-.318-1.738-1.738.319Z" fill="#DB365E"/><path d="m18.3 29.595.317 1.737 1.738-.318-.318-1.738-1.738.319ZM17.834 36.86l.318 1.738 1.738-.319-.318-1.737-1.738.318Z" fill="#fff"/><path d="m17.553 35.118.318 1.737 1.738-.318-.318-1.737-1.738.318ZM17.209 33.38l.318 1.737 1.738-.319-.318-1.737-1.738.319Z" fill="#fff"/><path d="m16.92 31.645.318 1.738 1.738-.319-.318-1.737-1.738.318Z" fill="#fff"/></svg>