<svg version="1.0" xmlns="http://www.w3.org/2000/svg" width="1706.667" height="1706.667" viewBox="0 0 1280 1280"><path d="M0 640v640h521v-103h-32V952h32v32h96v-32h33v32h64l-.2 16.3-.3 16.2-31.7.3-31.8.2v39.9c0 21.9-.3 50.6-.7 63.9l-.6 24.2h32.1c17.6 0 32.2.3 32.4.7.2.5.2 7.7 0 16l-.3 15.3h-32l.2 3.2c.1 1.8.1 9 0 16l-.1 12.8h-15.9c-15.7 0-15.8 0-15.8 2.2-.1 1.3-.1 8.5-.2 16l-.1 13.7-15.7.3-15.8.3-.3 19.2-.2 19.3h87v-33l53.3.2 53.2.3-.4 16.2-.4 16.3H848v-33l53.3.2 53.2.3-.4 16.2-.4 16.3H992v-33l124.3.2 124.2.3.5 16.5.6 16.5.4-12.5c.3-6.9.4-14.4.4-16.7 0-2.3.3-4 .8-3.7.4.3.8 7.7.8 16.5v15.9h36V0H0v640zM468.7 29.3c.2.3.4 6.7.4 14.3v13.9h-28.6l-.3-13.9c-.1-7.9.1-14.2.7-14.5 1.1-.7 27.1-.5 27.8.2zm548.4.2v28H988.8l.1-13.9c.1-7.7.4-14.2.6-14.5.6-1.1 27.5-.7 27.6.4zM619.3 90.9c.1 31.5-.1 48.1-.8 48.1-9.8.2-94-.1-94.2-.4-.2-.1-.6-21.2-1-46.9-.4-32.7-.3-47 .5-47.9.8-1 10.6-1.3 48.2-1.1l47.1.2.2 48zm-97.6-30.6c-.2 2.3-.3.1-.3-4.8 0-5 .1-6.8.3-4.2.2 2.6.2 6.7 0 9zm-76 1.3c-.3.3-1.2.4-1.9.1-.8-.3-.5-.6.6-.6 1.1-.1 1.7.2 1.3.5zm14.6.1c-2.4.2-6.2.2-8.5 0-2.4-.2-.5-.4 4.2-.4s6.6.2 4.3.4zm550 0c-3.5.2-9.1.2-12.5 0-3.5-.2-.7-.3 6.2-.3s9.7.1 6.3.3zm-488.6 9c-.3 1-.5.2-.5-1.7s.2-2.7.5-1.8c.2 1 .2 2.6 0 3.5zm677 3.7c.6.5.6 27.7 0 28.3-.3.2-6.7.4-14.3.4h-13.9L1170 89c-.3-7.8-.2-14.4.2-14.8.7-.7 27.7-.6 28.5.2zM522 89.7v15.8l-93.2-.2-93.3-.3-.3-15-.3-15 93.3-.3c51.3-.1 93.4-.3 93.6-.5.1-.1.2 6.9.2 15.5zM130.2 86c6.2-.1 11.9-.1 12.6-.1 1 .1 1.2 3.3 1 14.3l-.3 14.3H115.8l.1-14.3c0-7.8 0-14.7.1-15.3 0-.8.4-.8 1.4 0 .9.8 5.4 1.2 12.8 1.1zM333 121.5v15.2c0 .5-6.6.8-14.7.8h-14.8l-.3-15.3-.3-15.2H333v14.5zm547.5-7.6c5.5-.1 10.6-.6 11.3-1.1.8-.7 1.2-.7 1.2.1 0 .6.8 1.1 1.8 1.2 1.1 0 1.2.2.4.6-1 .4-1.3 3.6-1.1 13.3.1 12.8-.3 15.6-2.3 14.4-.6-.4-1.4 0-1.9.7-.7 1.1-.9 1.2-.9.1 0-1.1-2.4-1.3-11.4-1.1-6.3.2-11.8.1-12.1-.3-.9-.9-1.1-27.8-.2-27.8.5 0 .5-.4.2-1-.4-.6.4-.6 2.1.1 1.6.5 7.3.9 12.9.8zm-579 29.3c.3 2.4.5 9 .3 14.8l-.3 10.5-15.2.3-15.3.3V139h29.9l.6 4.2zm426 12.4v14.8l-13.9-.2c-7.6-.1-14.1-.3-14.3-.6-.6-.5-.5-27.4 0-28.3.3-.5 6.7-.7 14.4-.6l13.8.2v14.7zm346.8 2.4c.4 0 .7 6 .7 13.4 0 10.3-.3 13.6-1.4 14.5-1.5 1.3-27.6 1.5-27.6.2-.1-1.4-.1-27.6-.1-28.1.1-.4 14.3-.4 28.4 0zM950 201.1l-.5 17.1-14.8.1c-8.1.1-14.7-.1-14.7-.6 0-.4 6.3-.7 14-.7h14v-30.5l-58.2.3c-32.1.1-58.9.4-59.6.7-.8.3-1.9.2-2.5-.2-.7-.4-2-.8-3-.8-1.6-.2-1.7.9-1.5 14.9l.3 15.1 45 .5c24.8.3 45.1.7 45.3.8.1.1.1 8.6 0 18.9l-.3 18.8-62.3.3c-54.4.2-62.5 0-63.8-1.3-1-.9-1.1-1.5-.4-1.5.9 0 1.1-4.5 1-16.3-.1-8.9-.2-16.7-.1-17.2.1-.6 6-.9 16.2-.7 8.9.2 16.4 0 16.8-.5.3-.4.4-8.3.1-17.6l-.5-16.7h130l-.5 17.1zm-4-10.4c-.1 2.4-.2 2.5-1.1 1-.9-1.6-4.7-1.7-56.4-1.7-36.3 0-55.5-.3-55.5-1s19.5-1 56.5-1H946v2.7zm-116 .4c0 .5-.4.7-1 .4-.6-.4-1.1 2.5-1.2 7.7l-.2 8.3-.3-7.3c-.3-5.2-.8-7.5-1.8-7.9-2.5-.9-1.6-2.3 1.5-2.3 1.7 0 3 .5 3 1.1zm113.7 12.1c-.2 2.4-.4.7-.4-3.7s.2-6.3.4-4.3c.2 2.1.2 5.7 0 8zm-744-9.6c-.3.3-1.2.4-1.9.1-.8-.3-.5-.6.6-.6 1.1-.1 1.7.2 1.3.5zm633.1 15.5c.4.1 19.2.2 41.7.3 26.3.1 41.2-.1 41.7-.8 1-1.5 3.5 1 4.1 4.1.3 1.5-.1 3.2-.8 4-1.9 1.9-2.3 1.6-2-1.2.2-1.4-.1-2.7-.6-3.1-.5-.3-20-.5-43.3-.4-23.4 0-42.6-.3-42.8-.7-.3-.4-.2-4.9.1-9.8l.6-9 .3 8.2c.2 4.6.6 8.4 1 8.4zM197 195.4c0 .2-.7.9-1.5 1.6-1.3 1.1-1.4 1-.9-.4.5-1.4 2.4-2.3 2.4-1.2zm987.5 1.6c7.2 0 12.6-.4 13-1 .3-.6 1.2-1 1.8-.9.9 0 .8.2-.1.6-.6.2-1 .9-.6 1.4.6 1.1.7 27.9 0 28.6-.6.7-27.6.6-28.3-.1-.3-.2-.5-6.1-.4-13 .1-7.5-.2-12.7-.8-13-.6-.4-.4-1.4.7-2.4.9-1 1.9-1.4 2-1 .2.4 5.9.8 12.7.8zm-959.3 15.2v14.3l-13.3.3c-7.3.1-13.6-.1-14.1-.6-1.1-1.1-1.6-28.1-.6-28.5.5-.1 6.9-.1 14.4 0l13.6.2v14.3zm601.3-3.1c.4.6.8 2.3.9 3.8.1 2-.3 2.7-1.6 2.8-1.5.1-1.8-.6-1.8-3.8 0-3.8 1.2-5.1 2.5-2.8zm109.8 1c8.9.1 9.7.3 9.7 2.1 0 1-.4 1.7-.9 1.4-.5-.3-1.1.1-1.5.9-.4 1.1-2.3 1.5-8.1 1.5-4.8 0-7.4-.4-7-1 .3-.6 3.7-1 7.6-1 4.1 0 6.9-.4 6.9-1 0-.7-3.2-1-8.7-.8-7.7.3-8.8.5-8.5 2 .2 1-.3 1.8-1.1 1.8-1 0-1.4-1-1.3-2.8.2-3.4 1.6-5.8 2.5-4.4.4.6 4.8 1.2 10.4 1.3zm-21.7 5.6c2 2.7 1.6 3.6-.8 1.9-1.9-1.4-7.8-1.6-43.3-1.6-26.8 0-40.5-.4-39.5-1 .9-.6 17.5-1 41.9-1 37.3 0 40.5.1 41.7 1.7zm-297.5 9.5c.2.7.3 7.4.1 14.8l-.3 13.5-14.1-.2c-7.7-.1-14.3-.4-14.6-.7-.4-.4-.6-26.9-.3-28.4.1-.1 6.6-.2 14.5-.2 10.7 0 14.5.3 14.7 1.2zm366.2 42-.3 12.3 11-.3 10.9-.3.3 13.8c.2 7.6 0 14.2-.4 14.7-.5.6-5.5 1-11.3 1l-10.5.1V288h-33v15.9c0 14 .2 16 1.7 16.5.9.4 8.2.6 16.2.5l14.6-.1.3 16.1.2 16.1h32.5V636.7l-63 .7c-34.6.4-63.7.9-64.5 1.2-1.2.3-1.5 2.9-1.5 15.6 0 8.4.4 15.9.9 16.6 1.2 2 .1 2.5-3.1 1.4-1.7-.6-2.1-1.1-1-1.1 1.5-.1 1.7-1.5 1.5-15.4-.1-15.2-.3-15.2-1.4 0-.3 4.6-1 8.3-1.5 8.3s-.9-5.3-.9-11.8v-11.7l-82.5.3c-50.2.1-82.5.6-82.5 1.2 0 .5-2.1 1.1-4.7 1.3-4.7.3-4.7.3 1 .5 3.2.1 5.7-.2 5.7-.8 0-.6.4-1 1-1 .5 0 .7.7.4 1.5-.4.8-.1 1.5.5 1.5.7 0 1.1 2.1 1.1 5.5 0 4.2.3 5.5 1.5 5.5.8 0 1.5.4 1.5.9s1.9 1.2 4.3 1.6c2.3.5 4.5.9 5 1 .4.1 1.2.3 1.7.4.6 0 1 1 1 2.1 0 1.6-.6 1.9-3.5 1.7-1.9-.2-3.8-.6-4.1-1-.4-.4-1.7-.7-2.9-.7-1.1 0-2.6-.5-3.3-1.2-.9-.9-1.2-.8-1.2.4 0 .9-.3 2.4-.7 3.4-.6 1.5-.1 1.6 3.5 1.1 2.3-.3 4.2-.1 4.2.3 0 .5-1.5 1.1-3.2 1.3-3.1.4-3.1.4.6.5 2.5.1 4.8 1 6.3 2.4 2.2 2.1 2.3 2.7 2.3 18.4v16.2l-3.6 2.1c-3.8 2.2-6 2.7-6.6 1.2-.4-1.3-2.5-1.4-16.3-1l-12 .3 13 .6 13 .6-13.5.3c-7.4.2-12.6.6-11.6.8 1.4.4 1.6.7.6 1.3-.8.5-.9 1.3-.4 2.1s.7 5.5.5 10.6c-.3 9 .3 13.3 1.8 13.3.7 0 1.6-12.6 1.3-19.3-.1-2.5.1-2.7 2.6-2 2.5.6 5.2 2.5 5.2 3.6 0 1.4-3.1 1.4-4.5.1-1.3-1.4-1.5-.7-1.5 7v8.6h46c40 0 46.1.2 46.6 1.5.5 1.2 2.7 1.5 11.2 1.5 5.8 0 10.3.2 10.1.4-.2.3-4.8.6-10.2.7-8.4.2-9.7.5-9.7 2 0 2.3-2 2.9-9.1 2.9H781v35.5l17.5-.3 17.5-.4V851l18.3-.2 18.2-.3v-72l-17.7-.3-17.8-.2v-17c0-9.3-.4-17.1-.8-17.4-.5-.3-4.7-.6-9.5-.7-11.2-.2-12.5-1.9-1.5-1.9 4.6 0 11.5-.5 15.3-1.1 3.9-.6 12-1.2 18.2-1.3 6.2-.1 11.5-.4 11.7-.7.9-.9.8-27.1-.1-28-.4-.4-5.3-1-10.8-1.2-5.5-.1 3.2-.4 19.3-.5l29.2-.2v34.7l34 .7c26.1.6 34.4.5 35.5-.4 1.2-1 1.5-4.6 1.6-17.9.1-9.1.3-15.8.6-14.9.4 1.6 2.1 1.8 16.9 1.8 10.9 0 16.4-.4 16.4-1.1 0-.5-.4-.7-1-.4-.5.3-1 .2-1-.3 0-.6.8-1.3 1.8-1.7 1.9-.8 36.1-.9 36.9-.1.3.2.4 7.9.3 16.9-.1 14.8.1 16.5 1.6 17.1 1 .4 9 .6 17.8.5l16.1-.1.3 18.6c.2 12.5.6 18.5 1.3 18.1 1.3-.9 1 26.5-.3 28.2-1.3 1.6-.6 5.6 1 5.9.7.1.8 0 .2-.3-.5-.2-1-1.7-.9-3.1 0-2.6.1-2.6.9-.5.9 2.1 1.4 2.2 15.2 2.2 10.1 0 14.2.3 14 1.1-.1.7.5.9 1.8.5 1.1-.4 2-.2 2 .4.1 3.5 0 36.2-.1 36.8-.4 2.9.2 31.4.7 32.7.6 1.4-1.2 1.6-18 1.6H1065v71l17.8.2 17.7.3.3 17.7.2 17.7-3.2.6c-1.8.3-9.8.5-17.8.3l-14.5-.3-.3-17.8-.2-17.7H747v-69h-33l-.2 16.2-.3 16.3-112.2.3-112.3.2v-33h-22c-14 0-22-.4-22-1s-3.7-1-9-1h-9v16.9c0 14.1-.2 17-1.5 17.5-2.2.8-2.2 31.6 0 31.6 1.2 0 1.5 2.4 1.7 13.2l.3 13.3 14.8.3 14.7.3v92.9H304v30l61.8.2 61.7.3.3 15.8.3 15.7-62.3-.2-62.3-.3-.3-15.2-.3-15.2-15.2-.3-15.2-.3-.3-15.2-.3-15.3H241v-32h-29.9l-.3-15.3-.3-15.2-15.2-.3c-18-.3-16.2-2.3-16.6 17.8l-.2 13.5-13 .3c-19.2.4-17.5 1.9-17.5-15.8v-14.9l-15.2-.3-15.3-.3-.3-61.8-.2-61.7H55l-.1-15c-.1-8.3-.2-15.5-.3-16-.1-.7 66.5-1 201.9-1 175.1 0 202.1.2 203.1 1.4.9 1.3 20.7 1.5 146 1.6l144.9.1-.5-15.3-.5-15.3-15.2.4c-8.4.1-15.3-.1-15.3-.6 0-.4-.2-7.1-.3-14.8l-.2-14-12.2-.3-12.3-.3V706h-36.5l.3-11.7c.2-6.5-.1-15.9-.5-20.8-.4-5-.6-13.4-.3-18.9l.5-9.9 18.3.2 18.2.2v-61.8l-56.2-.6c-31-.4-83.8-.7-117.5-.7h-61.1l.1 43.1c.2 28-.1 43.3-.8 43.7-.5.4-21.8.6-47.2.4L365 669v-16.5c0-9.8-.4-16.6-1-17-.5-.3-1-.2-1 .4 0 .5-.8.8-1.8.6-.9-.2-42-.4-91.3-.4l-89.6-.1-.2-14.5-.2-14.5h181.2l-.2 13.1c0 7.1.2 13.3.5 13.6.3.4.6-5.5.6-13 0-11.5.2-13.7 1.5-13.7s1.5-2.1 1.5-12.5V582h-31v-32h-63v-65.2l15 .4 14.9.3.3-13.5c.3-15 .1-18.3-1.3-17.5-.5.4-.9.3-.9-.2 0-.4 7.6-.6 17-.5l17 .4V391l2.3-.5c1.2-.3 15.7-.5 32.2-.3l30 .3.3 16.2.2 16.3h31v-33.1l15.6.2c8.6 0 16.2.3 16.8.5.8.3 1 5 .8 14.9l-.3 14.5 14.3.2 14.3.2-14.5.6-14.5.5 13.8.5c7.6.3 14.4.3 15.1 0 1-.4 1.3-4.3 1.3-16v-15.5h32.5l-.1 16.2-.2 16.3H555v-32.9l31.4-.1c24.4 0 31.6.2 32.3 1.2.4.7.9 15 1 31.8l.3 30.5 15.2.2 15.3.1.3 48.1.2 48.1h43V353h33v-32.5h31.5l.3-16.3.2-16.2h191v-33h33.5l-.2 12.2zm-332.2 62c.1 1.2 0 28.5-.1 30 0 .5-7.2.8-16 .8h-16v11.9c0 6.6-.3 12.2-.7 12.4-.5.3-.7-5.1-.5-11.9l.3-12.4H207v-32h222c176.9 0 222 .3 222.1 1.2zM496 385c0 .5-.4 1-1 1-.5 0-1-.5-1-1 0-.6.5-1 1-1 .6 0 1 .4 1 1zm61 0c-.8.5-2.4.9-3.5.9-1.6-.1-1.6-.2.5-.9 3.5-1.1 4.8-1.1 3 0zm-222.7.7c-.7.2-2.1.2-3 0-1-.3-.4-.5 1.2-.5 1.7 0 2.4.2 1.8.5zm127 1c-.7.2-1.9.2-2.5 0-.7-.3-.2-.5 1.2-.5s1.9.2 1.3.5zm156.4 1.5c-.3.8-.6.5-.6-.6-.1-1.1.2-1.7.5-1.3.3.3.4 1.2.1 1.9zM427 389c0 1.1-.5 2-1.2 2-.6 0-.8-.3-.5-.7.4-.3.2-1.2-.4-2-.9-1-.8-1.3.5-1.3.9 0 1.6.8 1.6 2zm100-1c-2 1.3-3.3 1.3-2.5 0 .3-.6 1.4-1 2.3-1 1.5 0 1.5.2.2 1zm28 0c0 .5-.4 1-1 1-.5 0-1-.5-1-1 0-.6.5-1 1-1 .6 0 1 .4 1 1zm-488 1c0 .5-.5 1-1.1 1-.5 0-.7-.5-.4-1 .3-.6.8-1 1.1-1 .2 0 .4.4.4 1zm341-.1c8 .4-5.5.5-30 .3-24.5-.3-44.7-.6-44.9-.8-.7-.6 59.4-.2 74.9.5zm43.8-.2c-3.8.2-9.8.2-13.5 0-3.8-.2-.7-.3 6.7-.3s10.5.1 6.8.3zm63 0c-4.3.2-11.3.2-15.5 0-4.3-.1-.8-.3 7.7-.3s12 .2 7.8.3zm87.5 0c-7.8.2-20.8.2-29 0-8.1-.1-1.7-.3 14.2-.3 16 0 22.6.2 14.8.3zm-52.8.9c-6.9.7-23.2.8-22.2.2.7-.4 6.6-.7 13.2-.6 6.6.1 10.7.3 9 .4zM94.3 391c1.6 0 1.7 1.2 1.5 14.2l-.3 14.3H67.7l-.1-14.2c-.1-7.9.2-14.4.6-14.5.7-.3 6-.2 26.1.2zm236 .5c-.3.9-.8 1.4-1 1.1-.3-.3-.2-.9.2-1.5.9-1.6 1.5-1.3.8.4zm291.4 3.7c-.3.7-.5.2-.5-1.2s.2-1.9.5-1.3c.2.7.2 1.9 0 2.5zm0 43c-.1 7.9-.3 1.7-.3-13.7 0-15.4.2-21.8.3-14.3.2 7.5.2 20.1 0 28zm-292.4 9.9c-.5.5-.6-10.3-.3-23.9l.5-24.7.3 23.9c.1 13.2-.1 24.3-.5 24.7zM65.7 419.7c-.3 1-.5.4-.5-1.2 0-1.7.2-2.4.5-1.8.2.7.2 2.1 0 3zm410.8-1.4 12 .3h-12.4c-10.2-.1-12.5-.4-12.8-1.6-.3-1.1-.2-1.2.4-.3.6.8 4.9 1.3 12.8 1.6zm759 24.9v14.3h-28.6v-13.3c0-7.2 0-13.8.1-14.5 0-.9 3.4-1.2 14.2-1l14.3.2v14.3zm2.2-12c-.3.8-.6.5-.6-.6-.1-1.1.2-1.7.5-1.3.3.3.4 1.2.1 1.9zM332 451c0 .5-.7 1-1.6 1-.8 0-1.2-.5-.9-1 .3-.6 1-1 1.6-1 .5 0 .9.4.9 1zm318 0c0 .5-.4 1-1 1-.5 0-1-.5-1-1 0-.6.5-1 1-1 .6 0 1 .4 1 1zm-353.3 2.2c-.3.8-.6.5-.6-.6-.1-1.1.2-1.7.5-1.3.3.3.4 1.2.1 1.9zm2.5 18c.3 11.1.2 12.8-1.2 12.7-.8 0-1-.2-.5-.5.6-.2.9-5.7.8-14.1-.1-7.6 0-13.1.2-12.3.2.8.6 7.2.7 14.2zm927.1-9.5c-3.5.2-9.1.2-12.5 0-3.5-.2-.7-.3 6.2-.3s9.7.1 6.3.3zm-937 19c-2.9.2-7.8.2-11 0s-.8-.3 5.2-.3c6.1 0 8.7.1 5.8.3zm-154 60c-.7.2-1.9.2-2.5 0-.7-.3-.2-.5 1.2-.5s1.9.2 1.3.5zm22.2 16.5v14.3l-12.5.3c-6.8.2-13.4.1-14.5-.2-1.9-.5-2-1.3-2-14.3 0-7.6.3-14 .7-14.3.3-.3 6.8-.4 14.5-.3l13.8.1v14.4zM1119 548c.3 0 .4 6.2.3 13.7l-.2 13.8-14.1.3c-8.1.1-14.8-.2-15.8-.7-.9-.6-1.2-1.1-.6-1.1 1.8 0 1.9-25 .2-25.1-.7 0-.5-.3.4-.7 1.3-.5 24.7-.7 29.8-.2zm-555.7 66.7c-12.8.2-33.8.2-46.5 0-12.8-.1-2.4-.2 23.2-.2 25.6 0 36 .1 23.3.2zm-68.6 21.5c-.1 4-.3 1-.3-6.7s.1-11 .3-7.3c.2 3.7.2 10 0 14zm91-.5c-.2 3.8-.3.7-.3-6.7s.1-10.5.3-6.8c.2 3.8.2 9.8 0 13.5zm-407.4 3.6c.4.7.6 7.3.5 14.7l-.3 13.5-14.1.3-14.1.3-.7-3.2c-.7-3.5-.9-26.3-.2-27 1-1 28.1.3 28.9 1.4zm343.4 2.9c-.3.8-.6.5-.6-.6-.1-1.1.2-1.7.5-1.3.3.3.4 1.2.1 1.9zm3.7.3c.3.8.1 1.5-.4 1.5-.6 0-1-.7-1-1.5s.2-1.5.4-1.5.6.7 1 1.5zM587 646c0 .5-.4 1-1 1-.5 0-1-.5-1-1 0-.6.5-1 1-1 .6 0 1 .4 1 1zm-102.7.7c-4 .2-10.6.2-14.5 0-4-.1-.8-.3 7.2-.3s11.2.2 7.3.3zm127 0c-4 .2-10.6.2-14.5 0-4-.1-.8-.3 7.2-.3s11.2.2 7.3.3zm-149.6 15c-.2 2.7-.3.5-.3-4.7s.1-7.4.3-4.8c.2 2.7.2 6.9 0 9.5zM618 672.8c-1.1 1.6-1.1 1.6-.6-.1.3-1 .7-7.1.8-13.5l.2-11.7.3 11.8c.2 7.4 0 12.4-.7 13.5zm-92.3-4.1c-.2 3.2-.3.8-.3-5.2 0-6.1.1-8.7.3-5.8.2 2.9.2 7.8 0 11zM864 658.1c0 1.4-.7 1.9-3 1.9-1.6 0-3-.5-3-1 0-.6-.9-1-2-1-3.6 0-2.1-1.9 1.8-2.2 4.9-.4 6.2 0 6.2 2.3zm-96.5-1c1.1 1.6-2.3 4.6-5.8 5.3-8.5 1.6-9.5 1.7-10.2.6-.9-1.5.9-3.4 3.8-3.7 5.3-.6 8.7-1.6 8.7-2.4 0-1.3 2.7-1.1 3.5.2zm21.8-.4c-.7.2-2.1.2-3 0-1-.3-.4-.5 1.2-.5 1.7 0 2.4.2 1.8.5zm58.7.3c0 .6-3.2 1-7.5 1-6.1 0-8 .4-9.6 1.9-1.1 1-3.5 2.2-5.2 2.5-8.5 1.6-9.5 1.7-10.2.6-.9-1.5.9-3.4 3.8-3.7 5.3-.6 8.7-1.6 8.7-2.4 0-.5 4.5-.9 10-.9 6 0 10 .4 10 1zm32.5 7.8.6 7.2h-12.6c-12 0-12.5-.1-12.5-2.1 0-1.1-.4-1.8-1-1.4-.5.3-.7 1.2-.3 2 .3.9-.1 1.5-1.1 1.5-1.4 0-1.6 2.1-1.6 17.5V707h-10.3c-5.7 0-13.8-.3-18-.6l-7.7-.7v-8.3c0-4.5.5-8.6 1-8.9.6-.3 1-4.1 1-8.4 0-6.8.3-8 2.3-9.9 2.1-2 2.7-2.1 5.6-1.1 1.8.6 3.5.9 3.8.5.3-.3-.8-.9-2.5-1.2-4.1-.8-4.1-2.4-.1-2.4 1.9 0 2.8.4 2.4 1.1-.8 1.2 20.1.7 24.7-.6 2.1-.6 3.2-.2 5.3 1.9 2.4 2.4 3.3 2.6 11 2.6h8.5v-7.2c0-8.9.6-8.5 1.5 1zm-32.5-3.3c0 .8.6 1.5 1.3 1.5.8 0 .7.4-.3 1-.8.5-6.9.9-13.5.8-6.6-.1-10.1-.3-7.7-.5 3.4-.3 4.2-.8 4.2-2.4 0-1.7.7-1.9 8-1.9 6.4 0 8 .3 8 1.5zm-64 1.1c.7.7 3.4.6 8.3-.2 6.7-1.2 10.2-.6 8.3 1.3-.4.5-9.8.9-20.9.9-11.1.1-18.4-.1-16.2-.3 2.2-.2 4.3-1 4.7-1.7.8-1.5 14.3-1.5 15.8 0zm16 3.4c0 .5-.5 1-1.1 1-.5 0-.7-.5-.4-1 .3-.6.8-1 1.1-1 .2 0 .4.4.4 1zm50 0c-1.4.4-6.1.8-10.5.7l-8-.1 8.5-.6c12.6-.9 12.9-.9 10 0zm34 1.6c0 .8-.4 1.4-1 1.4-.5 0-1-.9-1-2.1 0-1.1.5-1.7 1-1.4.6.3 1 1.3 1 2.1zm-87.9.1c1 1 .7 1.2-1.2 1.1-6.4-.4-35.2.3-34.6.8.3.3 8.4.5 18 .4 15.2-.1 17.5.1 18.1 1.5.3.9.5 8.7.4 17.3l-.2 15.7-.6-16-.6-16-.1 16.8c0 9.2-.3 17-.6 17.4-.4.3-8.2.6-17.4.6l-16.8.1 16 .6 16 .6-16.2.2-16.2.2-2-2.9c-1.9-2.6-2.1-4.5-2.3-18.8l-.2-15.8-.4 14.5c-.3 15.8 1.1 26.5 3.6 25.5.7-.2 1-.1.7.5-.3.5 1.1 1.2 3.2 1.5 2.1.4 4.7.9 5.8 1.3 1.1.3 4.8.6 8.3.7 5.3.1 6.2-.2 6.2-1.7 0-1.6-1-1.8-7.6-1.8-4.1 0-7.3-.4-7-.8.4-.7 7-.8 19.1-.2 2.8.2 4 .5 2.8.7-1.3.3-2.3 1.2-2.3 2.1 0 2.4-5.5 4.6-12.5 4.9-3.3.1-7.7.5-9.7.9-2.5.4-3.8.2-3.8-.5 0-.6.9-1.1 2-1.1s2-.3 2-.8c0-1.2-7.8-4.2-11-4.2-2.5 0-3-.4-3-2.3.1-1.9.2-2 1.3-.6.9 1.3 1.1-2.4.8-17.8-.4-25.9-1.9-24.2 21.3-24.5l17.1-.2-16-.6-16-.6h17.2c12.1.1 17.6.5 18.4 1.3zm-649 16.3v14.5l-12.7.3c-7 .2-13.7.1-14.8-.2-2-.5-2.1-1.1-1.8-15.1l.3-14.6 14.5.3 14.5.3V684zm316.6-12.8c-.3.8-.6.5-.6-.6-.1-1.1.2-1.7.5-1.3.3.3.4 1.2.1 1.9zM800 671c0 .5-.4 1-1 1-.5 0-1-.5-1-1 0-.6.5-1 1-1 .6 0 1 .4 1 1zm-357.7.7c-7.8.2-20.8.2-29 0-8.1-.1-1.7-.3 14.2-.3 16 0 22.6.2 14.8.3zm48.3 3c-1 1-1.9-.5-1-1.8.6-1.1.8-1.1 1.2 0 .2.7.1 1.5-.2 1.8zM753 688c0 10-.4 16-1 16s-1-6-1-16 .4-16 1-16 1 6 1 16zm-351-13.4c0 .2-.7.4-1.5.4s-1.5-.4-1.5-1c0-.5.7-.7 1.5-.4.8.4 1.5.8 1.5 1zm19.3.1c-1.3.2-3.3.2-4.5 0-1.3-.2-.3-.4 2.2-.4s3.5.2 2.3.4zm71.2 3.3c.3.5.2 1-.4 1-.5 0-1.3-.5-1.6-1-.3-.6-.2-1 .4-1 .5 0 1.3.4 1.6 1zm33.5-.6c0 .3-.4.8-1 1.1-.5.3-1 .1-1-.4 0-.6.5-1.1 1-1.1.6 0 1 .2 1 .4zm1.7 1.8c-.3.8-.6.5-.6-.6-.1-1.1.2-1.7.5-1.3.3.3.4 1.2.1 1.9zm-131.4 3.5c-.7 6.8-1.3 7.8-1 1.6.2-4.5-.1-5.3-1.8-5.6-1.5-.3-1.3-.5.6-.6 2.6-.1 2.6 0 2.2 4.6zm34.7 25-.5 28.8-.3-27.5c-.2-24.4 0-30 1-30 .2 0 .1 12.9-.2 28.7zm366.3 1.5c-1.8 1.8-3.6 2.9-3.9 2.5-1-1 3.6-5.7 5.5-5.7 1.1 0 .6 1-1.6 3.2zm-140.8-.2c-.3.5-1.6 1-2.8.9-2-.1-2-.2.3-.9 1.4-.4 2.6-.8 2.8-.9.2-.1 0 .3-.3.9zm3.5 1.1c0 .5-.4.9-.8.9-.5 0-.9-.7-.9-1.5s.4-1.2.9-.9c.4.3.8.9.8 1.5zm158.8-.9c1.8 1.8 1.4 3.8-.7 3.8-2.4 0-3.3-1.3-2.5-3.4.7-1.9 1.6-2 3.2-.4zm7.9-.6c-.3.3-1.2.4-1.9.1-.8-.3-.5-.6.6-.6 1.1-.1 1.7.2 1.3.5zm-90.2 2.3c0 1-2.1 1.9-6.7 2.7-3.7.7-7.2 1.5-7.7 1.9-1.6.9-2.1-1.1-.8-2.8.7-.8 2.9-1.8 5-2 2.1-.3 4.1-.8 4.5-1.1 1.2-1.2 5.7-.1 5.7 1.3zM984 710c0 .6-3.3 1-8 1s-8-.4-8-1 3.3-1 8-1 8 .4 8 1zm-280.8 1.2c-1.7.8-2.6.8-3.4 0-.9-.9-.4-1.2 2.3-1.1 3.2 0 3.3.1 1.1 1.1zm9.8-.2c0 .5-.4 1-.9 1-.6 0-1.3-.5-1.6-1-.3-.6.1-1 .9-1 .9 0 1.6.4 1.6 1zm5 0c0 .5-.4 1-.9 1-.6 0-1.3-.5-1.6-1-.3-.6.1-1 .9-1 .9 0 1.6.4 1.6 1zm131.8 13-.2 13.5-.3-12.8-.4-12.7h-8.4c-5 0-8.5.4-8.5 1 0 .5-.7 1-1.5 1s-1.5-.4-1.5-.8c0-.5-1.2-1.3-2.7-1.8-2.1-.8.3-1 10.4-1l13.3.1-.2 13.5zm-49.5-11.3c-.4 1.1-.8 1.3-1.1.5-.2-.7-.9-.9-1.4-.6-.7.4-.8.2-.4-.4 1.2-1.9 3.6-1.5 2.9.5zm-83.8 2.3c.3.5-.3 1-1.4 1-1.2 0-2.1-.5-2.1-1 0-.6.6-1 1.4-1 .8 0 1.8.4 2.1 1zm130.8.9c.4 0 .7.7.7 1.4 0 .9-2 1.3-7.2 1.3-6.6-.1-9.3-.9-8.3-2.6.3-.5 11.9-.6 14.8-.1zm-52.5 3c1 .6.8.9-1 1.3-3 .5-5.8-.1-5.8-1.3 0-1.1 5-1.2 6.8 0zm30.7.1c.3.5-.5 1.2-1.8 1.5-3.5.9-8 .2-8.5-1.3s9.3-1.7 10.3-.2zm-90.7.7c-1 .2-2.6.2-3.5 0-1-.3-.2-.5 1.7-.5s2.7.2 1.8.5zm-74.1 6.5c-.2 1.3-.4.3-.4-2.2s.2-3.5.4-2.3c.2 1.3.2 3.3 0 4.5zM396 736c0 .5-.5 1-1.1 1-.5 0-.7-.5-.4-1 .3-.6.8-1 1.1-1 .2 0 .4.4.4 1zm264 27.7-.5 28.8-.3-27.5c-.2-24.4 0-30 1-30 .2 0 .1 12.9-.2 28.7zm152.3-27c-2.4.2-6.2.2-8.5 0-2.4-.2-.5-.4 4.2-.4s6.6.2 4.3.4zM395.5 740c.3.5.1 1-.4 1-.6 0-1.1-.5-1.1-1 0-.6.2-1 .4-1 .3 0 .8.4 1.1 1zm36.5 0c0 .5-.5 1-1.1 1-.5 0-.7-.5-.4-1 .3-.6.8-1 1.1-1 .2 0 .4.4.4 1zm-5.3 1.6c-.3.3-1.2.4-1.9.1-.8-.3-.5-.6.6-.6 1.1-.1 1.7.2 1.3.5zm47.8 24.4c-.3.5-1.1 1-1.6 1-.6 0-.7-.5-.4-1 .3-.6 1.1-1 1.6-1 .6 0 .7.4.4 1zm732.2 13.9c.7.3-.1 34.1-.8 34.1-.5 0-.9-1-1-2.3-.1-2.1-.1-2.1-.9.3s-.8 2.3-.9-.8c-.1-2 .3-3.1.9-2.7.6.4 1-4.3 1-13.2v-13.9h-2.5c-1.4 0-2.5.4-2.5.8s-5.4.8-12 .8c-8.5 0-12 .3-12 1.2 0 .6-.3.8-.6.5-.4-.4-.2-1.2.4-1.9.8-1.1-9.3-1.2-52.9-1-49 .2-53.9.1-53.9-1.4s5.9-1.6 68.8-1.1c37.8.3 68.8.6 68.9.6zm-136.2 15.8v12.8l32.7.2c22 .2 32.9-.1 33.4-.8.3-.6.4-1.2.2-1.4-.2-.2-14.9-.6-32.6-.7-17.7-.2-32.2-.6-32.2-1.1 0-.4 21.6-.7 47.9-.7 26.4 0 48.2-.4 48.5-.9.3-.4 2.8-.4 5.6.2 6.5 1.3 5.4 2.7-2.1 2.7-5.6 0-5.9.1-4.7 2 .7 1 .9 2.2.5 2.6-.3.4-15.1.3-32.8-.2-25.5-.7-32.3-.6-33.1.4-.8.9-1.4.9-2.4.1-.8-.7-6.2-.9-15.3-.7-13.3.3-14 .2-14.5-1.7-.9-3.1-.7-25.5.2-25.5.4 0 .7 5.7.7 12.7zm102.8-12c.3.5-22.2.7-49.9.5l-50.4-.3V800h15.5c8.5 0 15.5.3 15.5.8 0 .4-7.1.7-15.9.7h-15.9l-.6-8.2c-.4-4.6-.4-8.8-.1-9.3.7-1.2 101.1-1.4 101.8-.3zm28.4 18c-.2 3.7-.3.9-.3-6.2 0-7.2.1-10.2.3-6.8.2 3.4.2 9.3 0 13zm2-4.5c-.2 2.4-.4.5-.4-4.2s.2-6.6.4-4.3c.2 2.4.2 6.2 0 8.5zm-98 4c-.3.8-.6.5-.6-.6-.1-1.1.2-1.7.5-1.3.3.3.4 1.2.1 1.9zm2 0c-.3.8-.6.5-.6-.6-.1-1.1.2-1.7.5-1.3.3.3.4 1.2.1 1.9zm2 0c-.3.8-.6.5-.6-.6-.1-1.1.2-1.7.5-1.3.3.3.4 1.2.1 1.9zm2 0c-.3.8-.6.5-.6-.6-.1-1.1.2-1.7.5-1.3.3.3.4 1.2.1 1.9zm2 0c-.3.8-.6.5-.6-.6-.1-1.1.2-1.7.5-1.3.3.3.4 1.2.1 1.9zm2 0c-.3.8-.6.5-.6-.6-.1-1.1.2-1.7.5-1.3.3.3.4 1.2.1 1.9zm2 0c-.3.8-.6.5-.6-.6-.1-1.1.2-1.7.5-1.3.3.3.4 1.2.1 1.9zm2 0c-.3.8-.6.5-.6-.6-.1-1.1.2-1.7.5-1.3.3.3.4 1.2.1 1.9zm2 0c-.3.8-.6.5-.6-.6-.1-1.1.2-1.7.5-1.3.3.3.4 1.2.1 1.9zm2 0c-.3.8-.6.5-.6-.6-.1-1.1.2-1.7.5-1.3.3.3.4 1.2.1 1.9zm2 0c-.3.8-.6.5-.6-.6-.1-1.1.2-1.7.5-1.3.3.3.4 1.2.1 1.9zm2 0c-.3.8-.6.5-.6-.6-.1-1.1.2-1.7.5-1.3.3.3.4 1.2.1 1.9zm2 0c-.3.8-.6.5-.6-.6-.1-1.1.2-1.7.5-1.3.3.3.4 1.2.1 1.9zm2 0c-.3.8-.6.5-.6-.6-.1-1.1.2-1.7.5-1.3.3.3.4 1.2.1 1.9zm2 0c-.3.8-.6.5-.6-.6-.1-1.1.2-1.7.5-1.3.3.3.4 1.2.1 1.9zm33.6-1.3c.4 0 .7.5.7 1.1 0 .6-6.2 1-16.5 1-12.6 0-16.5-.3-16.5-1.3 0-.9 3.6-1.2 15.8-1.1 8.6.1 16 .2 16.5.3zm32.7 2.8v3.3h-8.1c-7.6 0-8-.1-7.4-2 .5-1.5.2-2-1.4-2-2.1 0-3.7-1.6-2.1-2.2.5-.1 5-.3 10-.3h9v3.2zm0 6.5c0 .5-3.9.8-8.7.9-4.9 0-10.1.2-11.8.3-1.6.1-4.6.3-6.4.4-2.2.1-3.1.6-2.5 1.1.5.5 7.2.7 15.6.4 12.3-.5 14.8-.8 15.1-2.2.3-.9.5-.4.6 1.1l.1 2.8h-98.5c-.3 0-.5-.2-.5-.6 0-.3 14.6-.5 32.5-.4 20.1 0 32.5-.3 32.5-.9 0-.5 1-1.3 2.3-1.7 5.1-1.7 29.7-2.7 29.7-1.2zM461.5 853c.3.5.1 1-.4 1-.6 0-1.1-.5-1.1-1 0-.6.2-1 .4-1 .3 0 .8.4 1.1 1zM33 857.2c.3.4.5 6.9.4 14.5l-.2 13.8H4.8v-13.8c.1-7.5.3-14.1.6-14.5.5-.9 26.9-.9 27.6 0zM781 1004v12h-34v-24h34v12zm284-2.5v9.6l-17.2-.1-17.3-.2-.2 7.3c-.1 8.2.8 9.8 5.9 10 3.2.2 3.2.2-.7.8-2.3.3-4.2.2-4.5-.4-.3-.7-37.2-1-107.5-1h-107l-.3-16.5c-.1-9 0-17 .2-17.7.4-1.1 24.3-1.3 124.6-1.3h124v9.5zm-29.7 11.2c-.7.2-1.9.2-2.5 0-.7-.3-.2-.5 1.2-.5s1.9.2 1.3.5zm17 0c-2.9.2-7.7.2-10.5 0-2.9-.2-.6-.3 5.2-.3s8.1.1 5.3.3zm10.5 14c-1 .2-2.8.2-4 0-1.3-.2-.5-.4 1.7-.4 2.2-.1 3.2.1 2.3.4zm-.5 2c-1.3.2-3.3.2-4.5 0-1.3-.2-.3-.4 2.2-.4s3.5.2 2.3.4zm212.9 25.7c-.1 7.6-.3 14-.5 14.3-.7.6-27.8.5-28.4-.1-.4-.4-.6-18.8-.3-27.9 0-.4 6.6-.6 14.6-.5l14.7.3-.1 13.9zM83.8 1075.6c.1 7.1.1 13.8-.2 14.9-.5 1.9-1.1 2-14.7 1.5l-14.2-.5.1-14.5c.1-8 .2-14.5.2-14.5s6.4 0 14.3.1l14.2.1.3 12.9zm764.2 8.9v18.5l68.3-.2 68.2-.3-.1 17v17l.5-16.5.6-16.5.6 15.3c.4 9.4 1 15.7 1.7 16.4.9.9 1.2.2 1.2-2.9 0-2.3-.4-4.3-.9-4.5-1.2-.4-1.9-25.8-.8-25.8 3.6 0 4.7 9.4 3.1 28.3l-.7 7.7h-15.1c-10.8 0-15.6-.4-16.4-1.2-1-1-1.4-1-2 0-.6.9-17 1.2-72.8 1.4l-71.9.3-.2 18.4c-.1 10-.4 18.6-.7 18.9-.3.3-.6-16.2-.6-36.6 0-23.6.4-37.3 1-37.7.6-.4 1-7.5 1-18.1V1066h36v18.5zm-763.3 10.7c-.3.7-.5.2-.5-1.2s.2-1.9.5-1.3c.2.7.2 1.9 0 2.5zm99 5.4c-.3.3-1.2.4-1.9.1-.8-.3-.5-.6.6-.6 1.1-.1 1.7.2 1.3.5zm847.3 2.1c0 .5 22.8.6 50.7.3 28-.3 51.2-.3 51.6-.2.4.2 9.1.4 19.3.3h18.4v16.8c0 16.6 0 16.9-2.2 17.5-1.3.3-32.7.6-69.7.6-52.5 0-67.2-.3-66.3-1.2.8-.8 1.2-6 1.2-16.9 0-15.3-.1-15.8-2-15.6-2 .1-2.1.7-1.9 16.7 0 9.1-.2 16.3-.6 16-.5-.4-.8-21.5-.5-34.3 0-.4.5-.7 1-.7.6 0 1 .3 1 .7zm-975.7 30.8c1 1.4.6 30.5-.4 30.5-.5 0-.9-.4-.9-1 0-.5-5.6-1.1-13.6-1.2l-13.5-.3v-13.7c0-7.6.2-14.1.4-14.5.8-1.2 27.1-1 28 .2zm374.6 14-.5 13-.2-12.6c-.1-6.9.1-12.9.5-13.2.9-.9.9-1.7.2 12.8zm347.9 14.6c-.1 10-.5 15.9-1.2 15.9-.5 0-.1.7 1 1.5 1.9 1.4 1.9 1.4-.1 1.6-6 .4 7.8 1.8 18 1.8H809c1.3.1 1.5 2.2 1.4 13.1 0 7.1-.3 13.2-.5 13.5-.7.6-105 .7-105.7 0-.3-.3 1.8-.5 4.6-.5h5.2v-30.9l15.8-.3 15.7-.3.3-15.7c.3-18.4-2-16.4 18.4-16l13.8.3-.2 16zm-345.8.5c0 .2-.7.4-1.5.4s-1.5-.4-1.5-1c0-.5.7-.7 1.5-.4.8.4 1.5.8 1.5 1zm-387.7 3.1c-2.4.2-6.2.2-8.5 0-2.4-.2-.5-.4 4.2-.4s6.6.2 4.3.4zm380.5-.1c1.2.4 2.2 1 2.2 1.6 0 .5-.8.4-1.9-.2-2.8-1.4-24.4-1.3-25.9.2-.8.8-1.2.9-1.2.1 0-.6.6-1.4 1.3-1.6 1.7-.8 22.8-.8 25.5-.1zM364 1167c0 .5-.2 1-.4 1-.3 0-.8-.5-1.1-1-.3-.6-.1-1 .4-1 .6 0 1.1.4 1.1 1zm588.5 7.6c1.9.5 2 1.3 1.8 16.7-.1 8.9-.2 16.8-.2 17.4-.1 1-11.4 1.3-53.1 1.3h-53v-36h51.3c28.1 0 52.1.3 53.2.6zm290.9 1c.8 2 .8 30.8 0 32.8-.5 1.4-13.1 1.6-126 1.6H992v-36h125.4c112.9 0 125.5.2 126 1.6zm-432.4 4.2c0 2-.4 2.3-2.2 1.8-1.3-.3-7.9-.7-14.8-.8l-12.5-.2 14.5-.6 14.5-.6-15.8-.2c-10.8-.1-15.6-.5-15.2-1.3.5-.6 6.2-.9 16.1-.8l15.4.2v2.5zm-328.7 1.9c-3.5.2-9.1.2-12.5 0-3.5-.2-.7-.3 6.2-.3s9.7.1 6.3.3zm-53.8 12.5 28 .3-27 .3c-27.7.3-31.5 0-31.5-2 0-.9.3-.9 1.2 0 .9.9 9 1.3 29.3 1.4zm34.2 0c-.3.8-.6.5-.6-.6-.1-1.1.2-1.7.5-1.3.3.3.4 1.2.1 1.9zm-2.7.4c0 .8-.4 1.2-1 .9-.5-.3-1-1-1-1.6 0-.5.5-.9 1-.9.6 0 1 .7 1 1.6zm-65 3.9c0 .8-.2 1.5-.4 1.5s-.6-.7-1-1.5c-.3-.8-.1-1.5.4-1.5.6 0 1 .7 1 1.5zm270.7 44.2c-.7.7-13.9.4-14.6-.3-.2-.2 3.1-.4 7.4-.4 4.3 0 7.5.3 7.2.7zM655 1245c0 .5-.5 1-1.1 1-.5 0-.7-.5-.4-1 .3-.6.8-1 1.1-1 .2 0 .4.4.4 1zm-3.3 2.2c-.3.8-.6.5-.6-.6-.1-1.1.2-1.7.5-1.3.3.3.4 1.2.1 1.9z"/><path d="m425 78-88.5.5 92.3.5c50.7.3 92.2.2 92.2-.1 0-1.3-8.7-1.4-96-.9zM323 110c-1.2.8-1 1 .8 1 1.3 0 2-.4 1.7-1-.7-1.2-.6-1.2-2.5 0zM308.8 110.7c2.3.2 5.9.2 8 0 2-.2.1-.4-4.3-.4-4.4 0-6.1.2-3.7.4zM329.5 111c.4.6 1.1.8 1.6.5 1.4-.9 1.1-1.5-.7-1.5-.8 0-1.2.5-.9 1zM276.3 141.7c2 .2 5.4.2 7.5 0 2-.2.3-.4-3.8-.4s-5.8.2-3.7.4zM290.8 141.7c.6.2 1.8.2 2.5 0 .6-.3.1-.5-1.3-.5-1.4 0-1.9.2-1.2.5zM297 142.4c0 .9.7 1.6 1.6 1.6.9 0 1.4-.5 1.2-1.2-.6-1.8-2.8-2.1-2.8-.4zM493 470.5v15.4l15.5.3 15.5.3.3 15.8.2 15.7H430v31h157v-31h-32.1l.3-15.8.3-15.7 15.8-.3 15.7-.3V455h-94v15.5zM727 490v32h31.9l.1-32v-32h-32v32zM854.2 489.7l.3 31.8 15.8.3 15.7.3V458h-32l.2 31.7zM398 502.5v15.6l15.3-.3 15.2-.3.3-15.3.3-15.2H398v15.5zM183.5 627.1c-1 1.5.1 2.3 2 1.5.9-.3 1.3-1 1-1.6-.8-1.3-2.2-1.3-3 .1zM183.8 633.2c.5.5 1.6.8 2.3.6.8-.3.3-.7-1-1.1-1.7-.4-2.1-.3-1.3.5zM190.8 633.7c.7.3 1.6.2 1.9-.1.4-.3-.2-.6-1.3-.5-1.1 0-1.4.3-.6.6zM713 641c0 .5.5 1 1 1 .6 0 1-.5 1-1 0-.6-.4-1-1-1-.5 0-1 .4-1 1zM699.3 641.7c2.6.2 6.7.2 9 0s.2-.3-4.8-.3c-4.9 0-6.8.1-4.2.3zM882.3 648.5c0 4.4.2 6.1.4 3.7.2-2.3.2-5.9 0-8-.2-2-.4-.1-.4 4.3zM698.3 643.7c1.5.2 3.9.2 5.5 0 1.5-.2.2-.4-2.8-.4s-4.3.2-2.7.4zM721 670.1c0 .5.5.7 1 .4.6-.3 1-.8 1-1.1 0-.2-.4-.4-1-.4-.5 0-1 .5-1 1.1zM726.5 670c-.3.5-.1 1 .4 1 .6 0 1.1-.5 1.1-1 0-.6-.2-1-.4-1-.3 0-.8.4-1.1 1zM729 688c0 9.3.4 15 1 15s1-5.7 1-15-.4-15-1-15-1 5.7-1 15zM960.1 715.6c0 1.1.3 1.4.6.6.3-.7.2-1.6-.1-1.9-.3-.4-.6.2-.5 1.3zM960.8 727.7c-.2 5.4-.2 10 0 10.3.2.2 7 .5 15.3.5l14.9.1V718h-29.9l-.3 9.7zM716.8 736.7c6.8.2 17.6.2 24 0 6.4-.1.9-.3-12.3-.3-13.2 0-18.5.2-11.7.3zM778.8 736.7c.6.2 1.8.2 2.5 0 .6-.3.1-.5-1.3-.5-1.4 0-1.9.2-1.2.5zM837.3 739.7c-7.3.2-13.3.7-13.3 1.1 0 .4 6.1.7 13.5.7 10.1 0 13.5-.3 13.5-1.3 0-.6-.1-1.1-.2-1-.2.1-6.3.4-13.5.5zM960.5 741c.4.6 6.7 1 15.6 1 9.3 0 14.9-.4 14.9-1s-5.9-1-15.6-1c-10.1 0-15.3.3-14.9 1zM958.8 813.6c-.2 19.6 0 36 .3 36.5.3.6 7.8.8 17.5.7l16.9-.3.3-35.4c.2-27.7-.1-35.6-1-36.3-.7-.4-8.6-.8-17.5-.8H959l-.2 35.6zM897.3 780.7c4.8.2 12.5.2 17 0 4.5-.1.6-.3-8.8-.3-9.3 0-13 .2-8.2.3zM1066.1 782.6c0 1.1.3 1.4.6.6.3-.7.2-1.6-.1-1.9-.3-.4-.6.2-.5 1.3zM904.5 782.7l15.5.4v8.8c0 6.4-.4 9.2-1.4 10-1.8 1.5-3.4-.5-1.7-2.2.6-.6 1.1-4.3 1.1-8.2v-7.2l-12.1-.2-12-.2.3 12.1.3 12h8.2c4.9 0 8.3-.4 8.3-1s-3-1-7-1-7-.4-7-1c0-1.7 12.8-1.2 15.6.7 3.9 2.5 1.3 3.3-11.6 3.3-10.8 0-11.6.1-11.6 2 0 1.8.9 1.9 15.8 2.2 8.7.2 15.8 0 15.8-.5 0-.4-1.2-.7-2.7-.8l-2.8-.1 2.5-.7 2.5-.7v-27.9h-15.8l-15.7-.1 15.5.3zm6.8 17.2c.4 0 .7.5.7 1.1 0 .6-3.3 1-8 1-7.1 0-9.1-.6-7.5-2.1.3-.4 12.3-.4 14.8 0zm6.8 7.4c-.1 1.2-1.5.9-1.9-.4-.3-.6.1-1 .8-.8.6.3 1.1.8 1.1 1.2z"/><path d="M890 796c0 7.3.4 12 1 12s1-4.7 1-12-.4-12-1-12-1 4.7-1 12zM1077.8 813.7c3.4.2 9 .2 12.5 0 3.4-.2.6-.3-6.3-.3-6.9 0-9.7.1-6.2.3zM781.1 860.6c0 1.1.3 1.4.6.6.3-.7.2-1.6-.1-1.9-.3-.4-.6.2-.5 1.3zM781.1 900.7 781 920h34.9l.3-17.8.3-17.7-17.2.3c-15.8.3-17.2.1-17.6-1.5-.3-1-.5 6.9-.6 17.4zM958 902.7l-.1 17.3h35.2l-.1-17.3-.2-17.2h-34.6l-.2 17.2zM241.3 916.7l.2 30.8 15.3.3 15.2.3V886h-30.9l.2 30.7zM334.2 916.7l.3 30.8 15.3.3 15.2.3V886h-31l.2 30.7zM335 1024.5v15.5h30v-31h-30v15.5zM397 1024.5v15.5h30v-31h-30v15.5zM273 1056v15h30v-30h-30v15zM176.4 651.5c0 6.6.1 9.2.3 5.7.2-3.4.2-8.8 0-12-.2-3.1-.3-.3-.3 6.3zM151.2 659.1c-.1 2.8.3 5 1.1 5.6.7.5 6.4.6 13.2.3l12-.6-12.7-.2-12.7-.2-.4-4.8-.3-4.7-.2 4.6zM831.7 669.7c-.3.5 2.7.7 6.6.5 12.9-.5 14.4-.9 4-1-5.6-.1-10.4.1-10.6.5zM822 687.9c0 13.2.3 16 1.5 16.5 1.3.5 1.5-1.7 1.5-15.9 0-14-.2-16.5-1.5-16.5s-1.5 2.4-1.5 15.9zM818.3 696c0 4.1.2 5.8.4 3.7.2-2 .2-5.4 0-7.5-.2-2-.4-.3-.4 3.8zM758.4 688c0 9.1.2 12.8.3 8.2.2-4.5.2-11.9 0-16.5-.1-4.5-.3-.8-.3 8.3zM122.3 671.7c1.5.2 3.7.2 5 0 1.2-.2 0-.4-2.8-.4-2.7 0-3.8.2-2.2.4zM142.8 671.7c.7.3 1.6.2 1.9-.1.4-.3-.2-.6-1.3-.5-1.1 0-1.4.3-.6.6zM144.5 691c.3.5.8 1 1.1 1 .2 0 .4-.5.4-1 0-.6-.5-1-1.1-1-.5 0-.7.4-.4 1zM126.3 696.7c3.7.2 9.6.2 13 0 3.4-.2.4-.3-6.8-.3-7.1 0-9.9.1-6.2.3zM849 1120v15l54.8.2c30.1.2 59.3.2 65 0l10.2-.3V1105H849v15zM980 1120c0 12.7.2 15 1.5 15s1.5-2.3 1.5-15-.2-15-1.5-15-1.5 2.3-1.5 15zM1169.4 1120c0 9.1.2 12.8.3 8.2.2-4.5.2-11.9 0-16.5-.1-4.5-.3-.8-.3 8.3zM1036 1120c0 12.5.2 15 1.5 15 1.1 0 1.5-1.7 1.8-7.3l.3-7.2.2 7.2.2 7.3h128v-30h-132v15zM777 1183.6c1.2.4 1.4 1.9 1.2 7.5-.2 4.4.1 7.5.8 8.4 1 1.2.9 1.6-.4 2.1-3.7 1.4.2 2.4 9.8 2.4 7 0 11.5-.5 14-1.5l3.6-1.5v-16.9l-10.7.2-10.8.2-.3 7.2c-.2 4.6.1 7.3.8 7.4.5.1 3.8.2 7.2.3 3.9.1 6.3.5 6.6 1.3.4 1.4-8.9 1.8-14.5.7-3-.6-3-.7-3.2-7.7-.2-9.2-.7-10.7-3.4-10.6-1.3.1-1.6.3-.7.5z"/><path d="M808 1194.6c0 10.1-.1 10.5-2 9.9-1.1-.4-2-.2-2 .4 0 .7-4.6 1.1-13.5 1.1-7.4 0-13.5.4-13.5.9 0 1.5 2 1.6 17.3 1.3l14.7-.3v-12c0-6.5-.2-11.9-.5-11.9s-.5 4.8-.5 10.6zM896.3 1176.7c-41.1.3-47.3.5-47.3 1.8s6 1.5 47 1.5c30.7 0 47 .3 47 1s-16.3 1-47 1h-47.1l.3 8.7.3 8.8h46.4c36.3 0 46.5.3 46.9 1.2.3 1-9.5 1.3-46.7 1.3-30.7 0-47.1.3-47.1 1s16.3 1 46.9 1c39.6 0 47.4-.2 50.5-1.5l3.6-1.5v-8.6c0-5.4.4-8.3 1-7.9.6.3 1 5 1 10.6 0 9.6-.1 10-2 9.4-1.1-.4-2-.2-2 .4 0 .8-15.1 1.1-49.5 1.1-32.3 0-49.5.3-49.5 1s18 1 52 1h52v-32l-4.7.2c-2.7.2-26.1.4-52 .5zm54.7 2.4c.8 0 .2.5-1.4.9-3.1 1-4.6.6-4.6-1.2 0-.6 1-.8 2.3-.4 1.2.3 2.9.6 3.7.7zM1208.9 1176.4c-.3.4-49.1.6-108.3.6-95.4 0-107.6.1-107.6 1.5 0 1.3 12 1.5 105.6 1.5 70.1 0 105.3.3 104.9 1-.4.7-36.7 1-105.6 1-69.3 0-104.9.3-104.9 1 0 .5.7 1 1.5 1 1.1 0 1.5 1.8 1.7 7.7.3 7.6.4 7.8 2.8 7.8s2.5-.3 2.8-7.3c.3-6.4.5-7.2 2.2-7.2 1.8 0 2 .7 2 7 0 3.9.4 7.1 1 7.1.6.1 51 .3 112 .4 61.1.1 111.5.3 112.1.4.5 0 .7.5.4 1.1-.4.7-41.3 1-119.6 1-78.6 0-118.9.3-118.9 1s40.5 1 119.5 1H1232l1.6-2.5c1.2-1.8 1.5-4.4 1.3-10.7-.4-8.1-.3-8.3 2-8.6 1.3-.2 2.8.2 3.2 1 1 1.5 1.2 19.5.3 18.5-.4-.3-.7-4.2-.8-8.6 0-4.8-.5-8-1.1-7.8-.6.1-1 4.4-.9 10.4l.1 10.3h-122.4c-81.5 0-122.3.3-122.3 1s40.7 1 122.1 1c67.1 0 122.4.2 122.9.5s1.1.1 1.5-.4c.3-.6 1.2-.8 1.9-.5 1.2.4 1.4-8.9.7-29.6-.1-1.2-1.4-1.6-5-1.8-2.8-.1-5.2.2-5.5.6-.5.8-11.2.6-18.1-.4-2.2-.3-4.3-.3-4.6 0zm31.1 2.6c0 .5-.7 1-1.6 1-.8 0-1.2-.5-.9-1 .3-.6 1-1 1.6-1 .5 0 .9.4.9 1zm-8.7 2.4c.3.8.3 1.7 0 2-1.1 1-14.1.7-14.8-.4-.3-.6-2.6-1-5-1s-4.7-.5-5-1c-.4-.6 3.8-1 11.8-1 9.8 0 12.6.3 13 1.4zM808.4 1264c0 9.1.2 12.8.3 8.2.2-4.5.2-11.9 0-16.5-.1-4.5-.3-.8-.3 8.3zM952.4 1264c0 9.1.2 12.8.3 8.2.2-4.5.2-11.9 0-16.5-.1-4.5-.3-.8-.3 8.3zM708 1264.5v15.5h6v-31h-6v15.5zM718 1264.5v15.5h88v-31h-88v15.5zM849 1264.5v15.5h101v-31H849v15.5zM996 1264.5v15.5h6v-31h-6v15.5zM1006 1264.5v15.5h229v-31h-229v15.5zM1237 1264.5c0 13.1.2 15.5 1.5 15.5s1.5-2.4 1.5-15.5-.2-15.5-1.5-15.5-1.5 2.4-1.5 15.5z"/></svg>