<svg width="1440" height="746" fill="none" xmlns="http://www.w3.org/2000/svg"><g clip-path="url('#clip0_293_10807')"><path fill="#F8F8F8" d="M0 0h1440v746H0z"/><g opacity=".15" clip-path="url('#clip1_293_10807')"><path d="M1461.75-129.985H15.91v963.892h1445.84v-963.892Z" fill="#EDEDED"/><path d="m14.41-28.308 62.978 36.36v-72.72L14.41-28.308Z" fill="#E3E3E3"/><path d="m14.36-28.308-62.977-36.36v72.72l62.977-36.36Z" fill="#F0F0F0"/><path d="M-48.617 8.048 14.36 44.404v-72.716l-62.977 36.36Z" fill="#D4D4D4"/><path d="m77.334 8.048-62.975-36.36v72.716L77.334 8.048ZM140.363-28.308l62.978 36.36v-72.72l-62.978 36.36Z" fill="#F7F7F7"/><path d="m140.31-28.308-62.978-36.36v72.72l62.978-36.36Z" fill="#F0F0F0"/><path d="m77.332 8.048 62.978 36.356v-72.716L77.332 8.047Z" fill="#E3E3E3"/><path d="m203.283 8.048-62.974-36.36v72.716l62.974-36.356Z" fill="#F7F7F7"/><path d="m266.312-28.308 62.975 36.36v-72.72l-62.975 36.36Z" fill="#F0F0F0"/><path d="m266.256-28.308-62.975-36.36v72.72l62.975-36.36Z" fill="#E3E3E3"/><path d="m203.281 8.048 62.975 36.356v-72.716l-62.975 36.36Z" fill="#D4D4D4"/><path d="m329.235 8.048-62.977-36.36v72.716l62.977-36.356Z" fill="#F0F0F0"/><path d="m392.262-28.308 62.974 36.36v-72.72l-62.974 36.36Z" fill="#D4D4D4"/><path d="m392.209-28.308-62.975-36.36v72.72l62.975-36.36Z" fill="#F0F0F0"/><path d="m329.234 8.048 62.975 36.356v-72.716l-62.975 36.36ZM455.185 8.048l-62.974-36.36v72.716l62.974-36.356ZM518.215-28.308l62.978 36.36v-72.72l-62.978 36.36Z" fill="#E3E3E3"/><path d="m518.165-28.308-62.977-36.36v72.72l62.977-36.36Z" fill="#F0F0F0"/><path d="m455.188 8.048 62.977 36.356v-72.716l-62.977 36.36Z" fill="#E3E3E3"/><path d="m581.138 8.048-62.974-36.36v72.716l62.974-36.356Z" fill="#E3E3E3"/><path d="m644.168-28.308 62.974 36.36v-72.72l-62.974 36.36Z" fill="#D4D4D4"/><path d="m644.111-28.308-62.974-36.36v72.72l62.974-36.36Z" fill="#E3E3E3"/><path d="m581.137 8.048 62.974 36.356v-72.716l-62.974 36.36Z" fill="#E3E3E3"/><path d="m707.091 8.048-62.978-36.36v72.716l62.978-36.356Z" fill="#F0F0F0"/><path d="m770.117-28.308 62.974 36.36v-72.72l-62.974 36.36Z" fill="#F7F7F7"/><path d="m770.06-28.308-62.974-36.36v72.72l62.974-36.36Z" fill="#E3E3E3"/><path d="m707.086 8.048 62.974 36.356v-72.716l-62.974 36.36ZM833.037 8.048l-62.975-36.36v72.716l62.975-36.356Z" fill="#F0F0F0"/><path d="m896.066-28.308 62.978 36.36v-72.72l-62.978 36.36Z" fill="#D4D4D4"/><path d="m896.017-28.308-62.978-36.36v72.72l62.978-36.36Z" fill="#E3E3E3"/><path d="m833.039 8.048 62.978 36.356v-72.716l-62.978 36.36Z" fill="#E3E3E3"/><path d="m958.99 8.048-62.974-36.36v72.716L958.99 8.048Z" fill="#D4D4D4"/><path d="m1022.02-28.308 62.97 36.36v-72.72l-62.97 36.36Z" fill="#E3E3E3"/><path d="m1021.97-28.308-62.978-36.36v72.72l62.978-36.36Z" fill="#D4D4D4"/><path d="m958.992 8.048 62.978 36.356v-72.716l-62.978 36.36Z" fill="#F0F0F0"/><path d="m1084.95 8.048-62.98-36.36v72.716l62.98-36.356Z" fill="#D4D4D4"/><path d="m1147.97-28.308 62.98 36.36v-72.72l-62.98 36.36ZM1147.92-28.308l-62.97-36.36v72.72l62.97-36.36Z" fill="#F0F0F0"/><path d="m1084.95 8.048 62.97 36.356v-72.716l-62.97 36.36Z" fill="#F0F0F0"/><path d="m1210.9 8.048-62.98-36.36v72.716l62.98-36.356Z" fill="#E3E3E3"/><path d="m1273.92-28.308 62.98 36.36v-72.72l-62.98 36.36ZM1273.87-28.308l-62.98-36.36v72.72l62.98-36.36Z" fill="#D4D4D4"/><path d="m1210.89 8.048 62.98 36.356v-72.716l-62.98 36.36Z" fill="#D4D4D4"/><path d="m1336.84 8.048-62.97-36.36v72.716l62.97-36.356Z" fill="#D4D4D4"/><path d="m1399.87-28.308 62.98 36.36v-72.72l-62.98 36.36Z" fill="#F0F0F0"/><path d="m1399.82-28.308-62.98-36.36v72.72l62.98-36.36Z" fill="#E3E3E3"/><path d="m1336.84 8.048 62.98 36.356v-72.716l-62.98 36.36Z" fill="#E3E3E3"/><path d="m1462.79 8.048-62.97-36.36v72.716l62.97-36.356Z" fill="#F0F0F0"/><path d="m14.36 44.405 62.974 36.36V8.048L14.359 44.405Z" fill="#F7F7F7"/><path d="m77.387 80.766 62.974 36.361v-72.72l-62.974 36.36ZM140.31 44.404 77.332 8.047v72.717l62.978-36.36Z" fill="#D4D4D4"/><path d="m77.334 80.766-62.975-36.36v72.721l62.975-36.36Z" fill="#F0F0F0"/><path d="m14.36 117.126 62.974 36.357V80.766l-62.975 36.36Z" fill="#F0F0F0"/><path d="m140.31 117.126-62.978-36.36v72.717l62.978-36.357ZM140.309 44.404l62.974 36.36V8.047l-62.974 36.357Z" fill="#F0F0F0"/><path d="m203.336 80.766 62.974 36.361v-72.72l-62.974 36.36Z" fill="#F7F7F7"/><path d="M266.256 44.404 203.281 8.047v72.717l62.975-36.36Z" fill="#E3E3E3"/><path d="m203.283 80.766-62.974-36.36v72.721l62.974-36.36Z" fill="#F0F0F0"/><path d="m140.309 117.126 62.974 36.357V80.766l-62.974 36.36Z" fill="#F7F7F7"/><path d="m266.256 117.126-62.975-36.36v72.717l62.975-36.357Z" fill="#F0F0F0"/><path d="m266.258 44.404 62.977 36.36V8.047l-62.977 36.357Z" fill="#F7F7F7"/><path d="m329.285 80.766 62.978 36.361v-72.72l-62.978 36.36ZM392.209 44.405 329.234 8.048v72.717l62.975-36.36Z" fill="#E3E3E3"/><path d="m329.235 80.766-62.977-36.36v72.721l62.977-36.36Z" fill="#F7F7F7"/><path d="m266.258 117.126 62.977 36.357V80.766l-62.977 36.36Z" fill="#E3E3E3"/><path d="m392.209 117.126-62.975-36.36v72.717l62.975-36.357Z" fill="#F0F0F0"/><path d="m392.211 44.405 62.974 36.36V8.048l-62.974 36.357Z" fill="#F7F7F7"/><path d="m455.238 80.766 62.974 36.361v-72.72l-62.974 36.36Z" fill="#E3E3E3"/><path d="M518.165 44.405 455.188 8.048v72.717l62.977-36.36Z" fill="#F0F0F0"/><path d="m455.185 80.766-62.974-36.36v72.721l62.974-36.36Z" fill="#E3E3E3"/><path d="m392.211 117.126 62.974 36.357V80.766l-62.974 36.36ZM518.165 117.126l-62.977-36.36v72.717l62.977-36.357ZM518.164 44.405l62.974 36.36V8.048l-62.974 36.357ZM581.191 80.766l62.975 36.361v-72.72l-62.975 36.36Z" fill="#F0F0F0"/><path d="M644.111 44.405 581.137 8.048v72.717l62.974-36.36Z" fill="#E3E3E3"/><path d="m581.138 80.766-62.974-36.36v72.721l62.974-36.36Z" fill="#F0F0F0"/><path d="m518.164 117.126 62.974 36.357V80.766l-62.974 36.36Z" fill="#D4D4D4"/><path d="m644.111 117.126-62.974-36.36v72.717l62.974-36.357Z" fill="#F0F0F0"/><path d="m644.113 44.404 62.978 36.36V8.047l-62.978 36.357Z" fill="#F7F7F7"/><path d="m707.141 80.766 62.977 36.361v-72.72l-62.977 36.36Z" fill="#F0F0F0"/><path d="M770.06 44.404 707.086 8.047v72.717l62.974-36.36Z" fill="#F7F7F7"/><path d="m707.091 80.766-62.978-36.36v72.721l62.978-36.36Z" fill="#E3E3E3"/><path d="m644.113 117.126 62.978 36.357V80.766l-62.978 36.36Z" fill="#D4D4D4"/><path d="m770.06 117.126-62.974-36.36v72.717l62.974-36.357Z" fill="#D4D4D4"/><path d="m770.062 44.404 62.975 36.36V8.047l-62.975 36.357ZM833.09 80.766l62.974 36.361v-72.72l-62.974 36.36Z" fill="#E3E3E3"/><path d="M896.017 44.405 833.039 8.048v72.717l62.978-36.36Z" fill="#F0F0F0"/><path d="m833.037 80.766-62.975-36.36v72.721l62.975-36.36Z" fill="#E3E3E3"/><path d="m770.062 117.126 62.975 36.357V80.766l-62.975 36.36Z" fill="#F0F0F0"/><path d="m896.017 117.126-62.978-36.36v72.717l62.978-36.357Z" fill="#E3E3E3"/><path d="m896.016 44.405 62.974 36.36V8.048l-62.974 36.357Z" fill="#F0F0F0"/><path d="m959.043 80.766 62.977 36.361v-72.72l-62.977 36.36Z" fill="#D4D4D4"/><path d="M1021.97 44.405 958.992 8.048v72.717l62.978-36.36ZM958.99 80.766l-62.974-36.36v72.721l62.974-36.36Z" fill="#F0F0F0"/><path d="m896.016 117.126 62.974 36.357V80.766l-62.974 36.36ZM1021.97 117.126l-62.978-36.36v72.717l62.978-36.357Z" fill="#F7F7F7"/><path d="m1021.97 44.405 62.98 36.36V8.048l-62.98 36.357Z" fill="#E3E3E3"/><path d="m1085 80.766 62.97 36.361v-72.72L1085 80.766ZM1147.92 44.405l-62.97-36.357v72.717l62.97-36.36Z" fill="#D4D4D4"/><path d="m1084.95 80.766-62.98-36.36v72.721l62.98-36.36Z" fill="#F0F0F0"/><path d="m1021.97 117.126 62.98 36.357V80.766l-62.98 36.36Z" fill="#E3E3E3"/><path d="m1147.92 117.126-62.97-36.36v72.717l62.97-36.357Z" fill="#F7F7F7"/><path d="m1147.92 44.404 62.98 36.36V8.047l-62.98 36.357Z" fill="#F0F0F0"/><path d="m1210.95 80.766 62.97 36.361v-72.72l-62.97 36.36Z" fill="#F7F7F7"/><path d="m1273.87 44.404-62.98-36.357v72.717l62.98-36.36Z" fill="#D4D4D4"/><path d="m1210.9 80.766-62.98-36.36v72.721l62.98-36.36Z" fill="#F0F0F0"/><path d="m1147.92 117.126 62.98 36.357V80.766l-62.98 36.36Z" fill="#F7F7F7"/><path d="m1273.87 117.126-62.98-36.36v72.717l62.98-36.357Z" fill="#F7F7F7"/><path d="m1273.87 44.404 62.97 36.36V8.047l-62.97 36.357Z" fill="#F0F0F0"/><path d="m1336.9 80.766 62.97 36.361v-72.72l-62.97 36.36Z" fill="#D4D4D4"/><path d="m1399.82 44.404-62.98-36.357v72.717l62.98-36.36ZM1336.84 80.766l-62.97-36.36v72.721l62.97-36.36Z" fill="#E3E3E3"/><path d="m1273.87 117.126 62.97 36.357V80.766l-62.97 36.36ZM1399.82 117.126l-62.98-36.36v72.717l62.98-36.357Z" fill="#F7F7F7"/><path d="m1399.82 44.405 62.97 36.36V8.048l-62.97 36.357Z" fill="#E3E3E3"/><path d="m1462.79 80.766-62.97-36.36v72.721l62.97-36.36Z" fill="#F7F7F7"/><path d="m1399.82 117.126 62.97 36.357V80.766l-62.97 36.36Z" fill="#D4D4D4"/><path d="m-48.617 153.478 62.977 36.36v-72.717l-62.977 36.357Z" fill="#E3E3E3"/><path d="m14.41 189.838 62.978 36.36v-72.72l-62.978 36.36ZM77.334 153.478l-62.975-36.357v72.717l62.975-36.36Z" fill="#F0F0F0"/><path d="m14.36 189.838-62.977-36.36v72.72l62.977-36.36Z" fill="#D4D4D4"/><path d="m-48.617 226.196 62.977 36.357v-72.717l-62.977 36.36Z" fill="#F7F7F7"/><path d="m77.334 226.196-62.975-36.36v72.717l62.975-36.357ZM77.332 153.478l62.978 36.36v-72.717l-62.978 36.357Z" fill="#F7F7F7"/><path d="m140.363 189.837 62.978 36.36v-72.72l-62.978 36.36Z" fill="#F0F0F0"/><path d="m203.283 153.478-62.974-36.357v72.717l62.974-36.36Z" fill="#D4D4D4"/><path d="m140.31 189.837-62.978-36.36v72.72l62.978-36.36Z" fill="#D4D4D4"/><path d="m77.332 226.196 62.978 36.357v-72.717l-62.978 36.36Z" fill="#E3E3E3"/><path d="m203.283 226.196-62.974-36.36v72.717l62.974-36.357ZM203.281 153.478l62.975 36.36v-72.717l-62.975 36.357ZM266.312 189.837l62.975 36.36v-72.72l-62.975 36.36Z" fill="#F0F0F0"/><path d="m329.235 153.478-62.977-36.357v72.717l62.977-36.36Z" fill="#E3E3E3"/><path d="m266.256 189.837-62.975-36.36v72.72l62.975-36.36Z" fill="#F0F0F0"/><path d="m203.281 226.196 62.975 36.357v-72.717l-62.975 36.36Z" fill="#D4D4D4"/><path d="m329.235 226.196-62.977-36.36v72.717l62.977-36.357ZM329.234 153.478l62.975 36.36v-72.717l-62.975 36.357ZM392.262 189.837l62.974 36.36v-72.72l-62.974 36.36ZM455.185 153.478l-62.974-36.357v72.717l62.974-36.36Z" fill="#F0F0F0"/><path d="m392.209 189.838-62.975-36.36v72.72l62.975-36.36Z" fill="#F0F0F0"/><path d="m329.234 226.196 62.975 36.357v-72.717l-62.975 36.36Z" fill="#F7F7F7"/><path d="m455.185 226.196-62.974-36.36v72.717l62.974-36.357ZM455.188 153.478l62.977 36.36v-72.717l-62.977 36.357Z" fill="#D4D4D4"/><path d="m518.215 189.838 62.978 36.36v-72.72l-62.978 36.36ZM581.138 153.478l-62.974-36.357v72.717l62.974-36.36Z" fill="#F0F0F0"/><path d="m518.165 189.838-62.977-36.36v72.72l62.977-36.36Z" fill="#F0F0F0"/><path d="m455.188 226.196 62.977 36.357v-72.717l-62.977 36.36Z" fill="#E3E3E3"/><path d="m581.138 226.196-62.974-36.36v72.717l62.974-36.357Z" fill="#E3E3E3"/><path d="m581.137 153.478 62.974 36.36v-72.717l-62.974 36.357Z" fill="#F0F0F0"/><path d="m644.168 189.838 62.974 36.36v-72.72l-62.974 36.36Z" fill="#E3E3E3"/><path d="m707.091 153.478-62.978-36.357v72.717l62.978-36.36Z" fill="#F7F7F7"/><path d="m644.111 189.838-62.974-36.36v72.72l62.974-36.36Z" fill="#E3E3E3"/><path d="m581.137 226.196 62.974 36.357v-72.717l-62.974 36.36Z" fill="#E3E3E3"/><path d="m707.091 226.196-62.978-36.36v72.717l62.978-36.357Z" fill="#F0F0F0"/><path d="m707.086 153.478 62.974 36.36v-72.717l-62.974 36.357ZM770.117 189.837l62.974 36.36v-72.72l-62.974 36.36Z" fill="#E3E3E3"/><path d="m833.037 153.478-62.975-36.357v72.717l62.975-36.36Z" fill="#F0F0F0"/><path d="m770.06 189.837-62.974-36.36v72.72l62.974-36.36Z" fill="#D4D4D4"/><path d="m707.086 226.196 62.974 36.357v-72.717l-62.974 36.36Z" fill="#D4D4D4"/><path d="m833.037 226.196-62.975-36.36v72.717l62.975-36.357Z" fill="#F7F7F7"/><path d="m833.039 153.478 62.978 36.36v-72.717l-62.978 36.357ZM896.066 189.837l62.978 36.36v-72.72l-62.978 36.36Z" fill="#F0F0F0"/><path d="m958.99 153.478-62.974-36.357v72.717l62.974-36.36Z" fill="#F0F0F0"/><path d="m896.017 189.838-62.978-36.36v72.72l62.978-36.36Z" fill="#E3E3E3"/><path d="m833.039 226.196 62.978 36.357v-72.717l-62.978 36.36Z" fill="#F7F7F7"/><path d="m958.99 226.196-62.974-36.36v72.717l62.974-36.357Z" fill="#F7F7F7"/><path d="m958.992 153.478 62.978 36.36v-72.717l-62.978 36.357Z" fill="#E3E3E3"/><path d="m1022.02 189.838 62.97 36.36v-72.72l-62.97 36.36Z" fill="#F7F7F7"/><path d="m1084.95 153.478-62.98-36.357v72.717l62.98-36.36Z" fill="#F0F0F0"/><path d="m1021.97 189.838-62.978-36.36v72.72l62.978-36.36Z" fill="#D4D4D4"/><path d="m958.992 226.196 62.978 36.357v-72.717l-62.978 36.36ZM1084.95 226.196l-62.98-36.36v72.717l62.98-36.357ZM1084.95 153.478l62.97 36.36v-72.717l-62.97 36.357Z" fill="#F0F0F0"/><path d="m1147.97 189.838 62.98 36.36v-72.72l-62.98 36.36Z" fill="#F7F7F7"/><path d="m1210.9 153.478-62.98-36.357v72.717l62.98-36.36Z" fill="#F0F0F0"/><path d="m1147.92 189.838-62.97-36.36v72.72l62.97-36.36Z" fill="#E3E3E3"/><path d="m1084.95 226.196 62.97 36.357v-72.717l-62.97 36.36ZM1210.9 226.196l-62.98-36.36v72.717l62.98-36.357Z" fill="#F7F7F7"/><path d="m1210.89 153.478 62.98 36.36v-72.717l-62.98 36.357ZM1273.92 189.837l62.98 36.36v-72.72l-62.98 36.36Z" fill="#E3E3E3"/><path d="m1336.84 153.478-62.97-36.357v72.717l62.97-36.36Z" fill="#F0F0F0"/><path d="m1273.87 189.837-62.98-36.36v72.72l62.98-36.36Z" fill="#F7F7F7"/><path d="m1210.89 226.196 62.98 36.357v-72.717l-62.98 36.36Z" fill="#D4D4D4"/><path d="m1336.84 226.196-62.97-36.36v72.717l62.97-36.357Z" fill="#F0F0F0"/><path d="m1336.84 153.478 62.98 36.36v-72.717l-62.98 36.357Z" fill="#E3E3E3"/><path d="m1399.87 189.837 62.98 36.36v-72.72l-62.98 36.36ZM1462.79 153.478l-62.97-36.357v72.717l62.97-36.36Z" fill="#F0F0F0"/><path d="m1399.82 189.837-62.98-36.36v72.72l62.98-36.36Z" fill="#F7F7F7"/><path d="m1336.84 226.196 62.98 36.357v-72.717l-62.98 36.36Z" fill="#E3E3E3"/><path d="m1462.79 226.196-62.97-36.36v72.717l62.97-36.357Z" fill="#F7F7F7"/><path d="m14.36 262.564 62.974 36.36v-72.717l-62.975 36.357Z" fill="#D4D4D4"/><path d="m77.387 298.923 62.974 36.356v-72.717l-62.974 36.361Z" fill="#F0F0F0"/><path d="m140.31 262.564-62.978-36.357v72.717l62.978-36.36Z" fill="#E3E3E3"/><path d="m77.334 298.923-62.975-36.361v72.717l62.975-36.356Z" fill="#D4D4D4"/><path d="m14.36 335.279 62.974 36.36v-72.717l-62.975 36.357Z" fill="#F0F0F0"/><path d="m140.31 335.279-62.978-36.357v72.717l62.978-36.36ZM140.309 262.564l62.974 36.36v-72.717l-62.974 36.357Z" fill="#E3E3E3"/><path d="m203.336 298.923 62.974 36.356v-72.717l-62.974 36.361ZM266.256 262.564l-62.975-36.357v72.717l62.975-36.36Z" fill="#F0F0F0"/><path d="m203.283 298.923-62.974-36.361v72.717l62.974-36.356Z" fill="#F7F7F7"/><path d="m140.309 335.279 62.974 36.36v-72.717l-62.974 36.357Z" fill="#F7F7F7"/><path d="m266.256 335.279-62.975-36.357v72.717l62.975-36.36Z" fill="#F7F7F7"/><path d="m266.258 262.564 62.977 36.36v-72.717l-62.977 36.357Z" fill="#E3E3E3"/><path d="m329.285 298.923 62.978 36.356v-72.717l-62.978 36.361Z" fill="#F0F0F0"/><path d="m392.209 262.564-62.975-36.357v72.717l62.975-36.36Z" fill="#E3E3E3"/><path d="m329.235 298.923-62.977-36.361v72.717l62.977-36.356Z" fill="#F0F0F0"/><path d="m266.258 335.279 62.977 36.36v-72.717l-62.977 36.357Z" fill="#E3E3E3"/><path d="m392.209 335.279-62.975-36.357v72.717l62.975-36.36Z" fill="#E3E3E3"/><path d="m392.211 262.564 62.974 36.36v-72.717l-62.974 36.357Z" fill="#D4D4D4"/><path d="m455.238 298.923 62.974 36.356v-72.717l-62.974 36.361Z" fill="#F0F0F0"/><path d="m518.165 262.564-62.977-36.357v72.717l62.977-36.36Z" fill="#E3E3E3"/><path d="m455.185 298.923-62.974-36.361v72.717l62.974-36.356Z" fill="#D4D4D4"/><path d="m392.211 335.279 62.974 36.36v-72.717l-62.974 36.357Z" fill="#F0F0F0"/><path d="m518.165 335.279-62.977-36.357v72.717l62.977-36.36Z" fill="#E3E3E3"/><path d="m518.164 262.564 62.974 36.36v-72.717l-62.974 36.357ZM581.191 298.923l62.975 36.356v-72.717l-62.975 36.361Z" fill="#F0F0F0"/><path d="m644.111 262.564-62.974-36.357v72.717l62.974-36.36Z" fill="#D4D4D4"/><path d="m581.138 298.923-62.974-36.361v72.717l62.974-36.356Z" fill="#F0F0F0"/><path d="m518.164 335.279 62.974 36.36v-72.717l-62.974 36.357Z" fill="#F0F0F0"/><path d="m644.111 335.279-62.974-36.357v72.717l62.974-36.36Z" fill="#E3E3E3"/><path d="m644.113 262.564 62.978 36.36v-72.717l-62.978 36.357Z" fill="#F0F0F0"/><path d="m707.141 298.923 62.977 36.356v-72.717l-62.977 36.361Z" fill="#F7F7F7"/><path d="m770.06 262.564-62.974-36.357v72.717l62.974-36.36Z" fill="#F0F0F0"/><path d="m707.091 298.923-62.978-36.361v72.717l62.978-36.356Z" fill="#F7F7F7"/><path d="m644.113 335.279 62.978 36.36v-72.717l-62.978 36.357Z" fill="#F0F0F0"/><path d="m770.06 335.279-62.974-36.357v72.717l62.974-36.36Z" fill="#F7F7F7"/><path d="m770.062 262.564 62.975 36.36v-72.717l-62.975 36.357Z" fill="#F0F0F0"/><path d="m833.09 298.923 62.974 36.356v-72.717l-62.974 36.361Z" fill="#D4D4D4"/><path d="m896.017 262.564-62.978-36.357v72.717l62.978-36.36ZM833.037 298.923l-62.975-36.361v72.717l62.975-36.356Z" fill="#E3E3E3"/><path d="m770.062 335.279 62.975 36.36v-72.717l-62.975 36.357Z" fill="#F0F0F0"/><path d="m896.017 335.279-62.978-36.357v72.717l62.978-36.36Z" fill="#F7F7F7"/><path d="m896.016 262.564 62.974 36.36v-72.717l-62.974 36.357Z" fill="#F0F0F0"/><path d="m959.043 298.923 62.977 36.356v-72.717l-62.977 36.361Z" fill="#E3E3E3"/><path d="m1021.97 262.564-62.978-36.357v72.717l62.978-36.36Z" fill="#F0F0F0"/><path d="m958.99 298.923-62.974-36.361v72.717l62.974-36.356Z" fill="#F7F7F7"/><path d="m896.016 335.279 62.974 36.36v-72.717l-62.974 36.357Z" fill="#F0F0F0"/><path d="m1021.97 335.279-62.978-36.357v72.717l62.978-36.36Z" fill="#F7F7F7"/><path d="m1021.97 262.564 62.98 36.36v-72.717l-62.98 36.357ZM1085 298.923l62.97 36.356v-72.717L1085 298.923ZM1147.92 262.564l-62.97-36.357v72.717l62.97-36.36Z" fill="#F0F0F0"/><path d="m1084.95 298.923-62.98-36.361v72.717l62.98-36.356Z" fill="#F7F7F7"/><path d="m1021.97 335.279 62.98 36.36v-72.717l-62.98 36.357ZM1147.92 335.279l-62.97-36.357v72.717l62.97-36.36ZM1147.92 262.564l62.98 36.36v-72.717l-62.98 36.357ZM1210.95 298.923l62.97 36.356v-72.717l-62.97 36.361Z" fill="#F0F0F0"/><path d="m1273.87 262.564-62.98-36.357v72.717l62.98-36.36Z" fill="#D4D4D4"/><path d="m1210.9 298.923-62.98-36.361v72.717l62.98-36.356Z" fill="#F7F7F7"/><path d="m1147.92 335.279 62.98 36.36v-72.717l-62.98 36.357Z" fill="#F7F7F7"/><path d="m1273.87 335.279-62.98-36.357v72.717l62.98-36.36Z" fill="#F0F0F0"/><path d="m1273.87 262.564 62.97 36.36v-72.717l-62.97 36.357Z" fill="#F7F7F7"/><path d="m1336.9 298.923 62.97 36.356v-72.717l-62.97 36.361Z" fill="#E3E3E3"/><path d="m1399.82 262.564-62.98-36.357v72.717l62.98-36.36Z" fill="#F0F0F0"/><path d="m1336.84 298.923-62.97-36.361v72.717l62.97-36.356Z" fill="#D4D4D4"/><path d="m1273.87 335.279 62.97 36.36v-72.717l-62.97 36.357Z" fill="#F7F7F7"/><path d="m1399.82 335.279-62.98-36.357v72.717l62.98-36.36ZM1399.82 262.564l62.97 36.36v-72.717l-62.97 36.357Z" fill="#F0F0F0"/><path d="m1462.79 298.923-62.97-36.361v72.717l62.97-36.356Z" fill="#D4D4D4"/><path d="m1399.82 335.279 62.97 36.36v-72.717l-62.97 36.357ZM-48.617 371.64l62.977 36.361V335.28l-62.977 36.36Z" fill="#F0F0F0"/><path d="m14.41 408.001 62.978 36.357v-72.717l-62.978 36.36Z" fill="#E3E3E3"/><path d="m77.334 371.64-62.975-36.36v72.721l62.975-36.361Z" fill="#F7F7F7"/><path d="m14.36 408.001-62.977-36.36v72.717l62.977-36.357Z" fill="#F0F0F0"/><path d="m-48.617 444.353 62.977 36.36v-72.717l-62.977 36.357Z" fill="#F7F7F7"/><path d="m77.334 444.353-62.975-36.357v72.717l62.975-36.36ZM77.332 371.641l62.978 36.361v-72.721l-62.978 36.36ZM140.363 408.001l62.978 36.357v-72.717l-62.978 36.36Z" fill="#E3E3E3"/><path d="m203.283 371.641-62.974-36.36v72.721l62.974-36.361Z" fill="#F7F7F7"/><path d="m140.31 408.001-62.978-36.36v72.717l62.978-36.357Z" fill="#E3E3E3"/><path d="m77.332 444.353 62.978 36.36v-72.717l-62.978 36.357Z" fill="#F0F0F0"/><path d="m203.283 444.353-62.974-36.357v72.717l62.974-36.36ZM203.281 371.641l62.975 36.361v-72.721l-62.975 36.36Z" fill="#E3E3E3"/><path d="m266.312 408.001 62.975 36.357v-72.717l-62.975 36.36Z" fill="#D4D4D4"/><path d="m329.235 371.641-62.977-36.36v72.721l62.977-36.361ZM266.256 408.001l-62.975-36.36v72.717l62.975-36.357Z" fill="#E3E3E3"/><path d="m203.281 444.353 62.975 36.36v-72.717l-62.975 36.357Z" fill="#D4D4D4"/><path d="m329.235 444.353-62.977-36.357v72.717l62.977-36.36ZM329.234 371.64l62.975 36.361V335.28l-62.975 36.36ZM392.262 408.001l62.974 36.357v-72.717l-62.974 36.36Z" fill="#F0F0F0"/><path d="m455.185 371.64-62.974-36.36v72.721l62.974-36.361Z" fill="#E3E3E3"/><path d="m392.209 408.001-62.975-36.36v72.717l62.975-36.357Z" fill="#F0F0F0"/><path d="m329.234 444.353 62.975 36.36v-72.717l-62.975 36.357Z" fill="#E3E3E3"/><path d="m455.185 444.353-62.974-36.357v72.717l62.974-36.36Z" fill="#F0F0F0"/><path d="m455.188 371.64 62.977 36.361V335.28l-62.977 36.36Z" fill="#E3E3E3"/><path d="m518.215 408.001 62.978 36.357v-72.717l-62.978 36.36Z" fill="#D4D4D4"/><path d="m581.138 371.64-62.974-36.36v72.721l62.974-36.361Z" fill="#F0F0F0"/><path d="m518.165 408.001-62.977-36.36v72.717l62.977-36.357Z" fill="#F0F0F0"/><path d="m455.188 444.353 62.977 36.36v-72.717l-62.977 36.357Z" fill="#F0F0F0"/><path d="m581.138 444.353-62.974-36.357v72.717l62.974-36.36ZM581.137 371.64l62.974 36.361V335.28l-62.974 36.36Z" fill="#F7F7F7"/><path d="m644.168 408.001 62.974 36.357v-72.717l-62.974 36.36ZM707.091 371.641l-62.978-36.36v72.721l62.978-36.361Z" fill="#E3E3E3"/><path d="m644.111 408.001-62.974-36.36v72.717l62.974-36.357Z" fill="#F7F7F7"/><path d="m581.137 444.353 62.974 36.36v-72.717l-62.974 36.357Z" fill="#F7F7F7"/><path d="m707.091 444.353-62.978-36.357v72.717l62.978-36.36Z" fill="#D4D4D4"/><path d="m707.086 371.641 62.974 36.361v-72.721l-62.974 36.36Z" fill="#E3E3E3"/><path d="m770.117 408.001 62.974 36.357v-72.717l-62.974 36.36Z" fill="#F0F0F0"/><path d="m833.037 371.641-62.975-36.36v72.721l62.975-36.361Z" fill="#E3E3E3"/><path d="m770.06 408.001-62.974-36.36v72.717l62.974-36.357Z" fill="#F7F7F7"/><path d="m707.086 444.353 62.974 36.36v-72.717l-62.974 36.357Z" fill="#D4D4D4"/><path d="m833.037 444.353-62.975-36.357v72.717l62.975-36.36Z" fill="#E3E3E3"/><path d="m833.039 371.64 62.978 36.361V335.28l-62.978 36.36ZM896.066 408.001l62.978 36.357v-72.717l-62.978 36.36Z" fill="#D4D4D4"/><path d="m958.99 371.64-62.974-36.36v72.721l62.974-36.361Z" fill="#E3E3E3"/><path d="m896.017 408.001-62.978-36.36v72.717l62.978-36.357Z" fill="#F0F0F0"/><path d="m833.039 444.353 62.978 36.36v-72.717l-62.978 36.357Z" fill="#F0F0F0"/><path d="m958.99 444.353-62.974-36.357v72.717l62.974-36.36ZM958.992 371.64l62.978 36.361V335.28l-62.978 36.36Z" fill="#F0F0F0"/><path d="m1022.02 408.001 62.97 36.357v-72.717l-62.97 36.36Z" fill="#F7F7F7"/><path d="m1084.95 371.64-62.98-36.36v72.721l62.98-36.361Z" fill="#D4D4D4"/><path d="m1021.97 408.001-62.978-36.36v72.717l62.978-36.357Z" fill="#F0F0F0"/><path d="m958.992 444.353 62.978 36.36v-72.717l-62.978 36.357Z" fill="#F7F7F7"/><path d="m1084.95 444.353-62.98-36.357v72.717l62.98-36.36Z" fill="#D4D4D4"/><path d="m1084.95 371.64 62.97 36.361V335.28l-62.97 36.36Z" fill="#F7F7F7"/><path d="m1147.97 408.001 62.98 36.357v-72.717l-62.98 36.36ZM1210.9 371.641l-62.98-36.36v72.721l62.98-36.361Z" fill="#E3E3E3"/><path d="m1147.92 408.001-62.97-36.36v72.717l62.97-36.357Z" fill="#F7F7F7"/><path d="m1084.95 444.353 62.97 36.36v-72.717l-62.97 36.357Z" fill="#F0F0F0"/><path d="m1210.9 444.353-62.98-36.357v72.717l62.98-36.36ZM1210.89 371.641l62.98 36.361v-72.721l-62.98 36.36Z" fill="#E3E3E3"/><path d="m1273.92 408.001 62.98 36.357v-72.717l-62.98 36.36ZM1336.84 371.641l-62.97-36.36v72.721l62.97-36.361ZM1273.87 408.001l-62.98-36.36v72.717l62.98-36.357Z" fill="#D4D4D4"/><path d="m1210.89 444.353 62.98 36.36v-72.717l-62.98 36.357Z" fill="#F7F7F7"/><path d="m1336.84 444.353-62.97-36.357v72.717l62.97-36.36ZM1336.84 371.641l62.98 36.361v-72.721l-62.98 36.36Z" fill="#F0F0F0"/><path d="m1399.87 408.001 62.98 36.357v-72.717l-62.98 36.36Z" fill="#D4D4D4"/><path d="m1462.79 371.64-62.97-36.36v72.721l62.97-36.361Z" fill="#F7F7F7"/><path d="m1399.82 408.001-62.98-36.36v72.717l62.98-36.357Z" fill="#E3E3E3"/><path d="m1336.84 444.353 62.98 36.36v-72.717l-62.98 36.357Z" fill="#E3E3E3"/><path d="m1462.79 444.353-62.97-36.357v72.717l62.97-36.36Z" fill="#F0F0F0"/><path d="m14.36 480.712 62.974 36.36v-72.72l-62.975 36.36Z" fill="#F7F7F7"/><path d="m77.387 517.071 62.974 36.356V480.71l-62.974 36.361Z" fill="#F0F0F0"/><path d="m140.31 480.712-62.978-36.36v72.72l62.978-36.36Z" fill="#E3E3E3"/><path d="M77.334 517.071 14.359 480.71v72.717l62.975-36.356Z" fill="#D4D4D4"/><path d="m14.36 553.427 62.974 36.36V517.07l-62.975 36.357Z" fill="#F7F7F7"/><path d="M140.31 553.427 77.332 517.07v72.717l62.978-36.36Z" fill="#F0F0F0"/><path d="m140.309 480.712 62.974 36.36v-72.72l-62.974 36.36ZM203.336 517.071l62.974 36.357v-72.717l-62.974 36.36Z" fill="#D4D4D4"/><path d="m266.256 480.712-62.975-36.36v72.72l62.975-36.36Z" fill="#E3E3E3"/><path d="m203.283 517.071-62.974-36.36v72.717l62.974-36.357Z" fill="#E3E3E3"/><path d="m140.309 553.427 62.974 36.36V517.07l-62.974 36.357Z" fill="#E3E3E3"/><path d="m266.256 553.427-62.975-36.357v72.717l62.975-36.36ZM266.258 480.712l62.977 36.36v-72.72l-62.977 36.36ZM329.285 517.071l62.978 36.357v-72.717l-62.978 36.36Z" fill="#E3E3E3"/><path d="m392.209 480.712-62.975-36.36v72.72l62.975-36.36Z" fill="#F7F7F7"/><path d="m329.235 517.071-62.977-36.36v72.717l62.977-36.357Z" fill="#E3E3E3"/><path d="m266.258 553.427 62.977 36.36V517.07l-62.977 36.357Z" fill="#F0F0F0"/><path d="m392.209 553.427-62.975-36.357v72.717l62.975-36.36Z" fill="#E3E3E3"/><path d="m392.211 480.712 62.974 36.36v-72.72l-62.974 36.36ZM455.238 517.071l62.974 36.356V480.71l-62.974 36.361Z" fill="#F0F0F0"/><path d="m518.165 480.712-62.977-36.36v72.72l62.977-36.36Z" fill="#E3E3E3"/><path d="m455.185 517.071-62.974-36.361v72.717l62.974-36.356Z" fill="#D4D4D4"/><path d="m392.211 553.427 62.974 36.36V517.07l-62.974 36.357Z" fill="#F0F0F0"/><path d="m518.165 553.427-62.977-36.357v72.717l62.977-36.36ZM518.164 480.712l62.974 36.36v-72.72l-62.974 36.36ZM581.191 517.071l62.975 36.356V480.71l-62.975 36.361Z" fill="#E3E3E3"/><path d="m644.111 480.712-62.974-36.36v72.72l62.974-36.36Z" fill="#E3E3E3"/><path d="m581.138 517.071-62.974-36.361v72.717l62.974-36.356Z" fill="#E3E3E3"/><path d="m518.164 553.427 62.974 36.36V517.07l-62.974 36.357Z" fill="#F0F0F0"/><path d="m644.111 553.427-62.974-36.357v72.717l62.974-36.36Z" fill="#E3E3E3"/><path d="m644.113 480.712 62.978 36.36v-72.72l-62.978 36.36ZM707.141 517.071l62.977 36.357v-72.717l-62.977 36.36Z" fill="#F0F0F0"/><path d="m770.06 480.712-62.974-36.36v72.72l62.974-36.36Z" fill="#F7F7F7"/><path d="m707.091 517.071-62.978-36.36v72.717l62.978-36.357Z" fill="#E3E3E3"/><path d="m644.113 553.427 62.978 36.36V517.07l-62.978 36.357Z" fill="#E3E3E3"/><path d="m770.06 553.427-62.974-36.357v72.717l62.974-36.36Z" fill="#F0F0F0"/><path d="m770.062 480.712 62.975 36.36v-72.72l-62.975 36.36Z" fill="#E3E3E3"/><path d="m833.09 517.071 62.974 36.357v-72.717l-62.974 36.36Z" fill="#F0F0F0"/><path d="m896.017 480.712-62.978-36.36v72.72l62.978-36.36Z" fill="#E3E3E3"/><path d="m833.037 517.071-62.975-36.36v72.717l62.975-36.357Z" fill="#F0F0F0"/><path d="m770.062 553.427 62.975 36.36V517.07l-62.975 36.357Z" fill="#F0F0F0"/><path d="m896.017 553.427-62.978-36.357v72.717l62.978-36.36Z" fill="#E3E3E3"/><path d="m896.016 480.712 62.974 36.36v-72.72l-62.974 36.36Z" fill="#D4D4D4"/><path d="m959.043 517.071 62.977 36.356V480.71l-62.977 36.361Z" fill="#F0F0F0"/><path d="m1021.97 480.712-62.978-36.36v72.72l62.978-36.36Z" fill="#F7F7F7"/><path d="m958.99 517.071-62.974-36.361v72.717l62.974-36.356Z" fill="#F0F0F0"/><path d="m896.016 553.427 62.974 36.36V517.07l-62.974 36.357Z" fill="#F7F7F7"/><path d="m1021.97 553.427-62.978-36.357v72.717l62.978-36.36Z" fill="#E3E3E3"/><path d="m1021.97 480.712 62.98 36.36v-72.72l-62.98 36.36Z" fill="#F0F0F0"/><path d="m1085 517.071 62.97 36.356V480.71L1085 517.071ZM1147.92 480.712l-62.97-36.36v72.72l62.97-36.36Z" fill="#F7F7F7"/><path d="m1084.95 517.071-62.98-36.361v72.717l62.98-36.356Z" fill="#D4D4D4"/><path d="m1021.97 553.427 62.98 36.36V517.07l-62.98 36.357Z" fill="#E3E3E3"/><path d="m1147.92 553.427-62.97-36.357v72.717l62.97-36.36Z" fill="#F7F7F7"/><path d="m1147.92 480.712 62.98 36.36v-72.72l-62.98 36.36ZM1210.95 517.071l62.97 36.356V480.71l-62.97 36.361Z" fill="#E3E3E3"/><path d="m1273.87 480.712-62.98-36.36v72.72l62.98-36.36Z" fill="#E3E3E3"/><path d="m1210.9 517.071-62.98-36.36v72.717l62.98-36.357Z" fill="#E3E3E3"/><path d="m1147.92 553.427 62.98 36.36V517.07l-62.98 36.357Z" fill="#F0F0F0"/><path d="m1273.87 553.427-62.98-36.357v72.717l62.98-36.36Z" fill="#E3E3E3"/><path d="m1273.87 480.712 62.97 36.36v-72.72l-62.97 36.36Z" fill="#F7F7F7"/><path d="m1336.9 517.071 62.97 36.357v-72.717l-62.97 36.36Z" fill="#D4D4D4"/><path d="m1399.82 480.712-62.98-36.36v72.72l62.98-36.36ZM1336.84 517.071l-62.97-36.36v72.717l62.97-36.357Z" fill="#E3E3E3"/><path d="m1273.87 553.427 62.97 36.36V517.07l-62.97 36.357Z" fill="#E3E3E3"/><path d="m1399.82 553.427-62.98-36.357v72.717l62.98-36.36ZM1399.82 480.712l62.97 36.36v-72.72l-62.97 36.36Z" fill="#D4D4D4"/><path d="m1462.79 517.071-62.97-36.361v72.717l62.97-36.356Z" fill="#F0F0F0"/><path d="m1399.82 553.427 62.97 36.36V517.07l-62.97 36.357ZM-48.617 589.786l62.977 36.357v-72.717l-62.977 36.36Z" fill="#F0F0F0"/><path d="m14.41 626.142 62.978 36.361v-72.717L14.41 626.142Z" fill="#F7F7F7"/><path d="m77.334 589.786-62.975-36.36v72.717l62.975-36.357Z" fill="#E3E3E3"/><path d="m14.36 626.142-62.977-36.356v72.717l62.977-36.361Z" fill="#F0F0F0"/><path d="m-48.617 662.5 62.977 36.36v-72.72l-62.977 36.36Z" fill="#F0F0F0"/><path d="m77.334 662.5-62.975-36.36v72.72l62.975-36.36Z" fill="#F0F0F0"/><path d="m77.332 589.786 62.978 36.357v-72.717l-62.978 36.36Z" fill="#D4D4D4"/><path d="m140.363 626.142 62.978 36.36v-72.717l-62.978 36.357Z" fill="#F0F0F0"/><path d="m203.283 589.786-62.974-36.36v72.717l62.974-36.357Z" fill="#F7F7F7"/><path d="m140.31 626.142-62.978-36.357v72.717l62.978-36.36Z" fill="#F0F0F0"/><path d="m77.332 662.501 62.978 36.36v-72.72l-62.978 36.36Z" fill="#F0F0F0"/><path d="m203.283 662.501-62.974-36.36v72.72l62.974-36.36ZM203.281 589.786l62.975 36.357v-72.717l-62.975 36.36Z" fill="#F0F0F0"/><path d="m266.312 626.142 62.975 36.36v-72.717l-62.975 36.357Z" fill="#F7F7F7"/><path d="m329.235 589.786-62.977-36.36v72.717l62.977-36.357Z" fill="#D4D4D4"/><path d="m266.256 626.142-62.975-36.357v72.717l62.975-36.36Z" fill="#F0F0F0"/><path d="m203.281 662.501 62.975 36.36v-72.72l-62.975 36.36Z" fill="#E3E3E3"/><path d="m329.235 662.501-62.977-36.36v72.72l62.977-36.36Z" fill="#F0F0F0"/><path d="m329.234 589.786 62.975 36.357v-72.717l-62.975 36.36ZM392.262 626.142l62.974 36.36v-72.717l-62.974 36.357ZM455.185 589.786l-62.974-36.36v72.717l62.974-36.357Z" fill="#D4D4D4"/><path d="m392.209 626.142-62.975-36.356v72.717l62.975-36.361Z" fill="#E3E3E3"/><path d="m329.234 662.5 62.975 36.36v-72.72l-62.975 36.36ZM455.185 662.5l-62.974-36.36v72.72l62.974-36.36Z" fill="#D4D4D4"/><path d="m455.188 589.786 62.977 36.357v-72.717l-62.977 36.36ZM518.215 626.142l62.978 36.361v-72.717l-62.978 36.356Z" fill="#F7F7F7"/><path d="m581.138 589.786-62.974-36.36v72.717l62.974-36.357Z" fill="#D4D4D4"/><path d="m518.165 626.142-62.977-36.356v72.717l62.977-36.361Z" fill="#D4D4D4"/><path d="m455.188 662.5 62.977 36.36v-72.72l-62.977 36.36Z" fill="#E3E3E3"/><path d="m581.138 662.5-62.974-36.36v72.72l62.974-36.36Z" fill="#F0F0F0"/><path d="m581.137 589.786 62.974 36.357v-72.717l-62.974 36.36ZM644.168 626.142l62.974 36.361v-72.717l-62.974 36.356Z" fill="#E3E3E3"/><path d="m707.091 589.786-62.978-36.36v72.717l62.978-36.357ZM644.111 626.142l-62.974-36.356v72.717l62.974-36.361Z" fill="#F7F7F7"/><path d="m581.137 662.5 62.974 36.36v-72.72l-62.974 36.36Z" fill="#D4D4D4"/><path d="m707.091 662.501-62.978-36.36v72.72l62.978-36.36ZM707.086 589.786l62.974 36.357v-72.717l-62.974 36.36ZM770.117 626.142l62.974 36.36v-72.717l-62.974 36.357Z" fill="#F0F0F0"/><path d="m833.037 589.786-62.975-36.36v72.717l62.975-36.357ZM770.06 626.142l-62.974-36.357v72.717l62.974-36.36Z" fill="#F7F7F7"/><path d="m707.086 662.501 62.974 36.36v-72.72l-62.974 36.36ZM833.037 662.501l-62.975-36.36v72.72l62.975-36.36ZM833.039 589.786l62.978 36.357v-72.717l-62.978 36.36Z" fill="#F0F0F0"/><path d="m896.066 626.142 62.978 36.36v-72.717l-62.978 36.357ZM958.99 589.786l-62.974-36.36v72.717l62.974-36.357Z" fill="#E3E3E3"/><path d="m896.017 626.142-62.978-36.356v72.717l62.978-36.361Z" fill="#F7F7F7"/><path d="m833.039 662.5 62.978 36.36v-72.72l-62.978 36.36Z" fill="#E3E3E3"/><path d="m958.99 662.5-62.974-36.36v72.72l62.974-36.36Z" fill="#F0F0F0"/><path d="m958.992 589.786 62.978 36.357v-72.717l-62.978 36.36ZM1022.02 626.142l62.97 36.361v-72.717l-62.97 36.356Z" fill="#E3E3E3"/><path d="m1084.95 589.786-62.98-36.36v72.717l62.98-36.357Z" fill="#F0F0F0"/><path d="m1021.97 626.142-62.978-36.356v72.717l62.978-36.361Z" fill="#D4D4D4"/><path d="m958.992 662.5 62.978 36.36v-72.72l-62.978 36.36ZM1084.95 662.5l-62.98-36.36v72.72l62.98-36.36ZM1084.95 589.786l62.97 36.357v-72.717l-62.97 36.36Z" fill="#E3E3E3"/><path d="m1147.97 626.142 62.98 36.361v-72.717l-62.98 36.356ZM1210.9 589.786l-62.98-36.36v72.717l62.98-36.357ZM1147.92 626.142l-62.97-36.356v72.717l62.97-36.361Z" fill="#F0F0F0"/><path d="m1084.95 662.5 62.97 36.36v-72.72l-62.97 36.36Z" fill="#D4D4D4"/><path d="m1210.9 662.501-62.98-36.36v72.72l62.98-36.36Z" fill="#F0F0F0"/><path d="m1210.89 589.786 62.98 36.357v-72.717l-62.98 36.36Z" fill="#F7F7F7"/><path d="m1273.92 626.142 62.98 36.36v-72.717l-62.98 36.357Z" fill="#E3E3E3"/><path d="m1336.84 589.786-62.97-36.36v72.717l62.97-36.357Z" fill="#D4D4D4"/><path d="m1273.87 626.142-62.98-36.357v72.717l62.98-36.36Z" fill="#F0F0F0"/><path d="m1210.89 662.501 62.98 36.36v-72.72l-62.98 36.36Z" fill="#E3E3E3"/><path d="m1336.84 662.501-62.97-36.36v72.72l62.97-36.36Z" fill="#F0F0F0"/><path d="m1336.84 589.786 62.98 36.357v-72.717l-62.98 36.36Z" fill="#E3E3E3"/><path d="m1399.87 626.142 62.98 36.36v-72.717l-62.98 36.357Z" fill="#F0F0F0"/><path d="m1462.79 589.786-62.97-36.36v72.717l62.97-36.357Z" fill="#E3E3E3"/><path d="m1399.82 626.142-62.98-36.357v72.717l62.98-36.36Z" fill="#F7F7F7"/><path d="m1336.84 662.501 62.98 36.36v-72.72l-62.98 36.36ZM1462.79 662.5l-62.97-36.36v72.72l62.97-36.36ZM14.36 698.872l62.974 36.357v-72.717l-62.975 36.36Z" fill="#E3E3E3"/><path d="m77.387 735.228 62.974 36.36v-72.716l-62.974 36.356Z" fill="#F7F7F7"/><path d="m140.31 698.872-62.978-36.36v72.717l62.978-36.357Z" fill="#D4D4D4"/><path d="m77.334 735.228-62.975-36.356v72.716l62.975-36.36Z" fill="#D4D4D4"/><path d="m14.36 771.59 62.974 36.36v-72.72l-62.975 36.36Z" fill="#E3E3E3"/><path d="M140.31 771.591 77.332 735.23v72.721l62.978-36.36Z" fill="#E3E3E3"/><path d="m140.309 698.872 62.974 36.357v-72.717l-62.974 36.36Z" fill="#F7F7F7"/><path d="m203.336 735.228 62.974 36.36v-72.717l-62.974 36.357Z" fill="#E3E3E3"/><path d="m266.256 698.872-62.975-36.36v72.717l62.975-36.357Z" fill="#F0F0F0"/><path d="m203.283 735.228-62.974-36.357v72.717l62.974-36.36Z" fill="#E3E3E3"/><path d="m140.309 771.591 62.974 36.36V735.23l-62.974 36.361Z" fill="#F7F7F7"/><path d="m266.256 771.591-62.975-36.361v72.721l62.975-36.36Z" fill="#F0F0F0"/><path d="m266.258 698.872 62.977 36.357v-72.717l-62.977 36.36Z" fill="#E3E3E3"/><path d="m329.285 735.228 62.978 36.36v-72.717l-62.978 36.357Z" fill="#F0F0F0"/><path d="m392.209 698.872-62.975-36.36v72.717l62.975-36.357Z" fill="#D4D4D4"/><path d="m329.235 735.228-62.977-36.357v72.717l62.977-36.36Z" fill="#F0F0F0"/><path d="m266.258 771.591 62.977 36.36V735.23l-62.977 36.361Z" fill="#D4D4D4"/><path d="m392.209 771.59-62.975-36.36v72.72l62.975-36.36Z" fill="#F0F0F0"/><path d="m392.211 698.872 62.974 36.357v-72.717l-62.974 36.36Z" fill="#E3E3E3"/><path d="m455.238 735.228 62.974 36.36v-72.716l-62.974 36.356Z" fill="#D4D4D4"/><path d="m518.165 698.872-62.977-36.36v72.717l62.977-36.357Z" fill="#F7F7F7"/><path d="m455.185 735.228-62.974-36.356v72.716l62.974-36.36Z" fill="#D4D4D4"/><path d="m392.211 771.59 62.974 36.36v-72.72l-62.974 36.36Z" fill="#E3E3E3"/><path d="m518.165 771.59-62.977-36.36v72.72l62.977-36.36Z" fill="#F0F0F0"/><path d="m518.164 698.872 62.974 36.357v-72.717l-62.974 36.36ZM581.191 735.228l62.975 36.36v-72.716l-62.975 36.356Z" fill="#E3E3E3"/><path d="m644.111 698.872-62.974-36.36v72.717l62.974-36.357Z" fill="#E3E3E3"/><path d="m581.138 735.228-62.974-36.356v72.716l62.974-36.36Z" fill="#F0F0F0"/><path d="m518.164 771.59 62.974 36.36v-72.72l-62.974 36.36Z" fill="#F7F7F7"/><path d="m644.111 771.59-62.974-36.36v72.72l62.974-36.36Z" fill="#D4D4D4"/><path d="m644.113 698.872 62.978 36.357v-72.717l-62.978 36.36Z" fill="#F7F7F7"/><path d="m707.141 735.228 62.977 36.36v-72.717l-62.977 36.357ZM770.06 698.872l-62.974-36.36v72.717l62.974-36.357Z" fill="#F0F0F0"/><path d="m707.091 735.228-62.978-36.357v72.717l62.978-36.36Z" fill="#D4D4D4"/><path d="m644.113 771.591 62.978 36.36V735.23l-62.978 36.361Z" fill="#E3E3E3"/><path d="m770.06 771.591-62.974-36.361v72.721l62.974-36.36ZM770.062 698.872l62.975 36.357v-72.717l-62.975 36.36Z" fill="#E3E3E3"/><path d="m833.09 735.228 62.974 36.36v-72.717l-62.974 36.357Z" fill="#F0F0F0"/><path d="m896.017 698.872-62.978-36.36v72.717l62.978-36.357Z" fill="#E3E3E3"/><path d="m833.037 735.228-62.975-36.357v72.717l62.975-36.36Z" fill="#D4D4D4"/><path d="m770.062 771.591 62.975 36.36V735.23l-62.975 36.361ZM896.017 771.59l-62.978-36.36v72.72l62.978-36.36Z" fill="#E3E3E3"/><path d="m896.016 698.872 62.974 36.357v-72.717l-62.974 36.36Z" fill="#F0F0F0"/><path d="m959.043 735.228 62.977 36.36v-72.716l-62.977 36.356Z" fill="#D4D4D4"/><path d="m1021.97 698.872-62.978-36.36v72.717l62.978-36.357Z" fill="#F0F0F0"/><path d="m958.99 735.228-62.974-36.356v72.716l62.974-36.36Z" fill="#E3E3E3"/><path d="m896.016 771.59 62.974 36.36v-72.72l-62.974 36.36Z" fill="#F7F7F7"/><path d="m1021.97 771.59-62.978-36.36v72.72l62.978-36.36ZM1021.97 698.872l62.98 36.357v-72.717l-62.98 36.36Z" fill="#D4D4D4"/><path d="m1085 735.228 62.97 36.36v-72.716L1085 735.228ZM1147.92 698.872l-62.97-36.36v72.717l62.97-36.357ZM1084.95 735.228l-62.98-36.356v72.716l62.98-36.36Z" fill="#F0F0F0"/><path d="m1021.97 771.59 62.98 36.36v-72.72l-62.98 36.36Z" fill="#D4D4D4"/><path d="m1147.92 771.59-62.97-36.36v72.72l62.97-36.36Z" fill="#F0F0F0"/><path d="m1147.92 698.872 62.98 36.357v-72.717l-62.98 36.36ZM1210.95 735.228l62.97 36.36v-72.716l-62.97 36.356Z" fill="#E3E3E3"/><path d="m1273.87 698.872-62.98-36.36v72.717l62.98-36.357Z" fill="#D4D4D4"/><path d="m1210.9 735.228-62.98-36.357v72.717l62.98-36.36Z" fill="#F0F0F0"/><path d="m1147.92 771.591 62.98 36.36V735.23l-62.98 36.361Z" fill="#E3E3E3"/><path d="m1273.87 771.591-62.98-36.361v72.721l62.98-36.36Z" fill="#F0F0F0"/><path d="m1273.87 698.872 62.97 36.357v-72.717l-62.97 36.36Z" fill="#F7F7F7"/><path d="m1336.9 735.228 62.97 36.36v-72.717l-62.97 36.357ZM1399.82 698.872l-62.98-36.36v72.717l62.98-36.357Z" fill="#F0F0F0"/><path d="m1336.84 735.228-62.97-36.357v72.717l62.97-36.36ZM1273.87 771.591l62.97 36.36V735.23l-62.97 36.361Z" fill="#D4D4D4"/><path d="m1399.82 771.591-62.98-36.361v72.721l62.98-36.36Z" fill="#F7F7F7"/><path d="m1399.82 698.872 62.97 36.357v-72.717l-62.97 36.36Z" fill="#D4D4D4"/><path d="m1462.79 735.228-62.97-36.356v72.716l62.97-36.36Z" fill="#F0F0F0"/><path d="m1399.82 771.59 62.97 36.36v-72.72l-62.97 36.36Z" fill="#E3E3E3"/><path style="mix-blend-mode:multiply" d="M1378.95 904.06c-97.34-14.507-403.19-159.888-751.949-360.854C278.241 342.24-.909 150.527-62.269 73.586L1378.95 904.06Z" fill="url('#paint0_radial_293_10807')"/><path style="mix-blend-mode:multiply" d="M1760.97 688.962c-97.34-14.507-403.19-159.887-751.95-360.853-348.755-200.966-627.904-392.68-689.266-469.621L1760.97 688.962Z" fill="url('#paint1_radial_293_10807')"/><path style="mix-blend-mode:multiply" d="M956.041 82.934c-61.332 76.964-340.409 268.784-689.092 469.883-348.683 201.098-654.476 346.595-751.808 361.139l1440.9-831.022Z" fill="url('#paint2_radial_293_10807')"/><path style="mix-blend-mode:multiply" d="M1241.63-590.895c-61.33 76.965-340.404 268.784-689.087 469.883-348.683 201.1-654.476 346.596-751.809 361.14L1241.63-590.895Z" fill="url('#paint3_radial_293_10807')"/><path style="mix-blend-mode:screen" d="M1475.68-140.43H-21.965V879.566H1475.68V-140.43Z" fill="url('#paint4_linear_293_10807')"/></g></g><defs><radialGradient id="paint0_radial_293_10807" cx="0" cy="0" r="1" gradientUnits="userSpaceOnUse" gradientTransform="matrix(741.88784 427.49395 -41.15628 71.42404 668.155 471.79)"><stop stop-color="#B3B3B3"/><stop offset=".089" stop-color="silver"/><stop offset=".313" stop-color="#DCDCDC"/><stop offset=".539" stop-color="#EFEFEF"/><stop offset=".768" stop-color="#FBFBFB"/><stop offset="1" stop-color="#fff"/></radialGradient><radialGradient id="paint1_radial_293_10807" cx="0" cy="0" r="1" gradientUnits="userSpaceOnUse" gradientTransform="matrix(117613 0 0 67772 556001 -3481870)"><stop stop-color="#B3B3B3"/><stop offset=".089" stop-color="silver"/><stop offset=".313" stop-color="#DCDCDC"/><stop offset=".539" stop-color="#EFEFEF"/><stop offset=".768" stop-color="#FBFBFB"/><stop offset="1" stop-color="#fff"/></radialGradient><radialGradient id="paint2_radial_293_10807" cx="0" cy="0" r="1" gradientUnits="userSpaceOnUse" gradientTransform="rotate(-29.974 2046238.297 -444967.5) scale(368638 20465.8)"><stop stop-color="#B3B3B3"/><stop offset=".089" stop-color="silver"/><stop offset=".313" stop-color="#DCDCDC"/><stop offset=".539" stop-color="#EFEFEF"/><stop offset=".768" stop-color="#FBFBFB"/><stop offset="1" stop-color="#fff"/></radialGradient><radialGradient id="paint3_radial_293_10807" cx="0" cy="0" r="1" gradientUnits="userSpaceOnUse" gradientTransform="rotate(-29.974 1715921.678 -861633.852) scale(368638 20465.8)"><stop stop-color="#B3B3B3"/><stop offset=".089" stop-color="silver"/><stop offset=".313" stop-color="#DCDCDC"/><stop offset=".539" stop-color="#EFEFEF"/><stop offset=".768" stop-color="#FBFBFB"/><stop offset="1" stop-color="#fff"/></radialGradient><clipPath id="clip0_293_10807"><path fill="#fff" d="M0 0h1440v746H0z"/></clipPath><clipPath id="clip1_293_10807"><path fill="#fff" transform="translate(-23 -135.719)" d="M0 0h1486v1017.44H0z"/></clipPath><linearGradient id="paint4_linear_293_10807" x1="1476.64" y1="1119.35" x2="254.431" y2="-102.857" gradientUnits="userSpaceOnUse"><stop/><stop offset=".255" stop-color="#2F2F2F"/><stop offset=".832" stop-color="#A4A4A4"/><stop offset="1" stop-color="#C7C7C7"/></linearGradient></defs></svg>