<svg width="83" height="83" fill="none" xmlns="http://www.w3.org/2000/svg"><rect x="15.813" width="68.635" height="68.635" rx="22" transform="rotate(13.318 15.813 0)" fill="#9BFBFF" fill-opacity=".2"/><g clip-path="url('#clip0_293_9668')"><path d="m41.818 64.09 1.503-6.346 3.173.751-.751 3.174 6.346 1.502.751-3.173 3.173.75 1.503-6.345-3.173-.752.75-3.173 6.347 1.503.751-3.174 3.173.752 1.002-4.231-3.173-.752.751-3.173-6.346-1.502.75-3.173 3.174.751 1.502-6.346-3.173-.752.751-3.173-6.346-1.502-.751 3.173-3.174-.751 1.503-6.346-3.173-.752.75-3.173-4.23-1.001-.751 3.173-3.173-.751-1.503 6.346-3.173-.751.751-3.173-6.346-1.502-.751 3.173-3.173-.752-1.503 6.347 3.174.751-.752 3.173-6.346-1.502-.751 3.173-3.173-.751-1.002 4.23 3.173.752-.75 3.173 6.345 1.502-.75 3.174-3.174-.752-1.502 6.347 3.173.75-.751 3.174 6.346 1.502.751-3.173 3.173.751-1.502 6.347 3.173.75v.001l-.75 3.173 4.23 1.002.751-3.174" fill="#9BFBFF"/><path d="m49.41 17.857-4.23-1.002-.752 3.174 4.232 1.001.75-3.173ZM37.33 21.7l-6.346-1.502-.75 3.173 6.346 1.503.75-3.173Z" fill="#000"/><path d="m30.236 23.368-3.174-.75-1.502 6.346 3.173.75 1.503-6.346ZM34.328 34.393l-3.173-.752.751-3.173-3.173-.75-.751 3.172-6.346-1.502-.752 3.173 12.693 3.005.751-3.173ZM39.002 28.798l-.752 3.173 3.174.751.75-3.173.752-3.173 1.502-6.346-3.173-.752-1.502 6.347-3.173-.751-.751 3.173 3.173.751ZM60.6 27.21l-6.346-1.503-.751 3.173 6.346 1.503.751-3.174ZM63.025 31.13l-3.173-.751-1.503 6.346 3.173.751 1.503-6.346ZM54.426 39.15l-3.173-.75-.751 3.173 12.692 3.005.752-3.174-6.347-1.502.751-3.173-3.173-.751-.751 3.173Z" fill="#000"/><path d="m46.407 30.55-.751 3.173 3.173.751.75-3.173 3.174.751.751-3.173-3.173-.751 1.502-6.347-3.173-.75-1.502 6.346-.751 3.173ZM38.645 63.337l-4.23-1.001-.752 3.173 4.23 1.002.752-3.173ZM29.569 54.49l-6.346-1.502-.752 3.173 6.347 1.503.751-3.173ZM24.728 46.64l-3.173-.75-1.503 6.346 3.174.751 1.502-6.346Z" fill="#000"/><path d="m28.651 44.22 3.173.75.752-3.172-12.693-3.005-.751 3.173 6.346 1.502-.751 3.174 3.173.75.751-3.172ZM36.67 52.82l.75-3.173-3.173-.751-.75 3.173-3.174-.751-.751 3.173 3.173.751-1.502 6.347 3.173.75 1.502-6.346.751-3.173ZM52.839 59.998l-6.347-1.502-.751 3.173 6.346 1.503.752-3.174ZM57.517 54.403l-3.173-.752-1.503 6.347 3.174.75 1.502-6.345ZM48.749 48.974l3.173.751-.751 3.173 3.173.751.751-3.173 6.347 1.503.75-3.174L49.5 45.801l-.751 3.173Z" fill="#000"/><path d="m44.07 54.573.752-3.173-3.174-.752-.75 3.174-.752 3.173-1.502 6.346 3.173.751 1.502-6.346 3.173.751.752-3.173-3.174-.751ZM20.884 34.56l-3.173-.751-1.002 4.23 3.174.752 1.001-4.231ZM66.365 45.33l-3.174-.752-1.001 4.231 3.173.751 1.002-4.23Z" fill="#000"/></g><defs><clipPath id="clip0_293_9668"><path fill="#fff" transform="rotate(13.318 -38.186 104.168)" d="M0 0h50v50H0z"/></clipPath></defs></svg>