<svg width="104" height="104" fill="none" xmlns="http://www.w3.org/2000/svg"><rect x=".563" y="22.301" width="84" height="84" rx="22" transform="rotate(-15 .563 22.3)" fill="#F0C733" fill-opacity=".1"/><path d="m77.549 37.588-2.627.865.865 2.626 2.626-.865-.864-2.626ZM76.677 34.955l-2.626.865.866 2.629 2.626-.865-.866-2.629ZM75.782 41.075l-2.63.866.865 2.626 2.63-.866-.865-2.626Z" fill="#222221"/><path d="m74.919 38.45-2.63.866.865 2.626 2.63-.866-.865-2.626Z" fill="#E79E39"/><path d="m74.051 35.822-2.63.865.867 2.63 2.63-.867-.867-2.629ZM74.017 44.565l-2.626.865.865 2.628 2.627-.865-.866-2.628Z" fill="#222221"/><path d="m73.154 41.944-2.627.865.865 2.625 2.627-.865-.865-2.626Z" fill="#E79E39"/><path d="m72.287 39.319-2.627.865.865 2.625 2.627-.865-.865-2.626Z" fill="#E79E39"/><path d="m71.424 36.686-2.627.865.866 2.628 2.626-.865-.865-2.628ZM79.18 69.08l-2.63.865.866 2.626 2.63-.866-.866-2.626ZM78.313 66.45l-2.63.866.866 2.629 2.63-.866-.866-2.629Z" fill="#222221"/><path d="m77.454 63.825-2.63.866.865 2.626 2.63-.866-.865-2.626ZM72.258 48.06l-2.63.866.866 2.625 2.63-.866-.866-2.625Z" fill="#222221"/><path d="m71.395 45.427-2.63.866.866 2.629 2.63-.866-.866-2.629Z" fill="#E79E39"/><path d="m70.528 42.81-2.63.866.865 2.625 2.63-.866-.865-2.625ZM69.665 40.18l-2.63.867.865 2.626 2.63-.866-.865-2.626Z" fill="#E79E39"/><path d="m68.797 37.548-2.629.866.866 2.629 2.63-.866-.867-2.629Z" fill="#F0C733"/><path d="m67.934 34.93-2.63.867.866 2.626 2.63-.866-.866-2.626ZM76.552 69.947l-2.626.865.865 2.626 2.626-.865-.865-2.626Z" fill="#222221"/><path d="m75.685 67.315-2.626.865.865 2.628 2.627-.865-.866-2.628Z" fill="#E79E39"/><path d="m74.822 64.69-2.627.865.865 2.625 2.627-.865-.865-2.625Z" fill="#F0C733"/><path d="m73.955 62.06-2.627.866.866 2.628 2.627-.865-.866-2.628Z" fill="#222221"/><path d="m73.088 59.436-2.627.865.865 2.626 2.627-.865-.865-2.626ZM72.22 56.803l-2.626.865.866 2.629 2.626-.865-.866-2.63Z" fill="#222221"/><path d="m71.361 54.182-2.627.865.865 2.626 2.627-.865-.865-2.626ZM70.49 51.549l-2.627.865.866 2.629 2.627-.865-.866-2.629Z" fill="#222221"/><path d="m69.63 48.932-2.626.865.865 2.626 2.626-.865-.864-2.626ZM68.763 46.295l-2.626.865.865 2.629 2.627-.865-.866-2.629Z" fill="#E79E39"/><path d="m67.896 43.674-2.627.865.865 2.626 2.627-.865-.865-2.626Z" fill="#E79E39"/><path d="m67.033 41.049-2.627.865.865 2.626 2.627-.865-.865-2.626ZM66.166 38.416l-2.627.865.866 2.629 2.627-.865-.866-2.629Z" fill="#F0C733"/><path d="m65.302 35.795-2.626.865.865 2.626 2.626-.865-.865-2.626ZM73.922 70.81l-2.629.866.865 2.626 2.63-.867-.865-2.625Z" fill="#222221"/><path d="m73.063 68.177-2.63.866.866 2.629 2.63-.866-.866-2.629Z" fill="#E79E39"/><path d="m72.192 65.556-2.63.866.865 2.626 2.63-.866-.865-2.626Z" fill="#E79E39"/><path d="m71.329 62.923-2.63.866.866 2.629 2.63-.866-.866-2.629Z" fill="#F0C733"/><path d="m70.465 60.298-2.63.866.866 2.626 2.63-.866-.866-2.626Z" fill="#F0C733"/><path d="m69.598 57.67-2.63.865.867 2.629 2.63-.866-.867-2.629Z" fill="#F0C733"/><path d="m68.731 55.048-2.63.866.865 2.626 2.63-.866-.865-2.626Z" fill="#F0C733"/><path d="m67.868 52.42-2.63.865.866 2.629 2.63-.866-.866-2.629Z" fill="#F0C733"/><path d="m67.004 49.794-2.629.866.865 2.626 2.63-.866-.866-2.626ZM66.137 47.161l-2.63.866.867 2.629 2.63-.866-.867-2.629Z" fill="#E79E39"/><path d="m65.274 44.54-2.63.866.865 2.626 2.63-.866-.865-2.626Z" fill="#E79E39"/><path d="m64.407 41.915-2.63.866.865 2.626 2.63-.866-.865-2.626ZM63.544 39.279l-2.63.865.866 2.63 2.63-.867-.866-2.628Z" fill="#F0C733"/><path d="m62.672 36.661-2.629.866.865 2.626 2.63-.866-.865-2.626ZM70.427 69.041l-2.626.865.866 2.629 2.626-.865-.866-2.629Z" fill="#222221"/><path d="m69.564 66.42-2.626.865.864 2.626 2.627-.865-.865-2.626ZM68.697 63.787l-2.627.865.866 2.629 2.627-.865-.866-2.629Z" fill="#E79E39"/><path d="m67.83 61.17-2.627.865.865 2.626 2.627-.865-.865-2.626ZM66.97 58.537l-2.626.865.866 2.629 2.626-.865-.866-2.629Z" fill="#F0C733"/><path d="m66.103 55.912-2.626.865.864 2.626 2.627-.865-.865-2.626ZM65.236 53.283l-2.627.865.866 2.629 2.627-.865-.866-2.629Z" fill="#F0C733"/><path d="m64.373 50.662-2.627.865.865 2.626 2.627-.865-.865-2.626ZM63.506 48.026l-2.627.865.866 2.628 2.626-.865-.865-2.628Z" fill="#E79E39"/><path d="m62.638 45.404-2.626.865.865 2.626 2.626-.865-.865-2.626Z" fill="#E79E39"/><path d="m61.775 42.783-2.627.865.865 2.626 2.627-.865-.865-2.626ZM60.908 40.147l-2.627.865.866 2.628 2.627-.865-.866-2.628Z" fill="#F0C733"/><path d="m60.045 37.526-2.627.865.865 2.625 2.627-.865-.865-2.625ZM67.801 69.907l-2.63.866.867 2.63 2.63-.867-.867-2.629Z" fill="#222221"/><path d="m66.938 67.286-2.63.866.865 2.626 2.63-.866-.865-2.626ZM66.075 64.653l-2.63.866.866 2.63 2.63-.867-.866-2.629Z" fill="#E79E39"/><path d="m65.208 62.032-2.63.866.865 2.626 2.63-.866-.865-2.626Z" fill="#E79E39"/><path d="m64.34 59.4-2.63.866.867 2.628 2.63-.866-.867-2.628Z" fill="#F0C733"/><path d="m63.477 56.779-2.63.865.865 2.626 2.63-.866-.865-2.626ZM62.61 54.15l-2.63.866.866 2.628 2.63-.866-.866-2.628Z" fill="#F0C733"/><path d="m61.747 51.52-2.63.867.865 2.626 2.63-.866-.865-2.626ZM60.88 48.892l-2.63.866.866 2.628 2.63-.866-.867-2.628Z" fill="#E79E39"/><path d="m60.016 46.27-2.63.867.866 2.626 2.63-.866-.866-2.626Z" fill="#F0C733"/><path d="m59.153 43.646-2.63.866.865 2.626 2.63-.866-.865-2.626ZM58.286 41.009l-2.63.866.866 2.629 2.63-.866-.866-2.629Z" fill="#F0C733"/><path d="m57.422 38.392-2.629.866.865 2.626 2.63-.866-.865-2.626Z" fill="#E79E39"/><path d="m56.555 35.759-2.63.866.867 2.629 2.63-.866-.867-2.629Z" fill="#222221"/><path d="m55.692 33.138-2.63.866.865 2.626 2.63-.866-.865-2.626ZM64.306 68.154l-2.626.865.865 2.626 2.626-.865-.865-2.626Z" fill="#222221"/><path d="m63.44 65.522-2.627.865.865 2.628 2.627-.865-.866-2.628Z" fill="#E79E39"/><path d="m62.58 62.897-2.627.865.865 2.626 2.627-.866-.865-2.625ZM61.713 60.268l-2.627.865.866 2.628 2.626-.865-.865-2.628Z" fill="#E79E39"/><path d="m60.845 57.647-2.626.865.865 2.626 2.626-.866-.865-2.625Z" fill="#E79E39"/><path d="m59.978 55.01-2.626.865.865 2.629 2.627-.865-.866-2.63Z" fill="#F0C733"/><path d="m59.119 52.389-2.627.865.865 2.626 2.627-.865-.865-2.626ZM58.248 49.76l-2.627.865.866 2.629 2.627-.865-.866-2.63Z" fill="#E79E39"/><path d="m57.384 47.131-2.626.865.865 2.626 2.626-.865-.865-2.626Z" fill="#F0C733"/><path d="m56.517 44.51-2.626.865.864 2.626 2.627-.865-.865-2.626ZM55.654 41.877l-2.627.865.866 2.629 2.627-.865-.866-2.629Z" fill="#E79E39"/><path d="m54.79 39.256-2.626.865.865 2.626 2.627-.865-.865-2.626ZM53.923 36.627l-2.626.865.866 2.629 2.626-.865-.866-2.629Z" fill="#E79E39"/><path d="m53.06 34.002-2.626.865.864 2.626 2.627-.865-.865-2.626Z" fill="#E79E39"/><path d="m52.193 31.373-2.627.865.866 2.629 2.627-.865-.866-2.629Z" fill="#222221"/><path d="m51.33 28.748-2.627.865.865 2.626 2.627-.865-.865-2.626ZM60.817 66.384l-2.63.866.866 2.629 2.63-.866-.866-2.629Z" fill="#222221"/><path d="m59.95 63.763-2.63.866.865 2.626 2.63-.866-.865-2.626ZM59.087 61.13l-2.63.866.866 2.629 2.63-.866-.867-2.629Z" fill="#E79E39"/><path d="m58.223 58.509-2.63.866.866 2.626 2.63-.866-.866-2.626ZM57.356 55.876l-2.63.866.866 2.629 2.63-.866-.866-2.629Z" fill="#E79E39"/><path d="m56.493 53.255-2.63.866.865 2.626 2.63-.866-.865-2.626ZM55.626 50.622l-2.63.866.866 2.629 2.63-.866-.866-2.629Z" fill="#E79E39"/><path d="m54.758 48.001-2.63.866.866 2.626 2.63-.866-.866-2.626ZM53.891 45.372l-2.63.866.866 2.626 2.63-.866-.866-2.626ZM53.028 42.74l-2.63.865.866 2.63 2.63-.867-.866-2.629Z" fill="#E79E39"/><path d="m52.165 40.122-2.63.866.865 2.626 2.63-.866-.865-2.626Z" fill="#E79E39"/><path d="m51.301 37.493-2.63.866.867 2.629 2.63-.866-.867-2.629ZM50.43 34.868l-2.63.866.866 2.626 2.63-.866-.866-2.626Z" fill="#E79E39"/><path d="m49.567 32.24-2.63.865.866 2.63 2.63-.867-.866-2.629ZM48.704 29.61l-2.63.867.865 2.625 2.63-.866-.865-2.625Z" fill="#E79E39"/><path d="m47.837 26.982-2.63.866.866 2.628 2.63-.866-.867-2.628Z" fill="#222221"/><path d="m46.973 24.36-2.63.867.866 2.625 2.63-.866-.866-2.626ZM58.185 67.252l-2.626.865.865 2.629 2.627-.865-.866-2.629Z" fill="#222221"/><path d="m57.322 64.627-2.627.865.865 2.626 2.627-.865-.865-2.626ZM56.455 61.998l-2.627.865.866 2.629 2.627-.865-.866-2.629Z" fill="#E79E39"/><path d="m55.592 59.373-2.627.865.865 2.626 2.626-.865-.864-2.626ZM54.724 56.74l-2.626.865.866 2.63 2.626-.866-.866-2.629Z" fill="#E79E39"/><path d="m53.857 54.123-2.627.865.865 2.626 2.627-.865-.865-2.626ZM52.994 51.49l-2.627.865.866 2.63 2.627-.866-.866-2.629Z" fill="#E79E39"/><path d="m52.13 48.865-2.626.865.865 2.626 2.627-.865-.865-2.626ZM51.263 46.236l-2.626.866.865 2.625 2.626-.865-.865-2.626Z" fill="#F0C733"/><path d="m50.4 43.611-2.627.866.866 2.628 2.627-.865-.866-2.629Z" fill="#F0C733"/><path d="m49.533 40.99-2.627.865.865 2.626 2.627-.865-.865-2.626ZM48.666 38.358l-2.627.865.866 2.628 2.627-.865-.866-2.628Z" fill="#F0C733"/><path d="m47.803 35.736-2.627.866.865 2.625 2.626-.865-.864-2.626ZM46.94 33.104l-2.627.865.865 2.628 2.627-.865-.866-2.628Z" fill="#fff"/><path d="m46.076 30.479-2.627.865.865 2.625 2.627-.864-.865-2.626Z" fill="#fff"/><path d="m45.209 27.85-2.627.865.866 2.628 2.627-.865-.866-2.628Z" fill="#222221"/><path d="m44.345 25.225-2.626.865.865 2.626 2.626-.866-.865-2.625ZM56.423 70.748l-2.626.865.865 2.626 2.626-.865-.864-2.626Z" fill="#222221"/><path d="m55.556 68.115-2.626.866.865 2.628 2.627-.865-.866-2.629Z" fill="#E79E39"/><path d="m54.693 65.494-2.627.865.865 2.626 2.627-.865-.865-2.626ZM53.826 62.861l-2.627.866.866 2.628 2.627-.865-.866-2.628Z" fill="#E79E39"/><path d="m52.963 60.24-2.627.865.865 2.626 2.627-.865-.865-2.626Z" fill="#E79E39"/><path d="m52.095 57.611-2.626.866.866 2.628 2.626-.865-.866-2.629Z" fill="#F0C733"/><path d="m51.232 54.986-2.627.866.865 2.625 2.627-.865-.865-2.626ZM50.369 52.354l-2.627.865.866 2.628 2.627-.865-.866-2.628Z" fill="#E79E39"/><path d="m49.502 49.733-2.627.865.865 2.625 2.627-.865-.865-2.625Z" fill="#F0C733"/><path d="m48.638 47.108-2.626.865.865 2.625 2.626-.865-.865-2.625ZM47.771 44.475l-2.627.865.866 2.628 2.627-.865-.866-2.628Z" fill="#F0C733"/><path d="m46.908 41.854-2.627.865.865 2.625 2.627-.865-.865-2.625ZM46.04 39.22l-2.626.866.866 2.629 2.627-.866-.866-2.628Z" fill="#fff"/><path d="m45.178 36.596-2.627.865.865 2.626 2.626-.865-.864-2.626Z" fill="#fff"/><path d="m44.314 33.967-2.627.865.866 2.629 2.627-.865-.866-2.629Z" fill="#222221"/><path d="m43.447 31.346-2.627.865.865 2.626 2.627-.865-.865-2.626ZM54.66 74.236l-2.629.866.866 2.628 2.63-.866-.866-2.629Z" fill="#222221"/><path d="m53.797 71.615-2.629.866.865 2.625 2.63-.866-.865-2.625ZM52.934 68.982l-2.63.866.866 2.628 2.63-.866-.866-2.628Z" fill="#E79E39"/><path d="m52.067 66.36-2.63.867.865 2.625 2.63-.866-.865-2.626ZM51.2 63.728l-2.63.866.866 2.628 2.63-.866-.866-2.628Z" fill="#E79E39"/><path d="m50.34 61.107-2.63.866.866 2.625 2.63-.866-.866-2.625ZM49.473 58.474l-2.63.866.867 2.628 2.63-.866-.867-2.628Z" fill="#F0C733"/><path d="m48.606 55.853-2.63.866.865 2.625 2.63-.866-.865-2.625ZM47.743 53.22l-2.63.866.866 2.629 2.63-.867-.866-2.628Z" fill="#E79E39"/><path d="m46.876 50.595-2.63.866.865 2.626 2.63-.866-.865-2.626Z" fill="#F0C733"/><path d="m46.016 47.97-2.63.866.866 2.626 2.63-.866-.866-2.626Z" fill="#F0C733"/><path d="m45.145 45.337-2.63.866.866 2.629 2.63-.866-.866-2.629Z" fill="#fff"/><path d="m44.282 42.716-2.63.866.865 2.626 2.63-.866-.865-2.626Z" fill="#fff"/><path d="m43.419 40.083-2.63.866.866 2.629 2.63-.866-.866-2.629Z" fill="#222221"/><path d="m42.551 37.466-2.63.866.866 2.626 2.63-.866-.866-2.626ZM52.033 75.1l-2.627.865.866 2.629 2.627-.866-.866-2.628Z" fill="#222221"/><path d="m51.17 72.479-2.627.865.865 2.626 2.627-.866-.865-2.625ZM50.303 69.846l-2.627.865.866 2.629 2.626-.865-.865-2.63Z" fill="#E79E39"/><path d="m49.443 67.225-2.627.865.865 2.626 2.627-.865-.865-2.626ZM48.576 64.596l-2.627.865.866 2.629 2.627-.865-.866-2.63Z" fill="#F0C733"/><path d="m47.709 61.97-2.627.866.865 2.626 2.627-.865-.865-2.626Z" fill="#F0C733"/><path d="m46.842 59.342-2.627.865.866 2.629 2.626-.865-.865-2.629Z" fill="#F0C733"/><path d="m45.978 56.717-2.626.865.864 2.626 2.627-.865-.865-2.626ZM45.111 54.084l-2.627.865.866 2.629 2.627-.865-.866-2.629Z" fill="#E79E39"/><path d="m44.248 51.46-2.627.864.865 2.626 2.627-.865-.865-2.626Z" fill="#E79E39"/><path d="m43.384 48.834-2.626.865.865 2.626 2.626-.865-.865-2.626Z" fill="#F0C733"/><path d="m42.517 46.205-2.626.865.866 2.629 2.626-.865-.866-2.629Z" fill="#fff"/><path d="m41.654 43.584-2.627.865.865 2.626 2.627-.865-.865-2.626ZM50.274 78.599l-2.63.866.865 2.626 2.63-.866-.865-2.626Z" fill="#222221"/><path d="m49.407 75.966-2.63.866.866 2.629 2.63-.866-.866-2.629Z" fill="#E79E39"/><path d="m48.544 73.345-2.63.866.865 2.626 2.63-.866-.865-2.626Z" fill="#E79E39"/><path d="m47.68 70.716-2.63.866.867 2.629 2.63-.866-.867-2.629ZM46.81 68.091l-2.63.866.865 2.626 2.63-.866-.866-2.626ZM45.946 65.458l-2.63.866.866 2.629 2.63-.866-.866-2.629Z" fill="#F0C733"/><path d="m45.087 62.837-2.63.866.865 2.626 2.63-.866-.865-2.626Z" fill="#F0C733"/><path d="m44.215 60.204-2.63.866.867 2.629 2.63-.866-.867-2.629Z" fill="#E79E39"/><path d="m43.356 57.58-2.63.865.865 2.626 2.63-.866-.865-2.626ZM42.485 54.947l-2.63.865.866 2.63 2.63-.867-.866-2.629Z" fill="#E79E39"/><path d="m41.622 52.325-2.63.866.865 2.626 2.63-.866-.865-2.626Z" fill="#E79E39"/><path d="m40.758 49.7-2.63.866.866 2.626 2.63-.866-.866-2.626Z" fill="#F0C733"/><path d="m39.891 47.068-2.63.866.866 2.628 2.63-.866-.866-2.628Z" fill="#fff"/><path d="m39.028 44.447-2.63.865.865 2.626 2.63-.866-.865-2.626ZM47.642 79.463l-2.626.865.864 2.626 2.627-.865-.865-2.626Z" fill="#222221"/><path d="m46.779 76.83-2.627.865.866 2.629 2.627-.865-.866-2.629Z" fill="#E79E39"/><path d="m45.912 74.213-2.627.865.865 2.626 2.627-.865-.865-2.626Z" fill="#F0C733"/><path d="m45.048 71.576-2.626.865.866 2.629 2.626-.865-.866-2.629Z" fill="#222221"/><path d="m44.181 68.955-2.626.865.865 2.626 2.626-.865-.865-2.626Z" fill="#222221"/><path d="m43.318 66.326-2.627.865.866 2.629 2.627-.865-.866-2.629Z" fill="#222221"/><path d="m42.455 63.701-2.627.865.865 2.626 2.627-.865-.865-2.626ZM41.588 61.069l-2.627.865.866 2.628 2.626-.865-.865-2.629Z" fill="#222221"/><path d="m40.724 58.447-2.626.865.864 2.626 2.627-.865-.865-2.626ZM39.857 55.815l-2.627.865.866 2.628 2.627-.865-.866-2.628Z" fill="#E79E39"/><path d="m38.994 53.194-2.627.865.865 2.625 2.627-.865-.865-2.626Z" fill="#E79E39"/><path d="m38.127 50.565-2.627.865.865 2.626 2.627-.866-.865-2.625Z" fill="#F0C733"/><path d="m37.263 47.936-2.626.865.865 2.628 2.627-.865-.866-2.628Z" fill="#fff"/><path d="m36.396 45.31-2.627.866.865 2.625 2.627-.864-.865-2.626ZM45.016 80.333l-2.63.866.866 2.626 2.63-.866-.866-2.626ZM44.149 77.697l-2.63.865.866 2.63 2.63-.867-.866-2.629Z" fill="#222221"/><path d="m43.29 75.075-2.63.866.865 2.626 2.63-.866-.865-2.626ZM38.098 59.314l-2.63.866.866 2.625 2.63-.866-.866-2.625Z" fill="#222221"/><path d="m37.235 56.68-2.63.867.866 2.629 2.63-.867-.866-2.628Z" fill="#E79E39"/><path d="m36.364 54.056-2.63.866.865 2.626 2.63-.866-.865-2.626Z" fill="#E79E39"/><path d="m35.5 51.43-2.629.867.865 2.626 2.63-.866-.865-2.626Z" fill="#fff"/><path d="m34.633 48.802-2.63.866.867 2.629 2.63-.866-.867-2.629Z" fill="#fff"/><path d="m33.77 46.18-2.63.867.865 2.626 2.63-.866-.865-2.626ZM34.603 57.545l-2.626.865.865 2.629 2.627-.865-.866-2.629Z" fill="#222221"/><path d="m33.736 54.924-2.627.865.865 2.626 2.627-.865-.865-2.626Z" fill="#E79E39"/><path d="m32.873 52.299-2.627.865.865 2.626 2.627-.865-.865-2.626Z" fill="#fff"/><path d="m32.006 49.666-2.627.865.866 2.629 2.626-.865-.865-2.629ZM31.114 55.786l-2.63.866.865 2.626 2.63-.866-.865-2.626Z" fill="#222221"/><path d="m30.247 53.161-2.63.866.865 2.626 2.63-.866-.865-2.626Z" fill="#fff"/><path d="m29.38 50.529-2.63.865.866 2.63 2.63-.867-.866-2.628ZM27.615 54.03l-2.627.864.865 2.626 2.627-.865-.865-2.626ZM26.748 51.397l-2.627.865.866 2.628 2.627-.865-.866-2.628Z" fill="#222221"/></svg>