<svg width="103" height="103" fill="none" xmlns="http://www.w3.org/2000/svg"><rect x="20.387" y=".664" width="83.99" height="83.99" rx="22" transform="rotate(13.582 20.387 .664)" fill="#9D66D5" fill-opacity=".1"/><g clip-path="url('#clip0_293_9650')"><path d="m81.867 48.394 1.474.358a.632.632 0 0 0 .762-.465l.674-2.772a.638.638 0 0 0-.366-.73 4.367 4.367 0 0 1-2.539-4.166.638.638 0 0 0-.48-.66L29.934 27.464a.638.638 0 0 0-.73.366 4.368 4.368 0 0 1-4.166 2.539.638.638 0 0 0-.66.48l-.673 2.773c-.082.339.126.68.465.763l1.473.357a.632.632 0 0 1 .465.763l-.656 2.7a.632.632 0 0 1-.763.465l-1.473-.357a.632.632 0 0 0-.763.464l-.655 2.701a.632.632 0 0 0 .464.763l1.473.358c.34.082.547.424.465.762l-.656 2.701a.632.632 0 0 1-.763.465l-1.473-.358a.632.632 0 0 0-.762.465l-.656 2.7a.632.632 0 0 0 .464.764l1.474.357a.632.632 0 0 1 .464.763l-.655 2.7a.632.632 0 0 1-.763.465l-1.473-.357a.632.632 0 0 0-.763.464l-.673 2.773c-.073.3.084.602.366.73a4.368 4.368 0 0 1 2.538 4.166.638.638 0 0 0 .48.66l51.457 12.494c.3.073.602-.084.73-.366a4.367 4.367 0 0 1 4.166-2.538.638.638 0 0 0 .66-.48l.673-2.773a.632.632 0 0 0-.465-.763l-1.473-.357a.632.632 0 0 1-.465-.763l.656-2.7a.632.632 0 0 1 .763-.466l1.473.358a.632.632 0 0 0 .763-.465l.656-2.7a.632.632 0 0 0-.465-.763l-1.473-.358a.632.632 0 0 1-.465-.763l.656-2.7a.632.632 0 0 1 .763-.465l1.473.358c.339.082.68-.126.762-.465l.656-2.7a.632.632 0 0 0-.464-.763l-1.474-.358a.632.632 0 0 1-.464-.763l.656-2.7a.632.632 0 0 1 .762-.466Z" fill="#9D66D5"/><path d="M72.808 75.314c.3.073.603-.084.73-.366a4.367 4.367 0 0 1 4.166-2.538.638.638 0 0 0 .66-.48l.674-2.773a.632.632 0 0 0-.465-.763l-1.473-.358a.632.632 0 0 1-.465-.762l.656-2.701a.632.632 0 0 1 .763-.465l1.473.358a.632.632 0 0 0 .763-.465l.655-2.7a.632.632 0 0 0-.464-.763l-1.474-.358a.632.632 0 0 1-.464-.763l.655-2.7a.632.632 0 0 1 .763-.465l1.473.358c.34.082.68-.126.763-.465l.656-2.7a.632.632 0 0 0-.465-.764l-1.473-.357a.632.632 0 0 1-.465-.763l.656-2.7a.632.632 0 0 1 .763-.465l1.473.357c.34.083.68-.126.763-.464l.673-2.773a.638.638 0 0 0-.366-.73 4.368 4.368 0 0 1-2.538-4.166.638.638 0 0 0-.481-.66l-4.728-1.148c-3.84 8.818-16.29 25.294-37.834 28.252l33.977 8.25Z" fill="#8659B9"/><path d="m70.251 70.536-44.439-10.79a1.263 1.263 0 0 1-.93-1.527l6.082-25.042a1.263 1.263 0 0 1 1.525-.93l44.439 10.79c.678.166 1.094.849.93 1.526l-6.082 25.043a1.263 1.263 0 0 1-1.525.93Z" fill="#FFE07D"/><path d="m76.93 43.035-2.156-.523c-4.406 7.602-13.422 17.839-27.236 22.505l22.714 5.516a1.263 1.263 0 0 0 1.526-.93l6.08-25.042a1.263 1.263 0 0 0-.929-1.526Z" fill="#FFD064"/><path d="m73.497 45.399-28.48-6.916a.938.938 0 0 0-1.133.69l-.953 3.928a.938.938 0 0 0 .69 1.132L72.1 51.15a.938.938 0 0 0 1.133-.69l.953-3.928a.938.938 0 0 0-.69-1.132Z" fill="#F4FBFF"/><path d="m71.144 55.077-28.48-6.916a.938.938 0 0 1 .443-1.822l28.48 6.915a.938.938 0 1 1-.443 1.823ZM68.285 66.858l-28.48-6.916a.938.938 0 0 1 .442-1.822l28.48 6.915a.938.938 0 1 1-.442 1.823ZM57.915 56.026 41.711 52.09a.938.938 0 1 1 .443-1.823l16.204 3.935a.938.938 0 1 1-.443 1.823Z" fill="#E28086"/><path d="M37.054 43.688c-.175-.114-.34-.225-.497-.333l.787-3.243c.548.29.862.645.89.677a.938.938 0 0 0 1.442-1.2c-.04-.048-.707-.839-1.88-1.334l.128-.532a.938.938 0 1 0-1.822-.442l-.141.58c-.048-.001-.095-.003-.143-.002a3.214 3.214 0 0 0-2.98 2.003c-.487 1.162-.299 2.433.48 3.238.338.35.705.683 1.123 1.02l-1.016 4.185c-.459-.173-.768-.405-1.229-.897a.938.938 0 0 0-1.368 1.283c.777.829 1.375 1.19 2.152 1.445l-.157.648a.938.938 0 1 0 1.822.443l.178-.733c1.698.001 3.057-1.11 3.609-2.398.714-1.666.173-3.396-1.378-4.408Zm-2.388-1.892c-.248-.257-.288-.753-.097-1.208.09-.217.35-.677.927-.813l-.556 2.292a9.343 9.343 0 0 1-.274-.271Zm2.041 5.561a2.099 2.099 0 0 1-1.415 1.207l.793-3.266c1.076.743.75 1.76.622 2.06Z" fill="#FFC250"/></g><defs><clipPath id="clip0_293_9650"><path fill="#fff" transform="rotate(13.648 -43.638 126.02)" d="M0 0h62.152v62.152H0z"/></clipPath></defs></svg>